<svg width="21" height="20" viewBox="0 0 21 20" fill="none" xmlns="http://www.w3.org/2000/svg">
<path fill-rule="evenodd" clip-rule="evenodd" d="M0 10C0 4.47 4.52232 0 10.1171 0C15.7118 0 20.2341 4.47 20.2341 10C20.2341 15.53 15.7118 20 10.1171 20C4.52232 20 0 15.53 0 10ZM10.1167 8.58971L12.0288 6.69971C12.4133 6.31971 13.0608 6.31971 13.4553 6.69971C13.8499 7.08971 13.8499 7.71971 13.4553 8.10971L11.5432 9.99971L13.4553 11.8897C13.8499 12.2797 13.8499 12.9097 13.4553 13.2997C13.0608 13.6897 12.4234 13.6897 12.0288 13.2997L10.1167 11.4097L8.20454 13.2997C7.80998 13.6897 7.1726 13.6897 6.77803 13.2997C6.38346 12.9097 6.38346 12.2797 6.77803 11.8897L8.69017 9.99971L6.77803 8.10971C6.38346 7.71971 6.38346 7.08971 6.77803 6.69971C6.96705 6.51246 7.22367 6.40723 7.49129 6.40723C7.7589 6.40723 8.01552 6.51246 8.20454 6.69971L10.1167 8.58971Z" fill="#F58E08"/>
</svg>
