<svg width="31" height="31" viewBox="0 0 31 31" fill="none" xmlns="http://www.w3.org/2000/svg">
<g clip-path="url(#clip0_2327:4449)">
<path d="M22.748 14.4961L12.4355 8.22656C11.5098 7.71094 10.3437 8.37305 10.3437 9.45703V21.6445C10.3437 22.7227 11.5039 23.3906 12.4355 22.875L22.748 16.957C23.709 16.4238 23.709 15.0352 22.748 14.4961ZM30.5 15.5508C30.5 7.52344 23.9961 1.01953 15.9687 1.01953C7.9414 1.01953 1.4375 7.52344 1.4375 15.5508C1.4375 23.5781 7.9414 30.082 15.9687 30.082C23.9961 30.082 30.5 23.5781 30.5 15.5508ZM4.25 15.5508C4.25 9.07617 9.49414 3.83203 15.9687 3.83203C22.4434 3.83203 27.6875 9.07617 27.6875 15.5508C27.6875 22.0254 22.4434 27.2695 15.9687 27.2695C9.49414 27.2695 4.25 22.0254 4.25 15.5508Z" fill="#FAFAFA"/>
</g>
<defs>
<clipPath id="clip0_2327:4449">
<rect width="30" height="30" fill="white" transform="translate(0.96875 0.550781)"/>
</clipPath>
</defs>
</svg>
