<svg width="512" height="361" viewBox="0 0 512 361" fill="none" xmlns="http://www.w3.org/2000/svg">
<path d="M261.489 360.235C276.889 360.235 289.372 347.745 289.372 332.338C289.372 316.931 276.889 304.441 261.489 304.441C246.09 304.441 233.606 316.931 233.606 332.338C233.606 347.745 246.09 360.235 261.489 360.235Z" fill="#F58E08"/>
<path d="M428.063 358.667C443.662 353.98 460.246 349.092 472.617 337.95C483.672 327.993 491.135 312.788 486.555 297.856C481.985 282.954 468.295 273.018 454.161 268.076C446.145 265.273 437.759 263.718 429.375 262.496C420.262 261.168 411.108 260.08 401.959 259.033C364.912 254.794 327.726 252.204 290.401 251.264C271.983 250.8 253.569 250.811 235.149 251.078C218.698 251.317 201.373 251.311 186.112 244.316C174.244 238.876 163.473 228.98 160.166 215.974C156.349 200.962 163.39 185.673 173.49 174.801C178.813 169.07 185.035 164.246 191.454 159.811C198.417 154.999 205.622 150.528 212.984 146.355C227.484 138.139 242.643 131.147 258.304 125.451C266.03 122.64 273.87 120.215 281.779 117.979C288.457 116.09 295.156 114.198 301.61 111.624C314.086 106.649 325.953 98.2218 329.126 84.4058C332.132 71.3115 327.063 57.0966 318.176 47.3691C307.894 36.1151 292.39 31.1817 277.527 30.3835C260.841 29.4874 244.539 33.6657 228.855 38.9684C212.127 44.6242 195.76 51.1274 178.679 55.7086C161.741 60.2469 144.475 63.458 127.038 65.3127C118.502 66.2221 109.708 67.249 101.121 66.5528C93.9246 65.9693 86.7649 63.8518 81.4612 58.7419C76.9135 54.3603 74.2044 48.3387 75.1358 41.984C75.305 40.8298 77.0574 41.3205 76.8893 42.4677C75.7556 50.2031 81.0111 57.3311 87.4873 60.9824C94.9722 65.2023 104.08 65.208 112.413 64.7254C130.482 63.6336 148.428 61.0379 166.066 56.9654C183.398 53.0049 200.11 47.3432 216.804 41.2952C232.658 35.5511 248.867 29.9449 265.805 28.7007C280.502 27.6212 295.962 29.7634 308.765 37.4477C320.018 44.2012 328.292 55.4638 330.929 68.388C333.505 81.0172 329.937 93.7288 320.382 102.542C310.488 111.667 296.923 115.568 284.282 119.161C268.248 123.718 252.557 129.045 237.37 135.962C221.976 142.953 207.212 151.257 193.242 160.783C179.758 170.002 166.45 181.603 162.185 198.05C160.199 205.712 160.565 213.838 163.889 221.074C166.845 227.509 171.713 232.921 177.383 237.096C190.913 247.056 207.965 249.102 224.308 249.305C242.663 249.534 261.019 248.914 279.38 249.215C316.799 249.83 354.142 252.109 391.408 256.052C400.746 257.041 410.072 258.134 419.386 259.331C427.764 260.408 436.17 261.478 444.407 263.391C459.053 266.792 473.305 273.332 482.408 285.756C486.448 291.141 488.951 297.523 489.649 304.22C490.287 311.209 488.577 318.21 485.418 324.427C478.428 338.188 465.334 346.941 451.43 352.691C443.982 355.771 436.257 358.104 428.546 360.421C427.423 360.759 426.943 359.003 428.063 358.667L428.063 358.667Z" fill="#F2F2F2"/>
<path d="M76.3103 56.7036C84.3447 56.7036 90.8579 50.1872 90.8579 42.1487C90.8579 34.1102 84.3447 27.5938 76.3103 27.5938C68.2759 27.5938 61.7627 34.1102 61.7627 42.1487C61.7627 50.1872 68.2759 56.7036 76.3103 56.7036Z" fill="#F2F2F2"/>
<path d="M177.234 84.2974C185.269 84.2974 191.782 77.7809 191.782 69.7424C191.782 61.704 185.269 55.1875 177.234 55.1875C169.2 55.1875 162.687 61.704 162.687 69.7424C162.687 77.7809 169.2 84.2974 177.234 84.2974Z" fill="#F2F2F2"/>
<path d="M262.701 29.1099C270.735 29.1099 277.249 22.5934 277.249 14.5549C277.249 6.51647 270.735 0 262.701 0C254.667 0 248.153 6.51647 248.153 14.5549C248.153 22.5934 254.667 29.1099 262.701 29.1099Z" fill="#F2F2F2"/>
<path d="M316.043 90.9693C324.077 90.9693 330.59 84.4528 330.59 76.4143C330.59 68.3758 324.077 61.8594 316.043 61.8594C308.008 61.8594 301.495 68.3758 301.495 76.4143C301.495 84.4528 308.008 90.9693 316.043 90.9693Z" fill="#F2F2F2"/>
<path d="M243.911 162.53C251.945 162.53 258.458 156.013 258.458 147.975C258.458 139.936 251.945 133.42 243.911 133.42C235.876 133.42 229.363 139.936 229.363 147.975C229.363 156.013 235.876 162.53 243.911 162.53Z" fill="#F2F2F2"/>
<path d="M152.382 197.098C160.416 197.098 166.929 190.582 166.929 182.543C166.929 174.505 160.416 167.988 152.382 167.988C144.347 167.988 137.834 174.505 137.834 182.543C137.834 190.582 144.347 197.098 152.382 197.098Z" fill="#F2F2F2"/>
<path d="M249.366 251.073C257.4 251.073 263.914 244.556 263.914 236.518C263.914 228.479 257.4 221.963 249.366 221.963C241.332 221.963 234.818 228.479 234.818 236.518C234.818 244.556 241.332 251.073 249.366 251.073Z" fill="#F2F2F2"/>
<path d="M353.624 281.395C361.658 281.395 368.171 274.879 368.171 266.84C368.171 258.802 361.658 252.285 353.624 252.285C345.589 252.285 339.076 258.802 339.076 266.84C339.076 274.879 345.589 281.395 353.624 281.395Z" fill="#F2F2F2"/>
<path d="M475.46 274.725C483.494 274.725 490.007 268.209 490.007 260.17C490.007 252.132 483.494 245.615 475.46 245.615C467.425 245.615 460.912 252.132 460.912 260.17C460.912 268.209 467.425 274.725 475.46 274.725Z" fill="#F2F2F2"/>
<path d="M258.502 41.2404C214.925 41.5484 179.244 76.9788 178.625 120.575C178.62 120.977 178.617 123.807 178.617 127.509C178.618 132.937 180.773 138.142 184.608 141.98C188.444 145.818 193.646 147.974 199.071 147.975H199.071C201.76 147.974 204.423 147.443 206.907 146.413C209.391 145.382 211.648 143.872 213.548 141.969C215.449 140.065 216.956 137.806 217.983 135.319C219.01 132.833 219.538 130.168 219.535 127.478C219.533 124.96 219.532 123.217 219.532 123.11C219.531 116.372 221.282 109.75 224.615 103.895C227.947 98.0403 232.746 93.1541 238.538 89.7173C244.33 86.2806 250.917 84.4116 257.65 84.2943C264.384 84.1769 271.032 85.8153 276.94 89.0482C282.848 92.2811 287.814 96.9971 291.348 102.732C294.882 108.468 296.863 115.025 297.096 121.758C297.33 128.492 295.807 135.17 292.678 141.137C289.548 147.103 284.921 152.151 279.25 155.785L279.257 155.794C279.257 155.794 250.145 174.545 241.269 200.269L241.277 200.271C239.716 205.54 238.925 211.008 238.929 216.504C238.929 218.763 239.062 238.531 239.318 254.576C239.408 260.112 241.67 265.391 245.615 269.274C249.56 273.156 254.872 275.332 260.406 275.33H260.406C263.187 275.33 265.94 274.78 268.508 273.711C271.075 272.643 273.406 271.077 275.366 269.103C277.326 267.13 278.877 264.788 279.929 262.213C280.981 259.638 281.514 256.88 281.497 254.098C281.408 239.404 281.359 222.294 281.359 221.053C281.359 205.258 296.589 189.52 309.099 179.257C323.505 167.439 333.871 151.334 338.035 133.167C338.956 129.427 339.464 125.597 339.55 121.745C339.55 111.124 337.449 100.608 333.369 90.8024C329.289 80.9969 323.309 72.0962 315.776 64.613C308.242 57.1298 299.303 51.2121 289.473 47.2007C279.644 43.1893 269.118 41.1637 258.502 41.2404Z" fill="#F58E08"/>
<path d="M511.278 360.999H0.721599C0.530546 360.998 0.347511 360.922 0.212611 360.787C0.0777112 360.651 0.00195312 360.468 0.00195312 360.277C0.00195312 360.086 0.0777112 359.902 0.212611 359.767C0.347511 359.632 0.530546 359.555 0.721599 359.555H511.278C511.47 359.555 511.653 359.631 511.788 359.766C511.924 359.902 512 360.085 512 360.277C512 360.468 511.924 360.652 511.788 360.787C511.653 360.923 511.47 360.999 511.278 360.999Z" fill="#3F3D56"/>
<path d="M380.934 165.559C390.978 165.559 399.119 157.414 399.119 147.366C399.119 137.317 390.978 129.172 380.934 129.172C370.891 129.172 362.75 137.317 362.75 147.366C362.75 157.414 370.891 165.559 380.934 165.559Z" fill="#2F2E41"/>
<path d="M347.332 353.036H339.901L336.365 324.357H347.334L347.332 353.036Z" fill="#A0616A"/>
<path d="M334.592 350.912H348.924V359.94H325.568C325.568 358.755 325.802 357.581 326.255 356.485C326.709 355.39 327.373 354.395 328.211 353.556C329.049 352.718 330.044 352.053 331.139 351.599C332.234 351.146 333.407 350.912 334.592 350.912Z" fill="#2F2E41"/>
<path d="M404.916 353.036H397.485L393.949 324.357H404.918L404.916 353.036Z" fill="#A0616A"/>
<path d="M392.176 350.912H406.508V359.94H383.152C383.152 358.755 383.386 357.581 383.839 356.485C384.293 355.39 384.957 354.395 385.795 353.556C386.633 352.718 387.628 352.053 388.723 351.599C389.818 351.146 390.991 350.912 392.176 350.912Z" fill="#2F2E41"/>
<path d="M378.171 165.667C386.393 165.667 393.059 158.999 393.059 150.772C393.059 142.546 386.393 135.877 378.171 135.877C369.949 135.877 363.283 142.546 363.283 150.772C363.283 158.999 369.949 165.667 378.171 165.667Z" fill="#A0616A"/>
<path d="M387.045 213.719L393.706 198.406C395.324 194.814 395.788 190.808 395.033 186.941C394.279 183.074 392.343 179.536 389.494 176.817C388.908 176.238 388.287 175.697 387.632 175.197C384.346 172.625 380.295 171.223 376.122 171.213C373.316 171.224 370.545 171.84 367.999 173.02C367.781 173.117 367.569 173.22 367.351 173.323C366.932 173.523 366.521 173.742 366.12 173.966C363.511 175.465 361.29 177.557 359.637 180.073C357.984 182.588 356.945 185.457 356.604 188.448L353.664 213.095C352.924 215.029 326.545 284.893 335.771 338.231C335.869 338.801 336.146 339.324 336.563 339.724C336.979 340.125 337.513 340.381 338.086 340.457L347.439 341.73C348.122 341.824 348.815 341.655 349.378 341.258C349.942 340.86 350.334 340.264 350.476 339.589L366.169 264.747C366.267 264.282 366.517 263.863 366.881 263.557C367.245 263.252 367.7 263.077 368.175 263.061C368.65 263.045 369.116 263.188 369.5 263.469C369.883 263.749 370.162 264.15 370.291 264.607L392.464 343.313C392.622 343.885 392.963 344.389 393.435 344.748C393.906 345.108 394.483 345.302 395.076 345.302C395.253 345.301 395.429 345.285 395.604 345.254L407.029 343.052C407.694 342.928 408.287 342.56 408.695 342.02C409.102 341.481 409.293 340.808 409.23 340.135C407.551 321.402 398.628 227.565 387.045 213.719Z" fill="#2F2E41"/>
<path d="M320.314 163.167C320.21 164.053 320.302 164.95 320.583 165.796C320.864 166.642 321.327 167.416 321.939 168.064C322.551 168.712 323.298 169.218 324.127 169.545C324.955 169.873 325.846 170.015 326.735 169.961L335.057 189.97L341.352 180.634L332.484 163.065C332.295 161.576 331.566 160.208 330.436 159.221C329.307 158.233 327.854 157.695 326.354 157.707C324.853 157.72 323.41 158.283 322.297 159.289C321.183 160.295 320.478 161.675 320.314 163.167L320.314 163.167Z" fill="#A0616A"/>
<path d="M377.345 233.866C378.23 233.76 379.081 233.461 379.838 232.991C380.595 232.521 381.239 231.89 381.726 231.143C382.213 230.396 382.531 229.552 382.656 228.669C382.782 227.787 382.712 226.887 382.453 226.034L399.962 213.276L389.421 209.326L374.41 222.048C373.007 222.579 371.847 223.607 371.151 224.936C370.454 226.265 370.269 227.804 370.631 229.261C370.993 230.718 371.876 231.991 373.114 232.84C374.351 233.688 375.857 234.053 377.345 233.866Z" fill="#A0616A"/>
<path d="M348.803 203.309C348.132 203.308 347.462 203.242 346.804 203.111C345.211 202.808 343.718 202.118 342.455 201.101C341.192 200.084 340.198 198.771 339.562 197.28L327.903 183.056C327.656 182.756 327.477 182.406 327.377 182.03C327.276 181.654 327.257 181.261 327.321 180.878C327.385 180.494 327.53 180.129 327.746 179.806C327.963 179.483 328.246 179.21 328.576 179.005L336.871 173.868C337.177 173.678 337.518 173.551 337.874 173.494C338.229 173.436 338.593 173.45 338.943 173.534C339.293 173.618 339.623 173.771 339.914 173.983C340.205 174.196 340.451 174.463 340.638 174.771L348.856 188.316L364.592 176.68C365.845 176.023 367.293 175.839 368.67 176.161C370.048 176.483 371.263 177.291 372.095 178.436C372.927 179.581 373.319 180.987 373.2 182.397C373.081 183.808 372.459 185.128 371.448 186.118L355.741 200.452C353.895 202.283 351.402 203.309 348.803 203.309Z" fill="#2F2E41"/>
<path d="M391.324 224.7C391.303 224.7 391.281 224.7 391.26 224.699C390.877 224.69 390.501 224.6 390.155 224.436C389.81 224.272 389.502 224.037 389.253 223.747L381.878 215.139C381.627 214.846 381.441 214.503 381.332 214.133C381.224 213.762 381.195 213.373 381.247 212.99C381.3 212.608 381.433 212.241 381.638 211.914C381.843 211.587 382.115 211.307 382.436 211.092L396.245 201.882L383.735 186.834C383.008 185.62 382.741 184.185 382.983 182.791C383.226 181.396 383.962 180.136 385.057 179.239C386.152 178.343 387.532 177.87 388.946 177.908C390.361 177.946 391.714 178.492 392.759 179.446L407.964 194.312C409.16 195.406 410.074 196.773 410.626 198.298C411.178 199.823 411.352 201.459 411.132 203.066C410.913 204.672 410.308 206.202 409.368 207.523C408.428 208.844 407.182 209.917 405.736 210.65L393.309 223.843C393.054 224.113 392.746 224.329 392.405 224.476C392.063 224.624 391.696 224.7 391.324 224.7Z" fill="#2F2E41"/>
<path d="M374.386 192.982C374.267 192.982 374.149 192.975 374.032 192.96C373.518 192.897 373.033 192.689 372.635 192.359C372.236 192.029 371.94 191.592 371.783 191.099L366.241 174.1C366.102 173.67 366.123 173.205 366.301 172.79C366.479 172.374 366.801 172.038 367.207 171.841L367.387 171.756C367.55 171.679 367.712 171.602 367.876 171.529C370.46 170.33 373.273 169.704 376.122 169.695C379.82 169.702 383.435 170.789 386.524 172.823C386.938 173.098 387.228 173.526 387.33 174.013C387.432 174.5 387.339 175.008 387.071 175.427L376.675 191.721C376.431 192.108 376.093 192.427 375.693 192.647C375.293 192.868 374.843 192.983 374.386 192.982Z" fill="#E6E6E6"/>
<path d="M395.271 139.245C398.557 139.245 401.221 136.579 401.221 133.291C401.221 130.003 398.557 127.338 395.271 127.338C391.984 127.338 389.32 130.003 389.32 133.291C389.32 136.579 391.984 139.245 395.271 139.245Z" fill="#2F2E41"/>
<path d="M374.872 126.746C370.692 126.746 366.684 128.407 363.728 131.364C360.773 134.321 359.112 138.332 359.112 142.514V149.185H367.313L371.235 142.514L372.412 149.185H397.3L390.632 142.514C390.632 138.332 388.972 134.321 386.016 131.364C383.061 128.407 379.052 126.746 374.872 126.746Z" fill="#2F2E41"/>
<path d="M398.329 129.213C398.987 127.155 400.349 125.394 402.177 124.241C404.004 123.088 406.179 122.616 408.319 122.909C412.111 123.543 415.109 126.593 416.896 129.999C418.682 133.405 419.507 137.217 420.708 140.871C421.909 144.526 423.612 148.2 426.644 150.565C429.676 152.93 434.328 153.572 437.306 151.139C436.966 153.675 435.837 156.039 434.08 157.899C432.323 159.758 430.026 161.017 427.515 161.499C425.003 161.98 422.404 161.659 420.084 160.582C417.764 159.504 415.842 157.724 414.589 155.494C413.018 152.697 412.612 149.419 412.147 146.245C411.681 143.071 411.075 139.786 409.199 137.184C407.324 134.582 403.812 132.883 400.832 134.068L398.329 129.213Z" fill="#2F2E41"/>
<path d="M204.846 138.294C199.421 138.294 194.219 136.137 190.383 132.299C186.547 128.461 184.392 123.256 184.392 117.829C184.391 114.127 184.394 111.297 184.4 110.895C184.572 98.2156 187.763 85.7605 193.709 74.5625C183.94 87.9427 178.569 104.03 178.338 120.598C178.332 121 178.33 123.831 178.33 127.532C178.33 132.96 180.485 138.165 184.321 142.003C188.157 145.841 193.359 147.997 198.784 147.998C203.242 147.996 207.577 146.539 211.131 143.847C214.686 141.155 217.265 137.376 218.477 133.085C214.731 136.445 209.876 138.3 204.846 138.294Z" fill="#3F3D56"/>
<path d="M259.888 84.3632C266.159 84.6628 272.264 86.4808 277.679 89.6611C283.093 92.8414 287.655 97.2888 290.973 102.622C294.291 107.955 296.266 114.013 296.728 120.278C297.19 126.543 296.126 132.826 293.626 138.588C297.242 134.34 299.899 129.361 301.417 123.992C302.935 118.623 303.279 112.989 302.423 107.475C301.568 101.962 299.535 96.6969 296.462 92.0406C293.389 87.3842 289.348 83.4456 284.616 80.4932C279.883 77.5408 274.57 75.6441 269.039 74.9323C263.507 74.2205 257.887 74.7105 252.562 76.3687C247.237 78.027 242.332 80.8145 238.181 84.5413C234.03 88.2682 230.732 92.8466 228.51 97.9646C232.35 93.4449 237.176 89.868 242.617 87.5098C248.057 85.1516 253.966 84.075 259.888 84.3632Z" fill="#3F3D56"/>
<path d="M266.182 265.651C260.648 265.652 255.335 263.477 251.39 259.594C247.445 255.711 245.183 250.432 245.094 244.897C244.837 228.852 244.704 209.084 244.704 206.825C244.701 201.329 245.491 195.861 247.052 190.591L247.045 190.589C247.966 187.944 249.079 185.37 250.375 182.887C246.398 188.19 243.232 194.056 240.983 200.293L240.991 200.294C239.43 205.564 238.639 211.032 238.643 216.528C238.643 218.787 238.775 238.555 239.032 254.6C239.122 260.136 241.383 265.415 245.328 269.297C249.274 273.18 254.586 275.355 260.12 275.354C264.683 275.353 269.122 273.872 272.773 271.134C276.423 268.395 279.088 264.546 280.367 260.163C276.489 263.701 271.429 265.658 266.182 265.651Z" fill="#3F3D56"/>
<path d="M76.703 353.311L84.1338 353.311L87.6695 324.633L76.7012 324.633L76.703 353.311Z" fill="#FFB8B8"/>
<path d="M98.4658 360.215L75.1104 360.216L75.11 351.188L89.4417 351.187C91.835 351.187 94.1302 352.138 95.8226 353.831C97.5149 355.524 98.4657 357.82 98.4658 360.215L98.4658 360.215Z" fill="#2F2E41"/>
<path d="M50.0331 353.311L57.4639 353.311L60.9995 324.633L50.0312 324.633L50.0331 353.311Z" fill="#FFB8B8"/>
<path d="M71.7949 360.215L48.4395 360.216L48.4391 351.188L62.7709 351.187C65.1641 351.187 67.4593 352.138 69.1517 353.831C70.844 355.524 71.7948 357.82 71.7949 360.215L71.7949 360.215Z" fill="#2F2E41"/>
<path d="M56.5258 344.493L49.2671 344.111C48.8928 344.091 48.5262 343.998 48.1884 343.835C47.8506 343.673 47.5484 343.445 47.2993 343.164C47.0502 342.884 46.8591 342.557 46.7371 342.203C46.6152 341.848 46.5648 341.473 46.5888 341.099L55.2645 244.996L95.2164 255.782L99.0656 254.732L87.0285 339.808C86.926 340.448 86.6083 341.034 86.128 341.469C85.6477 341.904 85.0335 342.162 84.3868 342.2L76.5621 342.565C76.1708 342.587 75.7793 342.527 75.4123 342.39C75.0453 342.252 74.7107 342.04 74.4298 341.767C74.1489 341.494 73.9277 341.165 73.7802 340.802C73.6327 340.439 73.5621 340.049 73.5729 339.657L74.9906 288.595C74.9973 288.359 74.9153 288.129 74.7608 287.951C74.6063 287.772 74.3906 287.658 74.1561 287.63C73.9216 287.603 73.6854 287.664 73.4939 287.803C73.3025 287.941 73.1697 288.146 73.1218 288.377L59.4489 342.238C59.3198 342.877 58.9732 343.451 58.4682 343.863C57.9631 344.275 57.3309 344.499 56.6793 344.497C56.6285 344.497 56.5773 344.496 56.5258 344.493Z" fill="#2F2E41"/>
<path d="M78.0371 166.363C86.2593 166.363 92.9248 159.694 92.9248 151.467C92.9248 143.241 86.2593 136.572 78.0371 136.572C69.8148 136.572 63.1494 143.241 63.1494 151.467C63.1494 159.694 69.8148 166.363 78.0371 166.363Z" fill="#FFB8B8"/>
<path d="M53.2497 195.23L54.8867 230.567L55.4784 243.423C55.502 243.982 55.6919 244.522 56.0239 244.973C56.3559 245.424 56.8148 245.766 57.3419 245.955L95.733 259.869C96.0432 259.984 96.3718 260.042 96.7026 260.039C97.0808 260.041 97.4554 259.967 97.8041 259.82C98.1529 259.674 98.4686 259.459 98.7325 259.188C98.9963 258.917 99.2029 258.596 99.3398 258.243C99.4768 257.89 99.5413 257.514 99.5295 257.135L97.9556 193.599C97.8522 188.386 95.9343 183.372 92.5324 179.423C89.1306 175.473 84.4581 172.834 79.3203 171.962C78.9489 171.905 78.5711 171.849 78.1933 171.798C75.0075 171.403 71.7737 171.71 68.7194 172.699C65.6652 173.689 62.8647 175.335 60.515 177.524C58.0819 179.763 56.1701 182.509 54.9146 185.569C53.6592 188.628 53.0909 191.927 53.2497 195.23L53.2497 195.23Z" fill="#CCCCCC"/>
<path d="M114.073 252.817C113.165 252.535 112.335 252.044 111.65 251.385C110.965 250.725 110.444 249.914 110.128 249.017C109.812 248.12 109.71 247.162 109.83 246.218C109.949 245.274 110.288 244.372 110.819 243.582L97.7998 226.262L109.034 225.566L119.675 242.121C120.814 243.002 121.607 244.256 121.914 245.664C122.221 247.071 122.023 248.542 121.355 249.818C120.687 251.094 119.59 252.094 118.259 252.642C116.927 253.191 115.445 253.252 114.073 252.817H114.073Z" fill="#FFB8B8"/>
<path d="M104.919 240.449C104.574 240.308 104.26 240.101 103.996 239.839C103.732 239.577 103.522 239.265 103.379 238.921L83.7648 192.167C83.3799 191.251 83.1792 190.269 83.1739 189.276C83.1687 188.283 83.3591 187.299 83.7343 186.379C84.1095 185.46 84.6621 184.623 85.3605 183.918C86.059 183.212 86.8895 182.651 87.8048 182.267C88.72 181.882 89.702 181.682 90.6946 181.678C91.6872 181.673 92.6709 181.865 93.5895 182.241C94.5082 182.617 95.3438 183.17 96.0485 183.87C96.7533 184.569 97.3134 185.4 97.6968 186.316L117.311 233.071C117.601 233.765 117.604 234.545 117.32 235.24C117.036 235.936 116.487 236.49 115.795 236.782L107.087 240.438C106.745 240.583 106.376 240.659 106.004 240.661C105.632 240.663 105.263 240.59 104.919 240.449L104.919 240.449Z" fill="#CCCCCC"/>
<path d="M73.2504 238.798L92.0891 202.709C92.4524 202.015 93.076 201.493 93.8232 201.259C94.5703 201.024 95.38 201.096 96.0745 201.458L123.419 215.746C124.113 216.109 124.634 216.733 124.868 217.481C125.103 218.228 125.031 219.038 124.67 219.733L105.831 255.823C105.468 256.517 104.844 257.038 104.097 257.273C103.35 257.507 102.54 257.436 101.845 257.074L74.5012 242.786C73.8075 242.422 73.2862 241.798 73.0517 241.051C72.8172 240.303 72.8887 239.493 73.2504 238.798Z" fill="#3F3D56"/>
<path d="M85.885 222.31C85.5501 221.42 85.0118 220.62 84.3132 219.975C83.6145 219.33 82.7748 218.857 81.8611 218.594C80.9474 218.331 79.9849 218.286 79.0505 218.461C78.1161 218.637 77.2356 219.029 76.4793 219.605L58.4291 207.625L58.3984 218.887L75.5439 228.537C76.4904 229.622 77.7887 230.34 79.2111 230.564C80.6335 230.787 82.0893 230.503 83.323 229.76C84.5567 229.017 85.4896 227.863 85.9581 226.501C86.4265 225.139 86.4007 223.655 85.885 222.31Z" fill="#FFB8B8"/>
<path d="M63.0624 224.844L48.3107 213.153C46.7148 212.617 45.2729 211.701 44.1085 210.485C42.9442 209.268 42.0923 207.787 41.6259 206.169C41.1596 204.551 41.0927 202.843 41.4311 201.193C41.7694 199.543 42.5029 198 43.5685 196.697L56.9627 179.134C57.8935 177.996 59.2025 177.231 60.6505 176.979C62.0985 176.727 63.5887 177.005 64.8488 177.762C66.1088 178.519 67.0545 179.704 67.513 181.101C67.9715 182.498 67.9122 184.014 67.3458 185.371L56.748 202.716L72.3224 210.106C72.6846 210.278 73.0062 210.525 73.2659 210.83C73.5257 211.136 73.7177 211.493 73.8293 211.878C73.941 212.263 73.9696 212.668 73.9134 213.065C73.8572 213.462 73.7174 213.842 73.5033 214.181L67.2164 224.136C67.0039 224.472 66.7232 224.759 66.3926 224.98C66.0619 225.2 65.6886 225.349 65.2969 225.416C65.2814 225.419 65.2657 225.421 65.2501 225.424C64.8652 225.482 64.4725 225.46 64.0962 225.361C63.7199 225.261 63.3681 225.085 63.0624 224.844Z" fill="#CCCCCC"/>
<path d="M66.7881 161.441C66.7242 161.254 66.704 161.055 66.7289 160.859C66.7538 160.663 66.8232 160.475 66.9318 160.31C67.0405 160.145 67.1854 160.007 67.3555 159.907C67.5256 159.807 67.7165 159.747 67.9134 159.732C68.3166 159.754 68.7112 159.857 69.0733 160.036C69.4355 160.215 69.7576 160.465 70.0204 160.772C70.5592 161.393 71.1864 161.932 71.882 162.371C72.6022 162.734 73.5789 162.682 73.9895 161.99C74.375 161.34 74.1108 160.469 73.8774 159.714C73.2835 157.792 72.9512 155.799 72.8895 153.789C72.8222 151.545 73.1387 149.203 74.3804 147.452C75.983 145.193 78.8486 144.336 81.5605 144.398C84.2725 144.46 86.9404 145.298 89.6266 145.827C90.554 146.01 91.6441 146.103 92.2643 145.384C92.9239 144.62 92.6816 143.382 92.4011 142.35C91.6732 139.671 90.9009 136.901 89.2096 134.737C87.3808 132.489 84.7686 131.018 81.8989 130.619C79.1438 130.278 76.3471 130.596 73.7387 131.546C69.4889 132.886 65.7494 135.493 63.0202 139.017C60.2069 142.765 58.9913 147.475 59.6391 152.117C60.272 156.16 62.4133 159.812 65.6314 162.338L66.7881 161.441Z" fill="#2F2E41"/>
<path d="M255.346 353.431C251.385 351.705 247.879 349.082 245.105 345.768C242.331 342.454 240.365 338.541 239.361 334.336C238.358 330.132 238.345 325.752 239.323 321.542C240.302 317.332 242.245 313.406 244.999 310.076C241.805 312.409 239.145 315.394 237.193 318.835C235.241 322.275 234.043 326.091 233.678 330.03C233.313 333.969 233.789 337.941 235.076 341.681C236.362 345.422 238.429 348.846 241.139 351.726C243.849 354.607 247.141 356.877 250.795 358.388C254.449 359.898 258.383 360.613 262.335 360.486C266.286 360.359 270.166 359.393 273.716 357.651C277.266 355.909 280.405 353.432 282.925 350.384C278.995 353.258 274.38 355.051 269.541 355.586C264.703 356.121 259.808 355.378 255.346 353.431Z" fill="#3F3D56"/>
</svg>
