<svg width="13" height="13" viewBox="0 0 13 13" fill="none" xmlns="http://www.w3.org/2000/svg">
<path fill-rule="evenodd" clip-rule="evenodd" d="M6.10094 0.124474C6.33566 -0.0414912 6.66434 -0.0414912 6.89906 0.124474L12.7491 4.26084C12.9074 4.37279 13 4.54492 13 4.72727V11.2273C13 11.6974 12.7946 12.1483 12.4289 12.4808C12.0632 12.8132 11.5672 13 11.05 13H1.95C1.43283 13 0.936837 12.8132 0.571142 12.4808C0.205446 12.1483 0 11.6974 0 11.2273V4.72727C0 4.54492 0.0926074 4.37279 0.250939 4.26084L6.10094 0.124474ZM1.3 5.01628V11.2273C1.3 11.384 1.36848 11.5343 1.49038 11.6451C1.61228 11.7559 1.77761 11.8182 1.95 11.8182H11.05C11.2224 11.8182 11.3877 11.7559 11.5096 11.6451C11.6315 11.5343 11.7 11.384 11.7 11.2273V5.01628L6.5 1.33951L1.3 5.01628Z" fill="#282C35"/>
<path fill-rule="evenodd" clip-rule="evenodd" d="M3.9 6.5C3.9 6.17365 4.19101 5.90909 4.55 5.90909H8.45C8.80899 5.90909 9.1 6.17365 9.1 6.5V12.4091C9.1 12.7354 8.80899 13 8.45 13C8.09101 13 7.8 12.7354 7.8 12.4091V7.09091H5.2V12.4091C5.2 12.7354 4.90899 13 4.55 13C4.19101 13 3.9 12.7354 3.9 12.4091V6.5Z" fill="#282C35"/>
</svg>
