<svg width="30" height="30" viewBox="0 0 30 30" fill="none" xmlns="http://www.w3.org/2000/svg">
<path fill-rule="evenodd" clip-rule="evenodd" d="M0 15C0 6.705 6.705 0 15 0C23.295 0 30 6.705 30 15C30 23.295 23.295 30 15 30C6.705 30 0 23.295 0 15ZM14.9994 12.885L17.8344 10.05C18.4044 9.47998 19.3644 9.47998 19.9494 10.05C20.5344 10.635 20.5344 11.58 19.9494 12.165L17.1144 15L19.9494 17.835C20.5344 18.42 20.5344 19.365 19.9494 19.95C19.3644 20.535 18.4194 20.535 17.8344 19.95L14.9994 17.115L12.1644 19.95C11.5794 20.535 10.6344 20.535 10.0493 19.95C9.46434 19.365 9.46434 18.42 10.0493 17.835L12.8844 15L10.0493 12.165C9.46434 11.58 9.46434 10.635 10.0493 10.05C10.3296 9.7691 10.7101 9.61125 11.1069 9.61125C11.5036 9.61125 11.8841 9.7691 12.1644 10.05L14.9994 12.885Z" fill="#F58E08"/>
</svg>
