<svg width="518" height="364" viewBox="0 0 518 364" fill="none" xmlns="http://www.w3.org/2000/svg">
<path opacity="0.1" d="M6 171C14.16 203.789 31.4197 232.132 58.695 245.872C115.397 274.426 243.275 259.7 338.716 242.795C388.085 234.052 431.478 209.923 463 175.967L6 171Z" fill="#F9A826"/>
<path opacity="0.1" d="M1.12955 102C-0.886445 121.063 -0.201149 140.328 3.16365 159.185L463.982 175C476.667 161.357 487.444 145.938 496 129.191L1.12955 102ZM183.389 142.794H174.315C176.811 142.794 178.854 144.713 178.854 147.052C178.854 149.391 176.811 151.305 174.315 151.305H121.829C119.338 151.305 117.295 149.391 117.295 147.052C117.295 144.713 119.338 142.794 121.829 142.794H130.907C128.412 142.794 126.373 140.88 126.373 138.541C126.373 136.203 128.412 134.284 130.907 134.284H124.423C121.928 134.284 119.884 132.37 119.884 130.031C119.884 127.692 121.928 125.773 124.423 125.773H176.91C179.405 125.773 181.444 127.687 181.444 130.031C181.444 132.375 179.405 134.284 176.91 134.284H183.389C185.884 134.284 187.923 136.198 187.923 138.541C187.923 140.885 185.884 142.794 183.389 142.794Z" fill="#F9A826"/>
<path opacity="0.1" d="M516.766 40L13.0636 51.6233C6.93517 66.5753 2.87154 83.481 1 101H507.941C511.24 90.7503 513.688 80.2204 515.257 69.5281C516.771 59.2353 517.374 49.2788 516.766 40ZM103.27 78.1095H94.1855C96.684 78.1095 98.73 80.0534 98.73 82.4225C98.73 84.7917 96.684 86.7355 94.1855 86.7355H41.6364C39.1426 86.7355 37.0966 84.7917 37.0966 82.4225C37.0966 80.0534 39.1426 78.1095 41.6364 78.1095H50.7253C48.2268 78.1095 46.1856 76.1707 46.1856 73.8015C46.1856 71.4323 48.2268 69.4885 50.7253 69.4885H44.2339C41.7354 69.4885 39.6894 67.5497 39.6894 65.1805C39.6894 62.8113 41.7354 60.8675 44.2339 60.8675H96.783C99.2816 60.8675 101.323 62.8064 101.323 65.1805C101.323 67.5546 99.2816 69.4885 96.783 69.4885H103.27C105.768 69.4885 107.81 71.4323 107.81 73.8015C107.81 76.1707 105.768 78.1095 103.27 78.1095Z" fill="#F9A826"/>
<path opacity="0.1" d="M256.5 364C372.756 364 467 355.046 467 344C467 332.954 372.756 324 256.5 324C140.244 324 46 332.954 46 344C46 355.046 140.244 364 256.5 364Z" fill="#F9A826"/>
<path d="M471 176.08C470.998 176.046 470.998 176.012 471 175.977C471 175.923 471 175.874 471 175.825C470.906 175.261 470.703 174.724 470.403 174.246C469.327 172.444 467.828 170.961 466.049 169.937C462.947 168.157 458.682 167.394 457.441 163.995C457.06 162.943 457.051 161.797 456.863 160.695C456.534 158.978 455.779 157.383 454.674 156.068C453.569 154.753 452.153 153.765 450.568 153.204C449.092 152.688 447.498 152.545 446.064 151.906C442.858 150.479 441.165 146.962 439.731 143.711C437.876 139.514 436.02 135.315 434.165 131.115C432.754 131.857 430.93 131.508 429.609 130.579C428.336 129.587 427.323 128.276 426.662 126.767C424.748 122.881 423.925 118.479 421.678 114.78C419.431 111.081 414.941 108.16 410.973 109.768C410.198 110.173 409.397 110.52 408.575 110.806C405.176 111.637 401.415 107.574 398.505 109.547C398.022 109.871 397.628 110.322 397.363 110.855C397.36 110.822 397.36 110.789 397.363 110.757C396.984 111.557 396.772 112.432 396.742 113.324V113.324C396.742 113.506 396.742 113.683 396.742 113.855C396.742 113.885 396.742 113.914 396.742 113.944C396.742 114.652 396.784 115.37 396.794 116.088C396.804 116.691 396.76 117.294 396.662 117.889V117.839C396.607 118.174 396.525 118.503 396.418 118.823C395.661 120.948 393.564 122.34 392.581 124.337V124.238C392.471 124.456 392.375 124.681 392.295 124.912C392.12 125.436 392.029 125.986 392.027 126.54C391.942 130.293 395.745 133.825 396.187 137.853C396.502 140.706 397.128 141.621 399.445 143.234L399.953 143.588C399.751 143.588 399.544 143.618 399.314 143.623C399.224 143.624 399.134 143.634 399.046 143.652C398.637 143.534 398.208 143.513 397.79 143.59C397.372 143.666 396.976 143.839 396.629 144.095C394.852 145.57 390.649 144.434 388.783 144.095C386.916 143.755 380.522 144.67 379.629 148.379C378.736 152.088 377.203 159.741 377.203 159.741C377.203 159.741 377.203 164.596 376.634 165.501C376.612 165.564 376.612 165.634 376.634 165.697C376.634 167.06 376.681 175.249 375.421 177.359C375.111 177.851 375.135 178.938 375.365 180.276C374.039 182.061 372.793 184.147 373.014 185.514C373.419 188.313 378.844 197.112 386.62 192.4C386.62 192.4 391.044 183.935 385.478 179.435L385.717 178.451C387.4 180.615 388.646 182.17 388.646 182.17C388.646 182.17 388.712 182.352 388.816 182.662H388.646C389.373 184.73 389.813 186.896 389.953 189.095C389.932 189.901 389.793 190.699 389.54 191.461H389.685C389.643 191.628 389.596 191.795 389.54 191.953C389.266 192.783 388.756 193.506 388.077 194.023C384.189 196.906 379.737 217.49 379.737 217.49C379.737 217.49 370.918 250.764 369.155 252.658C367.697 254.212 376.855 258.59 383.729 258.068C384.688 258.009 385.636 257.82 386.55 257.508C386.592 258 386.639 258.492 386.686 258.939C386.832 260.415 386.982 261.782 387.076 262.21C387.321 263.282 387.805 274.231 387.805 274.231C387.805 274.231 386.813 281.343 387.053 286.291C387.053 286.631 387.095 286.955 387.123 287.275L386.267 287.413C384.97 290.462 390.315 315.906 391.044 318.046C391.527 319.732 391.799 321.476 391.853 323.235C391.853 323.235 391.383 325.045 391.773 326.034C392.016 326.638 392.174 327.276 392.243 327.927C392.243 327.927 391.923 329.57 392.407 330.642C392.892 331.715 392.327 333.594 392.327 333.594C392.327 333.594 392.168 341.006 390.71 345.039C390.313 346.124 390.198 347.3 390.375 348.447C390.553 349.594 391.017 350.672 391.721 351.571C391.822 351.711 391.932 351.844 392.05 351.969C392.05 351.969 400.089 352.038 401.505 351.969H401.688C402.257 351.886 403.714 345.216 402.417 342.004C401.119 338.792 402.257 334.838 402.257 334.838V328.995C402.257 328.995 403.714 327.588 402.257 324.568C400.799 321.548 401.039 320.633 401.039 320.633C401.039 320.633 402.661 315.773 400.959 314.209C399.257 312.645 401.284 306.713 401.284 306.713L401.857 286.941C401.557 286.838 401.251 286.756 400.94 286.695C400.907 286.37 400.875 286.036 400.842 285.681C400.508 282.101 400.221 277.231 400.964 275.844C401.707 274.457 402.064 262.348 402.182 253.932L409.591 254.227C409.746 258.162 409.911 261.753 410.014 262.21C410.258 263.282 410.747 274.231 410.747 274.231C410.747 274.231 409.751 281.343 409.99 286.291C409.99 286.631 410.033 286.955 410.061 287.275L409.205 287.413C407.908 290.462 413.253 315.906 413.982 318.046C414.465 319.732 414.738 321.476 414.795 323.235C414.795 323.235 414.325 325.045 414.711 326.034C414.954 326.638 415.112 327.276 415.181 327.927C415.181 327.927 414.861 329.57 415.345 330.642C415.83 331.715 415.265 333.594 415.265 333.594C415.265 333.594 415.106 341.006 413.648 345.039C413.258 346.126 413.148 347.302 413.332 348.447C413.515 349.592 413.984 350.667 414.692 351.561C414.793 351.701 414.903 351.834 415.021 351.96C415.021 351.96 423.06 352.028 424.475 351.96H424.659C425.228 351.876 426.685 345.206 425.387 341.994C424.09 338.783 425.228 334.828 425.228 334.828V328.995C425.228 328.995 426.685 327.588 425.228 324.568C423.77 321.548 424.01 320.633 424.01 320.633C424.01 320.633 425.632 315.773 423.93 314.209C422.228 312.645 424.254 306.713 424.254 306.713L424.837 286.941C424.53 286.837 424.215 286.755 423.897 286.695C423.864 286.37 423.831 286.036 423.798 285.681C423.465 282.101 423.178 277.231 423.921 275.844C424.518 274.708 424.861 267.389 425.016 260.243C425.016 259.751 425.016 259.259 425.054 258.767C428.458 258.619 431.848 258.221 435.199 257.577C435.199 257.577 431.236 242.914 432.449 240.529C432.971 239.501 432.219 234.026 431.189 228.129C432.625 229.345 434.41 230.021 436.257 230.047C438.029 233.613 443.422 241.817 446.459 243.082C450.023 244.557 447.347 231.474 445.65 229.58C444.847 228.546 444.171 227.411 443.638 226.201C443.685 226.142 443.737 226.093 443.784 226.039C443.831 225.985 443.868 212.119 443.055 212.37C442.242 212.621 441.273 210.309 441.273 210.309L438.763 187.256L437.71 177.605C438.589 178.284 439.633 178.717 440.531 179.391C442.975 181.265 443.774 184.555 444.846 187.467C445.73 189.862 446.971 192.238 449.007 193.743C451.043 195.248 454.028 195.647 456.059 194.122C457.94 192.691 458.494 190.108 458.908 187.752C462.321 189.007 466.463 185.652 466.021 181.988C465.913 181.083 465.593 180.094 466.045 179.302C466.947 177.738 469.806 178.648 470.746 177.104C470.904 176.836 470.986 176.527 470.981 176.213C470.995 176.144 471 176.115 471 176.08ZM425.345 188.761C425.293 189.641 426.45 196.714 427.39 202.311C426.619 198.824 425.072 195.101 422.026 192.548C422.026 192.548 422.026 192.371 421.988 192.056H422.026C422.026 192.056 421.899 190.649 421.88 188.647C421.886 186.873 422.011 185.101 422.256 183.345V183.301H422.195C422.195 183.153 422.233 183.001 422.256 182.853C422.443 181.372 422.828 179.925 423.399 178.555C423.651 178.018 423.942 177.501 424.269 177.01C424.772 181.766 425.392 187.87 425.345 188.761V188.761ZM427.874 205.149C428.288 207.564 428.584 209.261 428.584 209.261L431.081 227.195V227.278C429.736 219.708 428.02 211.73 428.02 211.73C428.195 209.538 428.146 207.331 427.874 205.149V205.149Z" fill="url(#paint0_linear)"/>
<path d="M397.057 138.862C396.583 134.299 391.843 130.363 393.265 126.021C394.038 123.656 396.455 122.209 397.27 119.858C397.811 118.307 397.569 116.603 397.574 114.953C397.578 113.304 397.948 111.462 399.266 110.548C402.11 108.572 405.769 112.637 409.087 111.807C409.889 111.522 410.67 111.175 411.423 110.77C415.296 109.165 419.676 112.089 421.851 115.783C424.027 119.477 424.842 123.883 426.709 127.765C427.347 129.264 428.335 130.573 429.582 131.573C430.871 132.501 432.634 132.852 434.028 132.111L439.455 144.705C440.877 147.95 442.507 151.466 445.617 152.894C447.01 153.531 448.565 153.674 450.006 154.193C451.572 154.768 452.965 155.762 454.047 157.075C455.128 158.389 455.86 159.975 456.168 161.675C456.352 162.781 456.357 163.927 456.732 164.979C457.94 168.377 462.097 169.138 465.126 170.906C466.878 171.935 468.347 173.416 469.392 175.207C469.866 176.062 470.273 177.183 469.766 178.023C468.851 179.563 466.069 178.655 465.188 180.22C464.742 181.011 465.055 181.998 465.188 182.907C465.619 186.567 461.576 189.92 458.248 188.666C457.846 191.022 457.3 193.605 455.471 195.032C453.504 196.563 450.589 196.158 448.603 194.657C446.617 193.155 445.413 190.78 444.55 188.384C443.503 185.47 442.721 182.181 440.337 180.309C439.474 179.638 438.441 179.203 437.597 178.526C435.701 177.015 434.753 174.521 434.075 172.106C433.198 169.093 432.502 165.996 431.231 163.152C429.961 160.307 427.951 157.66 425.197 156.361C422.614 155.151 419.638 155.23 416.969 154.247C412.376 152.558 408.978 148.533 404.408 146.636C402.948 145.996 401.564 145.181 400.285 144.206C397.986 142.631 397.36 141.717 397.057 138.862Z" fill="#3F3D56"/>
<g opacity="0.1">
<path opacity="0.1" d="M397.788 119.159C397.885 118.967 397.97 118.768 398.043 118.564C398.575 117.019 398.339 115.322 398.344 113.678C398.344 113.13 398.393 112.583 398.49 112.045C398.055 113.017 397.844 114.082 397.873 115.154C397.868 116.478 398.019 117.865 397.788 119.159Z" fill="black"/>
<path opacity="0.1" d="M455.841 193.467C453.886 194.987 450.99 194.589 449.017 193.088C447.044 191.587 445.844 189.231 445.01 186.834C443.969 183.932 443.197 180.655 440.824 178.79C439.971 178.121 438.94 177.683 438.107 177.014C436.223 175.508 435.281 173.024 434.603 170.643C433.732 167.641 433.045 164.556 431.778 161.722C430.511 158.888 428.524 156.251 425.783 154.957C423.222 153.752 420.264 153.831 417.613 152.852C413.046 151.169 409.669 147.159 405.135 145.27C403.683 144.63 402.306 143.818 401.033 142.849C398.801 141.24 398.208 140.33 397.878 137.491C397.407 133.23 393.263 129.516 393.908 125.501C393.803 125.718 393.711 125.941 393.631 126.17C392.218 130.5 396.927 134.421 397.398 138.962C397.704 141.801 398.34 142.711 400.553 144.32C401.826 145.289 403.202 146.102 404.654 146.741C409.189 148.63 412.565 152.645 417.133 154.323C419.784 155.307 422.741 155.223 425.303 156.428C428.044 157.722 430.012 160.364 431.298 163.194C432.583 166.023 433.271 169.098 434.123 172.114C434.815 174.495 435.724 176.98 437.626 178.485C438.479 179.154 439.51 179.592 440.344 180.261C442.698 182.126 443.489 185.403 444.53 188.306C445.387 190.692 446.588 193.053 448.561 194.549C450.534 196.045 453.43 196.448 455.384 194.928C456.632 193.944 457.268 192.443 457.687 190.835C457.314 191.872 456.675 192.783 455.841 193.467V193.467Z" fill="black"/>
<path opacity="0.1" d="M465.516 178.716C465.336 179.069 465.258 179.469 465.29 179.867C466.355 178.77 468.756 179.415 469.594 178.003C469.789 177.654 469.865 177.246 469.811 176.846C468.719 177.929 466.317 177.284 465.516 178.716Z" fill="black"/>
<path opacity="0.1" d="M458.602 187.123C458.512 187.615 458.423 188.142 458.31 188.653C461.192 189.593 464.521 187.177 464.992 184.127C463.848 186.474 461.022 188.043 458.602 187.123Z" fill="black"/>
</g>
<path d="M403.554 141.831C403.554 141.831 405.123 145.145 400.493 145.214C395.864 145.283 403.474 166.74 403.474 166.74L411.169 177L420.743 171.574L421.294 156.609L422 147.567C422 147.567 413.053 144.524 414.701 140.499C416.349 136.474 403.554 141.831 403.554 141.831Z" fill="#FBBEBE"/>
<path d="M431 228.815C431 228.815 437 234.86 444 226.84L438.625 221H431.825L431 228.815Z" fill="#575A89"/>
<path opacity="0.1" d="M431.825 221L431 228.815C431 228.815 437 234.86 444 226.84" fill="black"/>
<path d="M441.43 222C441.43 222 443.76 228.325 445.448 230.238C447.137 232.15 449.79 245.38 446.254 243.882C442.718 242.384 435.965 231.236 435.56 229.324C435.154 227.412 435 222 435 222H441.43Z" fill="#FBBEBE"/>
<path d="M392 253.75L422 255L418.52 241.33L403.409 241L392 253.75Z" fill="#575A89"/>
<path opacity="0.1" d="M396 253.75L427 255L423.405 241.33L407.787 241L396 253.75Z" fill="black"/>
<path d="M402.705 276.211C401.964 277.623 402.25 282.509 402.584 286.122C402.798 288.422 403.03 290.191 403.03 290.191C403.03 290.191 391.312 293.908 389.537 290.686C389.086 289.869 388.863 288.436 388.785 286.756C388.543 281.801 389.537 274.659 389.537 274.659C389.537 274.659 389.052 263.677 388.81 262.602C388.713 262.171 388.562 260.803 388.417 259.321C388.204 257.121 388 254.673 388 254.673L404 246C404 246 404 247.626 403.971 250.128C403.884 257.988 403.627 274.476 402.705 276.211Z" fill="#FBBEBE"/>
<path opacity="0.1" d="M403 290.239C403 290.239 390.66 293.857 388.791 290.721C388.317 289.925 388.082 288.53 388 286.895C390.553 286.528 398.323 285.515 402.53 286.277C402.755 288.516 403 290.239 403 290.239Z" fill="black"/>
<path d="M402.745 351.976H402.559C401.138 352.03 393.062 351.976 393.062 351.976C392.944 351.852 392.833 351.721 392.73 351.585C392.017 350.689 391.545 349.624 391.361 348.493C391.177 347.362 391.287 346.202 391.681 345.125C393.145 341.128 393.306 333.788 393.306 333.788C393.306 333.788 393.878 331.914 393.389 330.852C392.901 329.79 393.223 328.16 393.223 328.16C393.148 327.516 392.984 326.885 392.735 326.286C392.33 325.308 392.818 323.512 392.818 323.512C392.762 321.772 392.488 320.045 392.003 318.374C391.27 316.255 385.899 291.054 387.203 288.035C387.203 288.035 398.594 286.078 402.911 287.546L402.339 307.119C402.339 307.119 400.303 312.991 402.012 314.542C403.721 316.093 402.095 320.904 402.095 320.904C402.095 320.904 401.851 321.799 403.316 324.818C404.781 327.837 403.316 329.222 403.316 329.222V335.011C403.316 335.011 402.178 338.926 403.477 342.106C404.776 345.287 403.316 351.873 402.745 351.976Z" fill="#3F3D56"/>
<path d="M423.786 276.382C423.091 277.779 423.359 282.612 423.673 286.186C423.873 288.46 424.091 290.21 424.091 290.21C424.091 290.21 413.105 293.887 411.441 290.701C411.018 289.892 410.809 288.475 410.736 286.813C410.509 281.912 411.441 274.848 411.441 274.848C411.441 274.848 410.986 263.985 410.759 262.921C410.636 262.348 410.423 256.877 410.255 251.971C410.114 247.784 410 244 410 244L425 246.5C425 246.5 425 253.613 424.814 260.921C424.65 268.01 424.345 275.274 423.786 276.382Z" fill="#FBBEBE"/>
<path opacity="0.1" d="M424 290.239C424 290.239 412.483 293.857 410.739 290.721C410.295 289.925 410.076 288.53 410 286.895C412.383 286.528 419.635 285.515 423.562 286.277C423.771 288.516 424 290.239 424 290.239Z" fill="black"/>
<path d="M424.83 351.976H424.655C423.318 352.03 415.718 351.976 415.718 351.976C415.607 351.852 415.503 351.722 415.406 351.585C414.734 350.689 414.291 349.625 414.118 348.494C413.945 347.363 414.048 346.204 414.418 345.128C415.797 341.111 415.934 333.774 415.934 333.774C415.934 333.774 416.472 331.9 416.013 330.838C415.553 329.777 415.856 328.148 415.856 328.148C415.786 327.504 415.631 326.873 415.397 326.274C415.016 325.296 415.475 323.501 415.475 323.501C415.422 321.761 415.165 320.035 414.708 318.364C414.018 316.246 408.964 291.053 410.191 288.035C410.191 288.035 420.91 286.078 424.972 287.546L424.435 307.113C424.435 307.113 422.519 312.983 424.127 314.534C425.735 316.085 424.205 320.893 424.205 320.893C424.205 320.893 423.975 321.789 425.353 324.807C426.732 327.825 425.353 329.209 425.353 329.209V334.997C425.353 334.997 424.283 338.91 425.505 342.09C426.727 345.269 425.367 351.873 424.83 351.976Z" fill="#3F3D56"/>
<path opacity="0.1" d="M409.5 146C415.299 146 420 140.627 420 134C420 127.373 415.299 122 409.5 122C403.701 122 399 127.373 399 134C399 140.627 403.701 146 409.5 146Z" fill="black"/>
<path d="M409.5 145C415.299 145 420 139.627 420 133C420 126.373 415.299 121 409.5 121C403.701 121 399 126.373 399 133C399 139.627 403.701 145 409.5 145Z" fill="#FBBEBE"/>
<path opacity="0.1" d="M388 255.132L404 246C404 246 404 247.712 403.971 250.347C401.634 251.849 398.109 254.109 394.72 256.243C392.878 257.407 391.079 258.534 389.537 259.478C389.179 259.687 388.804 259.862 388.417 260C388.204 257.709 388 255.132 388 255.132Z" fill="black"/>
<path opacity="0.1" d="M425 246.509C425 246.509 425 253.647 424.813 260.983H424.759C423.637 261.026 422.513 260.988 421.396 260.87C419.434 260.643 417.864 260.082 417.3 258.971C416.157 256.806 412.958 254.051 410.255 251.999C410.114 247.798 410 244 410 244L425 246.509Z" fill="black"/>
<path d="M422.467 183.715C422.074 186.906 421.999 190.13 422.242 193.337C429.358 199.464 428.029 212.371 428.029 212.371C428.029 212.371 433.507 238.518 432.333 240.885C431.16 243.253 434.99 257.797 434.99 257.797C431.726 258.443 428.42 258.839 425.1 258.983C423.943 259.026 422.784 258.988 421.631 258.87C419.608 258.645 417.989 258.086 417.407 256.978C415.22 252.978 405.752 247.012 405.752 247.012C405.752 247.012 399.754 250.767 394.168 254.184C392.384 255.277 390.643 256.336 389.15 257.223C387.939 257.894 386.6 258.277 385.231 258.346C378.589 258.86 369.741 254.517 371.149 252.978C372.872 251.096 381.401 218.092 381.401 218.092C381.401 218.092 385.7 197.665 389.455 194.808C390.114 194.288 390.605 193.572 390.863 192.754C392.15 189.024 390 183.043 390 183.043C390 183.043 377.876 167.441 378.42 166.539C378.965 165.637 378.969 160.823 378.969 160.823C378.969 160.823 380.457 153.225 381.316 149.549C382.175 145.872 388.357 144.971 390.155 145.299C391.952 145.627 396.017 146.77 397.735 145.299C399.453 143.828 402.354 145.872 402.354 145.872L409.479 147.921L415.886 144C415.886 144 422.307 144.343 422.857 145.24C423.406 146.137 431.855 147.858 431.855 147.858C436.154 150.877 435.999 165.259 435.999 165.259C435.999 165.259 425.673 174.651 423.561 179.475C423.014 180.83 422.646 182.256 422.467 183.715V183.715Z" fill="#575A89"/>
<path d="M434.122 163L436.53 164.987L439.021 188.087L441.507 211.271C441.507 211.271 442.47 213.59 443.275 213.342C444.08 213.094 443.998 227.082 443.998 227.082C443.998 227.082 434.777 221.236 431.472 229L428.899 210.277C428.899 210.277 425.604 191.152 425.686 189.661C425.768 188.171 424 172.026 424 172.026L434.122 163Z" fill="#575A89"/>
<path d="M380.15 164L378.41 166.292C378.41 166.292 378.571 176.137 377.225 178.515C375.878 180.894 380.941 194.813 382.837 193.963C384.734 193.112 389 171.385 389 171.13C389 170.876 380.15 164 380.15 164Z" fill="#575A89"/>
<path d="M380.186 178C380.186 178 374.625 183.537 375.02 186.191C375.416 188.845 380.738 197.181 388.363 192.702C388.363 192.702 395.434 179.638 380.186 178Z" fill="#575A89"/>
<path opacity="0.1" d="M403 351.982C401.554 352.023 393.338 351.982 393.338 351.982C393.218 351.887 393.105 351.787 393 351.682C395.101 351.142 399.642 350.332 403 351.982Z" fill="black"/>
<path opacity="0.1" d="M425 351.982C423.554 352.023 415.338 351.982 415.338 351.982C415.218 351.887 415.105 351.787 415 351.682C417.091 351.142 421.632 350.332 425 351.982Z" fill="black"/>
<path opacity="0.1" d="M395 208C393.742 220.105 394.157 244.128 394.418 254.798C392.544 255.902 390.714 256.971 389.145 257.867C387.872 258.544 386.466 258.931 385.027 259C384.504 255.773 391.745 222.629 395 208Z" fill="black"/>
<path opacity="0.1" d="M396 201C395.978 201.177 395.59 203.86 395 208C395.231 204.465 395.551 201.928 396 201Z" fill="black"/>
<path opacity="0.1" d="M415.005 200C415.005 200 421.127 243.61 403 249C402.996 248.98 415.541 246.819 415.005 200Z" fill="black"/>
<path opacity="0.1" d="M425 258.983C423.814 259.026 422.626 258.988 421.445 258.87L416 199C419.473 201.322 423.629 243.81 425 258.983Z" fill="black"/>
<path opacity="0.1" d="M401.489 126.392C401.843 126.362 402.2 126.401 402.542 126.507C403.043 126.771 403.494 127.131 403.873 127.568C404.489 128.114 405.225 128.485 406.013 128.647C406.801 128.809 407.615 128.756 408.379 128.494C408.917 128.239 409.488 128.07 410.074 127.994C410.976 127.994 411.755 128.695 412.222 129.496C412.69 130.297 412.931 131.248 413.332 132.104C413.734 132.96 414.376 133.771 415.259 133.981C415.682 133.999 416.099 134.101 416.487 134.282C416.724 134.486 416.907 134.754 417.016 135.058C417.752 136.745 418.338 138.737 419.91 139.563C420.489 139.848 421.119 139.993 421.757 139.989C422.405 140.039 423.055 139.915 423.646 139.629C424.227 139.284 424.707 138.777 425.034 138.162C426.016 136.439 426.13 134.307 425.898 132.309C425.61 129.789 424.764 127.377 423.428 125.27C422.022 123.139 420.107 121.442 417.879 120.352C415.652 119.262 413.191 118.819 410.749 119.067C409.897 119.169 409.052 119.336 408.223 119.568C405.219 120.419 402.273 122.011 400.45 124.679C400.009 125.345 399.525 125.978 399 126.572C399.826 126.487 400.658 126.412 401.489 126.392Z" fill="black"/>
<path d="M401.489 125.744C401.843 125.712 402.2 125.753 402.542 125.864C403.043 126.142 403.494 126.518 403.873 126.976C404.489 127.548 405.225 127.936 406.013 128.106C406.801 128.276 407.615 128.221 408.379 127.946C408.917 127.679 409.488 127.502 410.074 127.422C410.976 127.422 411.755 128.156 412.222 128.995C412.69 129.834 412.931 130.831 413.332 131.728C413.734 132.625 414.376 133.474 415.259 133.695C415.682 133.713 416.099 133.82 416.487 134.009C416.724 134.224 416.907 134.504 417.016 134.822C417.752 136.59 418.338 138.677 419.91 139.543C420.489 139.84 421.119 139.993 421.757 139.988C422.405 140.041 423.055 139.911 423.646 139.611C424.227 139.25 424.707 138.719 425.034 138.074C426.016 136.27 426.13 134.036 425.898 131.943C425.61 129.303 424.764 126.776 423.428 124.569C422.022 122.336 420.107 120.558 417.879 119.416C415.652 118.275 413.191 117.81 410.749 118.07C409.897 118.177 409.052 118.352 408.223 118.595C405.219 119.486 402.273 121.154 400.45 123.95C400.009 124.648 399.525 125.31 399 125.932C399.826 125.843 400.658 125.764 401.489 125.744Z" fill="#3F3D56"/>
<path opacity="0.1" d="M388.925 153C388.925 153 389.476 157.697 387.592 158.868C385.708 160.04 388.925 153 388.925 153Z" fill="black"/>
<path opacity="0.1" d="M429 189C429 189 433.341 182.469 433.953 184.335C434.565 186.201 429 189 429 189Z" fill="black"/>
<path opacity="0.1" d="M430 192C430 192 434.539 186.282 434.975 188.519C435.411 190.757 430 192 430 192Z" fill="black"/>
<path opacity="0.1" d="M416.137 184.881C414.564 184.904 413.03 184.384 411.778 183.405H411.398C410.1 184.625 408.395 185.285 406.636 185.248C405.722 185.269 404.813 185.1 403.964 184.75C403.116 184.399 402.345 183.875 401.699 183.21H401.194C399.862 184.326 398.188 184.921 396.47 184.889C394.753 184.857 393.101 184.199 391.809 183.033L390 183C390 183 392.119 188.81 390.851 192.433L421.778 193C421.538 189.885 421.613 186.752 422 183.652V183.61L420.302 183.576C419.08 184.448 417.623 184.904 416.137 184.881Z" fill="black"/>
<path opacity="0.1" d="M416.137 185.881C414.564 185.904 413.03 185.384 411.778 184.405H411.398C410.1 185.625 408.395 186.285 406.636 186.248C405.722 186.269 404.813 186.1 403.964 185.75C403.116 185.399 402.345 184.875 401.699 184.21H401.194C399.862 185.326 398.188 185.921 396.47 185.889C394.753 185.857 393.101 185.199 391.809 184.033L390 184C390 184 392.119 189.81 390.851 193.433L421.778 194C421.538 190.885 421.613 187.752 422 184.652V184.61L420.302 184.576C419.08 185.448 417.623 185.904 416.137 185.881Z" fill="black"/>
<path d="M416.137 185.069C414.564 185.094 413.03 184.523 411.778 183.445H411.398C410.1 184.788 408.395 185.514 406.636 185.472C405.722 185.496 404.813 185.31 403.964 184.925C403.116 184.539 402.345 183.963 401.699 183.23H401.194C399.862 184.459 398.188 185.113 396.47 185.078C394.753 185.042 393.101 184.319 391.809 183.037L390 183C390 183 392.119 189.39 390.851 193.377L421.778 194C421.538 190.573 421.613 187.127 422 183.718V183.67L420.302 183.634C419.08 184.593 417.623 185.095 416.137 185.069V185.069Z" fill="#3F3D56"/>
<path opacity="0.1" d="M415 152C415 152 421.955 152.533 422 153.716C422.044 154.9 415 152 415 152Z" fill="black"/>
<path opacity="0.1" d="M399 149C399 149 393.038 149.266 393 149.858C392.962 150.45 399 149 399 149Z" fill="black"/>
<path opacity="0.1" d="M424.616 168.138C424.545 168.087 424.474 168.046 424.403 168C426.223 169.656 425.919 173.274 423.686 176.259C421.452 179.244 418.062 180.486 416 179.147C416.066 179.203 416.121 179.264 416.192 179.321C418.213 180.885 421.751 179.658 424.085 176.571C426.42 173.484 426.647 169.707 424.616 168.138Z" fill="black"/>
<path opacity="0.1" d="M387.683 175.762C385.852 172.686 386.089 169.289 388.161 168C388.084 168.034 388.002 168.062 387.925 168.101C385.652 169.279 385.353 172.811 387.235 175.992C389.117 179.174 392.511 180.784 394.784 179.624C394.859 179.584 394.931 179.539 395 179.49C392.732 180.448 389.513 178.838 387.683 175.762Z" fill="black"/>
<path opacity="0.1" d="M390 149.093L389.437 150L388 149.206L388.755 148C389.255 148.245 389.684 148.622 390 149.093V149.093Z" fill="black"/>
<path d="M380.522 185.5C380.522 185.5 381.892 178.611 380.055 176.422C378.218 174.232 378.807 162.754 381.612 163.004C384.416 163.254 388.624 172.332 387.922 174.252C387.221 176.172 384.571 186 384.571 186L380.522 185.5Z" fill="#FBBEBE"/>
<path opacity="0.1" d="M424.985 137.101C424.658 137.732 424.177 138.253 423.596 138.606C423.005 138.901 422.354 139.028 421.706 138.976C421.068 138.981 420.437 138.831 419.859 138.54C418.285 137.687 417.7 135.642 416.963 133.915C416.869 133.604 416.703 133.324 416.481 133.103C416.098 132.914 415.686 132.804 415.266 132.779C414.383 132.564 413.745 131.726 413.339 130.852C412.933 129.979 412.692 129.013 412.229 128.175C411.766 127.338 410.981 126.603 410.079 126.634C409.492 126.718 408.92 126.9 408.383 127.173C407.618 127.44 406.804 127.492 406.016 127.325C405.228 127.158 404.492 126.777 403.876 126.218C403.496 125.769 403.045 125.4 402.543 125.128C402.202 125.019 401.845 124.979 401.49 125.01C400.947 125.01 400.408 125.067 399.865 125.113C399.596 125.497 399.307 125.864 399 126.212C399.827 126.135 400.658 126.058 401.49 126.038C401.845 126.007 402.202 126.047 402.543 126.156C403.045 126.428 403.496 126.797 403.876 127.245C404.492 127.805 405.228 128.186 406.016 128.353C406.804 128.52 407.618 128.468 408.383 128.201C408.92 127.928 409.492 127.746 410.079 127.661C410.981 127.661 411.761 128.381 412.229 129.203C412.696 130.025 412.937 131.001 413.339 131.88C413.74 132.759 414.383 133.591 415.266 133.807C415.686 133.832 416.098 133.942 416.481 134.131C416.718 134.341 416.901 134.616 417.01 134.927C417.747 136.659 418.333 138.704 419.906 139.552C420.485 139.844 421.115 139.993 421.753 139.989C422.402 140.041 423.052 139.913 423.643 139.619C424.225 139.265 424.705 138.745 425.032 138.113C425.765 136.661 426.094 135.007 425.977 133.355C425.941 134.674 425.6 135.963 424.985 137.101V137.101Z" fill="black"/>
<path d="M382.5 191C384.985 191 387 189.657 387 188C387 186.343 384.985 185 382.5 185C380.015 185 378 186.343 378 188C378 189.657 380.015 191 382.5 191Z" fill="#575A89"/>
<path d="M244.5 355C324.857 355 390 287.171 390 203.5C390 119.829 324.857 52 244.5 52C164.143 52 99 119.829 99 203.5C99 287.171 164.143 355 244.5 355Z" fill="#F9A826"/>
<path d="M321 278.856C321 302.682 284.818 280.891 246.027 280.891C207.235 280.891 168 301.782 168 277.955C168 264.369 180.505 245.474 198.445 231.75C211.961 221.407 228.559 214 245.233 214C262.379 214 279.175 222.019 292.573 233.027C309.483 246.907 321 265.558 321 278.856Z" fill="#444053"/>
<path d="M292 234C271.407 230.621 234.163 226.502 198 232.658C211.499 221.786 228.075 214 244.726 214C261.845 214 278.619 222.429 292 234Z" fill="#F6F8FB"/>
<path opacity="0.05" d="M168 96C168 96 124.648 125.129 125.002 170.692C125.357 216.256 168 96 168 96Z" fill="black"/>
<path d="M389.25 14.052C389.25 14.052 349.72 11.6342 354.382 39.7704C354.382 39.7704 353.443 44.7396 357.894 47C357.894 47 357.964 44.916 361.945 45.6218C363.364 45.8629 364.806 45.9333 366.241 45.8316C368.18 45.6977 370.023 44.9241 371.49 43.6284V43.6284C371.49 43.6284 382.602 38.9693 386.926 20.5186C386.926 20.5186 390.123 16.4937 389.996 15.4636L383.325 18.3535C383.325 18.3535 385.602 23.2416 383.795 27.3046C383.795 27.3046 383.579 18.5347 382.297 18.7207C382.039 18.7636 378.832 20.4137 378.832 20.4137C378.832 20.4137 382.752 28.9308 379.771 35.116C379.771 35.116 380.893 24.6245 377.583 21.0288L372.889 23.8138C372.889 23.8138 377.471 32.6076 374.363 39.7847C374.363 39.7847 375.161 28.7782 371.903 24.491L367.645 27.8626C367.645 27.8626 371.95 36.5324 369.325 42.4839C369.325 42.4839 368.983 29.67 366.725 28.7019C366.725 28.7019 363.002 32.0401 362.434 33.4088C362.434 33.4088 365.382 39.6989 363.556 43.018C363.556 43.018 362.434 34.4818 361.513 34.4341C361.513 34.4341 357.805 40.0899 357.415 43.9718C357.415 43.9718 357.579 38.2015 360.612 33.8952C360.612 33.8952 357.025 34.5199 354.936 36.8853C354.936 36.8853 355.514 32.8842 361.509 32.5361C361.509 32.5361 364.574 28.2441 365.396 27.9866C365.396 27.9866 359.41 27.4763 355.781 29.112C355.781 29.112 358.974 25.3399 366.49 27.0519L370.715 23.5706C370.715 23.5706 362.837 22.4738 359.495 23.6851C359.495 23.6851 363.34 20.3469 371.847 22.779L376.424 19.9988C376.424 19.9988 369.706 18.53 365.701 19.045C365.701 19.045 369.926 16.7321 377.762 19.2405L381.048 17.7479C381.048 17.7479 376.123 16.7655 374.682 16.6129C373.241 16.4603 373.166 16.0502 373.166 16.0502C376.293 15.5336 379.501 15.9118 382.428 17.1422C382.428 17.1422 389.367 14.4955 389.25 14.052Z" fill="#F9A826"/>
<path d="M348.649 0.0254917C348.649 0.0254917 331.118 -1.15174 333.166 12.4939C333.166 12.4939 332.756 14.9047 334.726 16C334.726 16 334.753 14.9763 336.525 15.3346C337.154 15.4495 337.794 15.4839 338.43 15.437C339.292 15.3687 340.111 14.9935 340.765 14.3672V14.3672C340.765 14.3672 345.696 12.1049 347.615 3.15795C347.615 3.15795 349.036 1.20784 348.999 0.706239L346.038 2.10868C346.038 2.10868 347.052 4.47849 346.254 6.44907C346.254 6.44907 346.157 2.19569 345.59 2.29806C345.475 2.29806 344.049 3.117 344.049 3.117C344.049 3.117 345.793 7.24755 344.478 10.2469C344.478 10.2469 344.976 5.15924 343.509 3.41387L341.424 4.76513C341.424 4.76513 343.459 9.03387 342.079 12.5144C342.079 12.5144 342.43 7.17589 340.986 5.09782L339.095 6.73059C339.095 6.73059 341.004 10.9328 339.842 13.8196C339.842 13.8196 339.69 7.60583 338.684 7.13494C338.684 7.13494 337.032 8.75235 336.779 9.41775C336.779 9.41775 338.089 12.4888 337.277 14.0806C337.277 14.0806 336.779 9.93982 336.354 9.92447C336.354 9.92447 334.707 12.6628 334.537 14.531C334.616 12.7924 335.104 11.1072 335.953 9.64296C335.004 9.8422 334.128 10.3458 333.434 11.0915C333.434 11.0915 333.688 9.15159 336.359 8.98268C336.359 8.98268 337.72 6.90461 338.084 6.77666C338.084 6.77666 335.427 6.53097 333.817 7.32432C333.817 7.32432 335.233 5.49194 338.573 6.30064L340.419 4.61669C340.419 4.61669 336.922 4.10485 335.436 4.66788C335.436 4.66788 337.143 3.05046 340.921 4.23281L342.951 2.88156C342.951 2.88156 339.971 2.1701 338.19 2.42602C338.19 2.42602 340.068 1.30509 343.546 2.52327L345 1.79646C345 1.79646 342.813 1.32045 342.176 1.24879C341.54 1.17713 341.498 0.977513 341.498 0.977513C342.883 0.721907 344.305 0.899137 345.604 1.48935C345.604 1.48935 348.699 0.240464 348.649 0.0254917Z" fill="#F9A826"/>
<path opacity="0.1" d="M505.5 338C512.404 338 518 337.105 518 336C518 334.895 512.404 334 505.5 334C498.596 334 493 334.895 493 336C493 337.105 498.596 338 505.5 338Z" fill="#F9A826"/>
<path d="M477 364C487.493 364 496 362.433 496 360.5C496 358.567 487.493 357 477 357C466.507 357 458 358.567 458 360.5C458 362.433 466.507 364 477 364Z" fill="#F9A826"/>
<path d="M486.073 354.974C486.965 354.249 487.616 353.271 487.94 352.17C488.178 351.062 487.702 349.725 486.637 349.319C485.442 348.863 484.163 349.691 483.196 350.524C482.229 351.357 481.116 352.306 479.847 352.132C480.5 351.543 480.988 350.796 481.264 349.964C481.54 349.131 481.594 348.242 481.422 347.382C481.367 347.026 481.215 346.691 480.985 346.413C480.319 345.706 479.118 346.007 478.321 346.564C475.793 348.336 475.089 351.754 475.074 354.833C474.821 353.725 475.035 352.567 475.03 351.444C475.026 350.321 474.71 349.023 473.747 348.428C473.15 348.11 472.48 347.953 471.803 347.972C470.666 347.929 469.402 348.04 468.624 348.868C467.652 349.9 467.91 351.623 468.751 352.742C469.591 353.86 470.865 354.586 472.036 355.366C472.979 355.924 473.783 356.687 474.389 357.598C474.46 357.726 474.518 357.861 474.564 358H481.684C483.278 357.193 484.754 356.175 486.073 354.974V354.974Z" fill="#F9A826"/>
<path d="M28.162 314C28.162 314 30.7602 317.369 26.96 322.445C23.1597 327.521 20.0267 331.828 21.2809 335C21.2809 335 27.012 325.551 31.6925 325.415C36.373 325.279 33.2921 319.682 28.162 314Z" fill="#F9A826"/>
<path opacity="0.1" d="M28.0868 314C28.3149 314.325 28.4953 314.68 28.6227 315.055C33.226 320.353 35.676 325.299 31.2545 325.421C27.1297 325.538 22.1628 332.759 21 334.583C21.0406 334.724 21.0886 334.863 21.1436 335C21.1436 335 26.9383 325.557 31.6708 325.421C36.4033 325.285 33.2739 319.678 28.0868 314Z" fill="black"/>
<path d="M33 318.79C33 320.011 32.7717 321 32.4961 321C32.2205 321 32 320.035 32 318.79C32 317.545 32.2756 318.144 32.5591 318.144C32.8425 318.144 33 317.57 33 318.79Z" fill="#FFD037"/>
<path d="M34.2796 320.008C33.1114 320.714 32.0957 321.139 32.0063 320.958C31.9168 320.778 32.7956 320.066 33.9639 319.361C35.1321 318.655 34.669 319.168 34.7585 319.361C34.8479 319.553 35.4689 319.303 34.2796 320.008Z" fill="#FFD037"/>
<path d="M14.8416 314C14.8416 314 12.2429 317.369 16.0391 322.445C19.8354 327.521 22.9737 331.828 21.7193 335C21.7193 335 15.9823 325.551 11.3056 325.415C6.62895 325.279 9.70572 319.682 14.8416 314Z" fill="#F9A826"/>
<path opacity="0.1" d="M14.9149 314C14.6845 314.324 14.5039 314.68 14.3787 315.055C9.77334 320.353 7.31748 325.299 11.7457 325.421C15.8675 325.538 20.8415 332.759 22 334.583C21.961 334.724 21.9146 334.863 21.8612 335C21.8612 335 16.059 325.557 11.3292 325.421C6.59938 325.285 9.72068 319.678 14.9149 314Z" fill="black"/>
<path d="M7.70955 320.008C8.88065 320.714 9.90404 321.139 9.99372 320.958C10.0834 320.778 9.20244 320.066 8.03134 319.361C6.86025 318.655 7.31919 319.168 7.23479 319.361C7.15039 319.553 6.53846 319.303 7.70955 320.008Z" fill="#FFD037"/>
<path d="M11 335.016C11 335.016 17.9858 334.789 20.0961 333.195C22.2063 331.601 30.843 329.703 31.3661 332.229C31.8891 334.755 41.8629 344.93 33.9766 344.998C26.0904 345.065 15.6526 343.689 13.5514 342.332C11.4503 340.975 11 335.016 11 335.016Z" fill="#A8A8A8"/>
<path opacity="0.2" d="M34.1184 344.119C26.2287 344.187 15.7866 342.812 13.6845 341.456C12.0829 340.423 11.4459 336.713 11.232 335H11C11 335 11.455 340.978 13.5434 342.334C15.6319 343.69 26.0877 345.065 33.9773 344.998C36.2523 344.998 37.0394 344.115 36.9985 342.846C36.68 343.622 35.8155 344.105 34.1184 344.119Z" fill="black"/>
<path d="M192.63 183.423C195.448 183.262 208.711 182.245 217.136 177.349C218.489 176.538 220.018 176.079 221.586 176.013C224.265 175.935 227.347 177.075 225.374 183.453C222.177 193.886 203.613 205.625 192.093 204.974C181.013 204.348 167.87 199.799 159.191 183.805C158.359 182.266 157.95 180.528 158.005 178.772C158.106 175.544 159.258 171.499 165.206 176.008C173.241 182.098 188.487 183.252 191.545 183.423C191.907 183.443 192.269 183.443 192.63 183.423V183.423Z" fill="#444053"/>
<path d="M297.121 183.423C299.897 183.262 312.966 182.245 321.267 177.349C322.6 176.538 324.106 176.079 325.651 176.013C328.29 175.935 331.327 177.075 329.383 183.453C326.233 193.886 307.943 205.625 296.591 204.974C285.675 204.348 272.725 199.799 264.173 183.805C263.354 182.266 262.95 180.528 263.005 178.772C263.104 175.544 264.239 171.499 270.1 176.008C278.017 182.098 293.039 183.252 296.052 183.423C296.408 183.443 296.765 183.443 297.121 183.423V183.423Z" fill="#444053"/>
<defs>
<linearGradient id="paint0_linear" x1="419.99" y1="352.004" x2="419.99" y2="109.006" gradientUnits="userSpaceOnUse">
<stop stop-color="#808080" stop-opacity="0.25"/>
<stop offset="0.54" stop-color="#808080" stop-opacity="0.12"/>
<stop offset="1" stop-color="#808080" stop-opacity="0.1"/>
</linearGradient>
</defs>
</svg>
