<svg width="40" height="36" viewBox="0 0 40 36" fill="none" xmlns="http://www.w3.org/2000/svg">
<path d="M37.1429 14.25H24.2857V3C24.2857 1.61953 23.0063 0.5 21.4286 0.5H18.5714C16.9937 0.5 15.7143 1.61953 15.7143 3V14.25H2.85714C1.27946 14.25 0 15.3695 0 16.75V19.25C0 20.6305 1.27946 21.75 2.85714 21.75H15.7143V33C15.7143 34.3805 16.9937 35.5 18.5714 35.5H21.4286C23.0063 35.5 24.2857 34.3805 24.2857 33V21.75H37.1429C38.7205 21.75 40 20.6305 40 19.25V16.75C40 15.3695 38.7205 14.25 37.1429 14.25Z" fill="#F58E08"/>
</svg>
