<svg width="18" height="18" viewBox="0 0 18 18" fill="none" xmlns="http://www.w3.org/2000/svg">
<path fill-rule="evenodd" clip-rule="evenodd" d="M2 0H16C17.1 0 18 0.9 18 2V16C18 17.1 17.1 18 16 18H2C0.9 18 0 17.1 0 16V2C0 0.9 0.9 0 2 0ZM6.30002 13.2901C6.69002 13.6801 7.32002 13.6801 7.71002 13.2901L15.29 5.70006C15.68 5.31006 15.68 4.68006 15.29 4.29006C14.9 3.90006 14.27 3.90006 13.88 4.29006L7.00002 11.1701L4.12003 8.29006C3.73003 7.90006 3.10003 7.90006 2.71003 8.29006C2.52277 8.47689 2.41754 8.73054 2.41754 8.99506C2.41754 9.25957 2.52277 9.51322 2.71003 9.70006L6.30002 13.2901Z" fill="black" fill-opacity="0.54"/>
</svg>
