<svg width="100" height="78" viewBox="0 0 100 78" fill="none" xmlns="http://www.w3.org/2000/svg">
<g clip-path="url(#clip0)">
<path d="M5.97915 73.8062C5.97915 73.8062 1.69916 73.5536 2.20341 76.4888C2.20341 76.4888 2.10215 77.0069 2.58311 77.2426C2.58311 77.2426 2.59121 77.0247 3.02255 77.099C3.17603 77.1243 3.33205 77.1316 3.4873 77.1208C3.69747 77.1067 3.89724 77.0261 4.05635 76.891C4.05635 76.891 5.25924 76.4046 5.72804 74.4808C5.72804 74.4808 6.07433 74.0608 6.06015 73.9528L5.33821 74.25C5.33821 74.25 5.58426 74.7602 5.39087 75.1832C5.39087 75.1832 5.36657 74.2688 5.22785 74.2916C5.1995 74.2966 4.85321 74.4689 4.85321 74.4689C4.85321 74.4689 5.27746 75.3605 4.95446 76.0024C4.95446 76.0024 5.07597 74.9078 4.71753 74.5323L4.21126 74.8236C4.21126 74.8236 4.70842 75.7409 4.37124 76.4888C4.37124 76.4888 4.45731 75.3407 4.10495 74.8939L3.64424 75.2456C3.64424 75.2456 4.11001 76.15 3.82549 76.7701C3.82549 76.7701 3.78903 75.4338 3.544 75.3328C3.544 75.3328 3.13899 75.6805 3.07925 75.8281C3.07925 75.8281 3.39921 76.4838 3.20075 76.8305C3.20075 76.8305 3.07925 75.939 2.98002 75.939C2.98002 75.939 2.57501 76.5284 2.53653 76.9296C2.53653 76.9296 2.55374 76.3273 2.8818 75.8786C2.65024 75.9212 2.43654 76.0293 2.2672 76.1896C2.2672 76.1896 2.32997 75.7726 2.98103 75.7359C2.98103 75.7359 3.31314 75.2892 3.40225 75.2614C3.40225 75.2614 2.75422 75.2089 2.36136 75.3793C2.36136 75.3793 2.70664 74.9831 3.52071 75.1643L3.97635 74.8008C3.97635 74.8008 3.12279 74.6869 2.76131 74.8127C2.76131 74.8127 3.17746 74.465 4.09887 74.7186L4.594 74.4293C4.594 74.4293 3.86599 74.2758 3.43262 74.3303C3.43262 74.3303 3.89029 74.0885 4.73879 74.3501L5.09318 74.1945C5.09318 74.1945 4.55957 74.0955 4.40364 74.0757C4.24771 74.0559 4.23961 74.0172 4.23961 74.0172C4.57729 73.9621 4.92396 73.9999 5.24101 74.1262C5.24101 74.1262 5.99231 73.8528 5.97915 73.8062Z" fill="#F9A826"/>
<path opacity="0.1" d="M3.02951 78.0005C4.70265 78.0005 6.05901 77.7761 6.05901 77.4993C6.05901 77.2225 4.70265 76.998 3.02951 76.998C1.35636 76.998 0 77.2225 0 77.4993C0 77.7761 1.35636 78.0005 3.02951 78.0005Z" fill="#F9A826"/>
<path d="M99.9529 67.1418C99.9529 67.1418 97.539 66.9991 97.8265 68.6534C97.8118 68.7375 97.8246 68.824 97.8632 68.9005C97.9017 68.977 97.964 69.0396 98.0412 69.0794C98.0412 69.0794 98.0412 68.9565 98.2883 68.9981C98.3749 69.0121 98.4629 69.0161 98.5505 69.01C98.669 69.0024 98.7817 68.9572 98.8715 68.8813C98.8715 68.8813 99.5499 68.6069 99.8142 67.5221C99.8142 67.5221 100.009 67.2854 100.001 67.225L99.5965 67.3954C99.5965 67.3954 99.7352 67.6826 99.6258 67.9224C99.6258 67.9224 99.6127 67.4062 99.5347 67.4181C99.5185 67.4181 99.3221 67.5172 99.3221 67.5172C99.3221 67.5172 99.562 68.0125 99.3818 68.381C99.3818 68.381 99.4497 67.7648 99.2482 67.5529L98.9606 67.7163C98.9606 67.7163 99.2411 68.2344 99.0507 68.6564C99.0507 68.6564 99.1003 68.0085 98.9008 67.7569L98.6406 67.955C98.6406 67.955 98.9039 68.4642 98.7419 68.8149C98.7419 68.8149 98.7206 68.061 98.5829 68.0046C98.4843 68.0859 98.3962 68.1787 98.3207 68.281C98.3207 68.281 98.5009 68.6504 98.3895 68.8466C98.3895 68.8466 98.3207 68.3443 98.264 68.3424C98.264 68.3424 98.0382 68.6742 98.0149 68.9021C98.0253 68.6907 98.0923 68.4857 98.2093 68.3077C98.0787 68.3319 97.9582 68.3933 97.863 68.484C97.863 68.484 97.8984 68.2483 98.268 68.2275C98.268 68.2275 98.4553 67.9758 98.5059 67.96C98.5059 67.96 98.1404 67.9303 97.9187 68.0264C97.9187 68.0264 98.1141 67.8045 98.5728 67.9055L98.829 67.7005C98.829 67.7005 98.348 67.6361 98.1445 67.7074C98.1445 67.7074 98.3794 67.5093 98.8978 67.6539L99.1773 67.4904C98.9626 67.4444 98.7427 67.4261 98.5232 67.436C98.5232 67.436 98.7804 67.2993 99.2593 67.4469L99.4618 67.3587C99.4618 67.3587 99.158 67.3012 99.074 67.2923C98.99 67.2834 98.9808 67.2596 98.9808 67.2596C99.1714 67.2286 99.3669 67.2499 99.5458 67.3211C99.5458 67.3211 99.96 67.1675 99.9529 67.1418Z" fill="#F9A826"/>
<path opacity="0.1" d="M98.2902 69.5041C99.2336 69.5041 99.9983 69.3777 99.9983 69.2218C99.9983 69.0659 99.2336 68.9395 98.2902 68.9395C97.3468 68.9395 96.582 69.0659 96.582 69.2218C96.582 69.3777 97.3468 69.5041 98.2902 69.5041Z" fill="#F9A826"/>
<path d="M94.9892 71.6462C94.9892 71.6462 92.0751 71.4749 92.4234 73.4739C92.4057 73.5754 92.4213 73.6798 92.4678 73.7721C92.5144 73.8644 92.5896 73.94 92.6826 73.988C92.6826 73.988 92.6827 73.8394 92.9864 73.889C93.0911 73.9063 93.1975 73.9113 93.3033 73.9038C93.4462 73.8941 93.5819 73.8392 93.6901 73.7473C93.6901 73.7473 94.5092 73.4165 94.8272 72.1069C94.8272 72.1069 95.0631 71.8206 95.054 71.7473L94.5619 71.9533C94.5619 71.9533 94.73 72.3 94.5983 72.5883C94.5983 72.5883 94.5821 71.9652 94.488 71.9801C94.4687 71.9801 94.2318 72.0999 94.2318 72.0999C94.2318 72.0999 94.5214 72.7052 94.3027 73.144C94.3027 73.144 94.3857 72.3991 94.1417 72.1445L93.7954 72.3426C93.7954 72.3426 94.1336 72.9677 93.9048 73.4769C93.9048 73.4769 93.9635 72.6953 93.7225 72.3872L93.4096 72.626C93.4096 72.626 93.7266 73.2421 93.5332 73.6641C93.5332 73.6641 93.5079 72.7547 93.3408 72.6864C93.3408 72.6864 93.0664 72.9221 93.0249 73.0202C93.0249 73.0202 93.2426 73.467 93.1079 73.7027C93.1079 73.7027 93.0249 73.0965 92.957 73.0935C92.957 73.0935 92.6837 73.4947 92.6533 73.7701C92.6669 73.5157 92.7483 73.2691 92.8892 73.0549C92.7314 73.0841 92.5857 73.1578 92.47 73.2669C92.47 73.2669 92.5125 72.9836 92.956 72.9588C92.956 72.9588 93.1818 72.6537 93.2426 72.6349C93.2426 72.6349 92.8011 72.5992 92.5338 72.7151C92.5338 72.7151 92.7697 72.4476 93.3236 72.5695L93.6334 72.3218C93.6334 72.3218 93.0522 72.2436 92.8062 72.3298C92.8062 72.3298 93.0897 72.093 93.7175 72.2654L94.0546 72.0673C94.0546 72.0673 93.5595 71.9632 93.2649 72.0009C93.2649 72.0009 93.5757 71.8364 94.1538 72.0148L94.3948 71.9088C94.3948 71.9088 94.0313 71.8384 93.926 71.8275C93.8207 71.8166 93.8136 71.7879 93.8136 71.7879C94.0434 71.7505 94.2793 71.7762 94.4951 71.8622C94.4951 71.8622 94.9973 71.6779 94.9892 71.6462Z" fill="#F9A826"/>
<path opacity="0.1" d="M92.9844 74.4999C94.1235 74.4999 95.0469 74.3473 95.0469 74.1591C95.0469 73.9709 94.1235 73.8184 92.9844 73.8184C91.8453 73.8184 90.9219 73.9709 90.9219 74.1591C90.9219 74.3473 91.8453 74.4999 92.9844 74.4999Z" fill="#F9A826"/>
<path opacity="0.1" d="M81.5577 73.3862C86.7209 73.3862 90.9065 72.7471 90.9065 71.9587C90.9065 71.1703 86.7209 70.5312 81.5577 70.5312C76.3946 70.5312 72.209 71.1703 72.209 71.9587C72.209 72.7471 76.3946 73.3862 81.5577 73.3862Z" fill="#F9A826"/>
<path opacity="0.1" d="M51.9758 77.1015C57.7775 77.1015 62.4808 76.6398 62.4808 76.0703C62.4808 75.5007 57.7775 75.0391 51.9758 75.0391C46.174 75.0391 41.4707 75.5007 41.4707 76.0703C41.4707 76.6398 46.174 77.1015 51.9758 77.1015Z" fill="#F9A826"/>
<path opacity="0.1" d="M20.1475 76.0781C24.5513 76.0781 28.1213 75.8626 28.1213 75.5967C28.1213 75.3308 24.5513 75.1152 20.1475 75.1152C15.7438 75.1152 12.1738 75.3308 12.1738 75.5967C12.1738 75.8626 15.7438 76.0781 20.1475 76.0781Z" fill="#F9A826"/>
<path opacity="0.1" d="M34.3054 3.39355C37.263 0.817983 41.9065 0.289991 46.1318 0.495046C59.4051 1.13993 71.3865 7.40945 81.7508 14.5012C85.5032 17.0678 89.197 19.8346 91.6321 23.37C96.5935 30.5658 95.1193 40.5352 88.226 46.4639C85.8799 48.4808 83.0367 50.0301 80.1176 51.3981C74.9273 53.836 69.327 55.7924 63.4371 56.3511C59.2361 56.7474 54.9834 56.4254 50.8077 55.8707C39.1392 54.3214 27.6865 50.8979 18.0876 45.0434C13.8775 42.4678 9.90837 39.2781 8.17289 35.1225C6.4374 30.967 7.54815 25.7009 11.8474 23.2413C13.6254 22.2239 15.7517 21.7643 17.8325 21.3333C20.8964 20.6984 24.0089 20.0723 26.7742 18.7806C29.6295 17.4472 33.0104 14.8687 32.4444 11.9177C31.8389 8.75072 31.3518 5.96911 34.3054 3.39355Z" fill="#F9A826"/>
<path opacity="0.9" d="M58.8151 38.809V19.8945H61.4477V14.248H42.5841V19.8945H45.2167V38.809C41.5811 40.1599 38.4513 42.5604 36.2425 45.6919C34.0338 48.8234 32.8505 52.538 32.8496 56.3427C32.8496 66.6994 41.4319 75.0948 52.0179 75.0948C62.604 75.0948 71.1852 66.6994 71.1852 56.3427C71.1843 52.5376 70.0006 48.8227 67.7912 45.6911C65.5819 42.5595 62.4513 40.1593 58.8151 38.809Z" fill="#868EA1"/>
<path opacity="0.1" d="M58.8153 19.8359H45.2129V20.0905H58.8153V19.8359Z" fill="black"/>
<path d="M41.291 55.8411C41.291 55.8411 52.8339 55.643 58.6054 52.8168C64.3768 49.9906 67.6747 52.5137 67.3648 54.2284C67.055 55.9431 65.4076 59.2686 58.8119 59.6767C52.2163 60.0848 41.291 55.8411 41.291 55.8411Z" fill="#F9A826"/>
<path opacity="0.1" d="M41.291 55.8411C41.291 55.8411 52.8339 55.643 58.6054 52.8168C64.3768 49.9906 67.6747 52.5137 67.3648 54.2284C67.055 55.9431 65.4076 59.2686 58.8119 59.6767C52.2163 60.0848 41.291 55.8411 41.291 55.8411Z" fill="black"/>
<path d="M36.3478 54.0284C36.3478 54.0284 35.1145 70.7646 51.2897 71.0667C67.465 71.3689 67.3658 54.2265 67.3658 54.2265C67.3658 54.2265 61.3918 60.5773 47.271 55.335C47.271 55.3389 39.9544 53.4231 36.3478 54.0284Z" fill="#F9A826"/>
<path opacity="0.1" d="M67.3151 54.286C66.9922 58.1414 64.8972 70.2099 51.2979 69.9554C37.9669 69.7087 36.4572 58.3069 36.3387 54.2959C36.2648 56.4485 36.3306 70.7845 51.2948 71.0648C67.4741 71.362 67.3708 54.2246 67.3708 54.2246C67.3708 54.2246 67.3506 54.2494 67.3151 54.286Z" fill="black"/>
<path opacity="0.3" d="M51.388 48.859C52.5473 48.859 53.487 47.9396 53.487 46.8055C53.487 45.6713 52.5473 44.752 51.388 44.752C50.2288 44.752 49.2891 45.6713 49.2891 46.8055C49.2891 47.9396 50.2288 48.859 51.388 48.859Z" fill="#F9A826"/>
<path opacity="0.3" d="M52.5901 39.8622C53.3076 39.8622 53.8892 39.2932 53.8892 38.5913C53.8892 37.8893 53.3076 37.3203 52.5901 37.3203C51.8726 37.3203 51.291 37.8893 51.291 38.5913C51.291 39.2932 51.8726 39.8622 52.5901 39.8622Z" fill="#F9A826"/>
<path opacity="0.3" d="M49.6897 32.5263C50.4072 32.5263 50.9888 31.9572 50.9888 31.2553C50.9888 30.5534 50.4072 29.9844 49.6897 29.9844C48.9722 29.9844 48.3906 30.5534 48.3906 31.2553C48.3906 31.9572 48.9722 32.5263 49.6897 32.5263Z" fill="#F9A826"/>
<path opacity="0.2" d="M38.5584 48.389C38.447 49.2548 38.4693 50.3385 39.2601 50.7427C38.5969 50.4039 41.3155 46.5623 40.9298 45.7778C40.1045 44.1037 38.6596 47.5846 38.5584 48.389Z" fill="white"/>
<path opacity="0.3" d="M48.638 10.4742C49.7973 10.4742 50.737 9.55483 50.737 8.42071C50.737 7.28658 49.7973 6.36719 48.638 6.36719C47.4788 6.36719 46.5391 7.28658 46.5391 8.42071C46.5391 9.55483 47.4788 10.4742 48.638 10.4742Z" fill="#F9A826"/>
<path opacity="0.3" d="M54.9353 6.42608C55.7971 6.42608 56.4956 5.74263 56.4956 4.89956C56.4956 4.05649 55.7971 3.37305 54.9353 3.37305C54.0736 3.37305 53.375 4.05649 53.375 4.89956C53.375 5.74263 54.0736 6.42608 54.9353 6.42608Z" fill="#F9A826"/>
<path opacity="0.3" d="M50.438 1.58694C50.8859 1.58694 51.2491 1.23169 51.2491 0.793472C51.2491 0.35525 50.8859 0 50.438 0C49.9901 0 49.627 0.35525 49.627 0.793472C49.627 1.23169 49.9901 1.58694 50.438 1.58694Z" fill="#F9A826"/>
<path opacity="0.9" d="M28.7384 26.0703H11.7754V30.9926H14.3604V69.3943C14.3502 70.1583 14.4951 70.9168 14.7869 71.6256C15.0787 72.3344 15.5115 72.9794 16.0601 73.5232C16.6088 74.0671 17.2624 74.4989 17.983 74.7936C18.7036 75.0884 19.4769 75.2401 20.2579 75.2401C21.0389 75.2401 21.8122 75.0884 22.5328 74.7936C23.2534 74.4989 23.907 74.0671 24.4557 73.5232C25.0043 72.9794 25.4371 72.3344 25.7289 71.6256C26.0207 70.9168 26.1657 70.1583 26.1554 69.3943V30.9926H28.7384V26.0703Z" fill="#868EA1"/>
<path d="M18.2891 39.693C18.2891 39.693 22.487 38.2259 23.6555 39.269C23.6555 39.269 21.9555 41.7138 20.3901 41.6158C18.8247 41.5177 18.2891 39.693 18.2891 39.693Z" fill="#F9A826"/>
<path opacity="0.1" d="M18.2891 39.693C18.2891 39.693 22.487 38.2259 23.6555 39.269C23.6555 39.269 21.9555 41.7138 20.3901 41.6158C18.8247 41.5177 18.2891 39.693 18.2891 39.693Z" fill="black"/>
<path d="M23.6541 39.2744V67.1459C23.6541 67.6083 23.5611 68.0661 23.3802 68.4932C23.1994 68.9203 22.9343 69.3085 22.6001 69.6354C22.266 69.9623 21.8693 70.2216 21.4327 70.3985C20.9961 70.5755 20.5282 70.6665 20.0556 70.6665C19.1012 70.6665 18.1859 70.2956 17.511 69.6354C16.8362 68.9751 16.457 68.0797 16.457 67.1459V39.2744C16.457 39.2744 18.1895 38.8177 19.8217 39.7964C21.4539 40.7751 23.6541 39.2744 23.6541 39.2744Z" fill="#F9A826"/>
<path opacity="0.1" d="M26.1525 30.9629H14.3574V31.1897H26.1525V30.9629Z" fill="black"/>
<path opacity="0.1" d="M20.0556 68.9708C19.5829 68.9708 19.1149 68.8797 18.6782 68.7027C18.2416 68.5257 17.8448 68.2663 17.5107 67.9393C17.1765 67.6123 16.9114 67.2241 16.7307 66.7968C16.5499 66.3695 16.4569 65.9116 16.457 65.4492V67.2095C16.457 68.1432 16.8362 69.0387 17.511 69.699C18.1859 70.3592 19.1012 70.7301 20.0556 70.7301C21.01 70.7301 21.9253 70.3592 22.6001 69.699C23.275 69.0387 23.6541 68.1432 23.6541 67.2095V65.4492C23.6543 65.9116 23.5613 66.3695 23.3805 66.7968C23.1997 67.2241 22.9347 67.6123 22.6005 67.9393C22.2663 68.2663 21.8696 68.5257 21.4329 68.7027C20.9963 68.8797 20.5282 68.9708 20.0556 68.9708Z" fill="black"/>
<path opacity="0.3" d="M20.0553 36.536C20.4602 36.536 20.7884 36.2149 20.7884 35.8188C20.7884 35.4227 20.4602 35.1016 20.0553 35.1016C19.6505 35.1016 19.3223 35.4227 19.3223 35.8188C19.3223 36.2149 19.6505 36.536 20.0553 36.536Z" fill="#F9A826"/>
<path opacity="0.3" d="M22.4531 33.7336C22.7109 33.7336 22.9199 33.5292 22.9199 33.277C22.9199 33.0248 22.7109 32.8203 22.4531 32.8203C22.1953 32.8203 21.9863 33.0248 21.9863 33.277C21.9863 33.5292 22.1953 33.7336 22.4531 33.7336Z" fill="#F9A826"/>
<path opacity="0.3" d="M19.1875 32.8215C19.4453 32.8215 19.6543 32.6171 19.6543 32.3649C19.6543 32.1127 19.4453 31.9082 19.1875 31.9082C18.9297 31.9082 18.7207 32.1127 18.7207 32.3649C18.7207 32.6171 18.9297 32.8215 19.1875 32.8215Z" fill="#F9A826"/>
<path opacity="0.2" d="M15.2693 44.9683C15.1579 45.8341 15.1802 46.9178 15.971 47.3219C15.3068 46.9832 18.0265 43.1426 17.6407 42.357C16.8134 40.6849 15.3706 44.1649 15.2693 44.9683Z" fill="white"/>
<path opacity="0.3" d="M21.576 22.9908C22.5596 22.9908 23.357 22.2107 23.357 21.2483C23.357 20.286 22.5596 19.5059 21.576 19.5059C20.5923 19.5059 19.7949 20.286 19.7949 21.2483C19.7949 22.2107 20.5923 22.9908 21.576 22.9908Z" fill="#F9A826"/>
<path opacity="0.3" d="M16.2326 19.5563C16.964 19.5563 17.557 18.9762 17.557 18.2606C17.557 17.545 16.964 16.9648 16.2326 16.9648C15.5012 16.9648 14.9082 17.545 14.9082 18.2606C14.9082 18.9762 15.5012 19.5563 16.2326 19.5563Z" fill="#F9A826"/>
<path opacity="0.3" d="M20.0479 15.4488C20.4282 15.4488 20.7364 15.1472 20.7364 14.7752C20.7364 14.4031 20.4282 14.1016 20.0479 14.1016C19.6676 14.1016 19.3594 14.4031 19.3594 14.7752C19.3594 15.1472 19.6676 15.4488 20.0479 15.4488Z" fill="#F9A826"/>
<path d="M90.7073 44.7072C90.7073 44.7072 89.153 37.145 89.7474 36.2039C89.7474 36.2039 89.7687 35.3292 89.7332 34.2148C89.7332 34.1722 89.7332 34.1296 89.7332 34.086C89.8373 34.1555 89.9463 34.2177 90.0593 34.2722C90.6071 34.5486 91.2367 34.6282 91.8383 34.4971L91.3654 33.984C91.253 33.8611 91.1346 33.7294 91.1103 33.5669C91.1038 33.4107 91.1387 33.2554 91.2115 33.1162C91.6581 32.0117 91.6854 30.6219 90.8207 29.7789C90.0937 29.0696 89.9155 28.1543 89.1298 27.5074C88.5526 27.0329 88.2357 26.3375 87.936 25.6669C87.6828 25.0983 87.4297 24.5257 87.2829 23.9234C87.1695 23.4529 87.1249 22.9665 86.969 22.5069C86.8131 22.0472 86.5235 21.6005 86.0689 21.3954C85.9003 21.3378 85.7367 21.2669 85.5798 21.1834C85.3854 21.0556 85.269 20.8476 85.1292 20.6663C84.4205 19.7441 82.0309 20.2869 80.9009 20.6614C80.594 20.7555 80.3099 20.9095 80.0655 21.1141L80.0757 21.0972L80.104 21.0566C79.9807 21.1544 79.8741 21.2708 79.7881 21.4014C79.6231 21.6569 79.5542 21.9571 79.4175 22.2265C79.2515 22.5534 78.33 23.4658 78.726 23.8333C78.7531 23.8579 78.7843 23.878 78.8181 23.8927C78.9659 23.9518 79.128 23.9676 79.2849 23.9383C79.2788 23.9512 79.2727 23.964 79.2677 23.9769C79.1331 24.3013 79.0644 24.6482 79.0652 24.9982C79.0718 25.7311 79.3758 26.4313 79.9101 26.9449C80.4444 27.4586 81.1654 27.7436 81.9144 27.7372C82.2105 27.7377 82.5049 27.6936 82.7872 27.6065C82.7943 27.6412 82.8004 27.6758 82.8065 27.7105C82.8065 27.7254 82.8065 27.7392 82.8136 27.7531L82.7639 27.8214L82.7558 27.8086L81.2786 29.8294C81.0528 29.9839 79.7516 30.9052 79.6818 31.5956C79.6048 32.3515 79.5279 33.2371 79.5279 33.2371L79.5178 33.4263C79.4533 33.479 79.3779 33.5174 79.2968 33.5389C79.2157 33.5605 79.1308 33.5646 79.0479 33.5511C78.5872 33.4768 78.5872 35.2113 78.5872 35.2113C78.5872 35.2113 78.2835 35.4877 78.0698 35.248C77.8562 35.0083 77.3023 35.8196 77.3023 35.8196L73.8101 35.9672H73.7301L73.5418 35.3966C73.5212 35.3376 73.478 35.2888 73.4213 35.2604C73.3647 35.2319 73.299 35.2261 73.238 35.244C73.2232 35.248 73.2089 35.2536 73.1955 35.2609L73.1833 35.2688C73.1747 35.2736 73.1665 35.2792 73.159 35.2856C73.1542 35.2887 73.1498 35.2924 73.1459 35.2965C73.139 35.3023 73.1325 35.3086 73.1266 35.3153C73.123 35.3195 73.1196 35.3238 73.1165 35.3282L73.1104 35.3342C73.0887 35.3635 73.0743 35.3974 73.0683 35.4332C73.0623 35.469 73.0649 35.5056 73.076 35.5402L73.238 36.0296C72.5647 36.1623 71.8751 36.5358 72.4371 37.566L69.5898 37.0519L70.5113 37.8077L75.2702 38.7686C75.2074 38.8795 75.2489 39.039 75.4453 39.2639C76.2908 40.2367 77.8359 40.5002 78.4566 40.5695C78.6197 40.9272 78.8235 41.2659 79.0641 41.5789L79.0095 42.5477C79.0095 42.5477 77.438 49.9366 77.1494 50.3121C77.2921 50.1499 77.4223 49.9777 77.5393 49.797C77.0826 51.3156 76.4447 53.3938 76.2776 53.7049C76.0083 54.2002 75.7592 56.2131 76.066 56.3429C76.1622 56.3825 76.4285 56.3637 76.8123 56.3349V56.5014L76.7951 62.8164C76.7951 62.8164 76.872 66.6907 76.6604 67.0592C76.4488 67.4277 76.3921 68.2023 76.3921 68.2023C76.3921 68.2023 75.5436 69.7308 74.8733 70.345L74.8581 70.3579L74.8368 70.2133C74.8368 70.2133 74.0268 71.2098 72.2467 71.1543C72.2467 71.1543 71.1724 71.8369 72.7652 71.8735C74.3579 71.9102 76.391 71.818 76.391 71.818C76.391 71.818 77.8086 69.6972 79.0003 69.9735V71.5783H79.3649V69.9597C79.5338 69.8506 79.6784 69.7091 79.7898 69.5438C79.9012 69.3785 79.9771 69.1927 80.0129 68.9978C80.0443 68.7974 80.0217 68.5925 79.9473 68.4033C79.8729 68.214 79.7493 68.0471 79.5886 67.919C79.5164 67.855 79.4584 67.7771 79.4184 67.6902C79.3783 67.6033 79.357 67.5092 79.3558 67.4138L79.3426 67.4247C79.3426 67.393 79.3345 67.3603 79.3294 67.3257C79.2282 66.4955 79.0955 64.7877 79.5572 63.5217C80.1901 61.7872 80.3825 59.3721 79.9218 57.9328C79.7734 57.4733 79.6517 57.006 79.5572 56.5331C79.5461 56.4726 79.535 56.4162 79.5259 56.3627C79.8413 56.4048 80.1535 56.4673 80.4604 56.5499C81.5297 56.8372 83.8656 56.8907 85.8603 56.8758C85.8653 56.9293 85.8714 56.9848 85.8775 57.0412C85.914 57.4305 85.9893 57.8154 86.1023 58.1903C86.3514 58.9293 86.4668 62.1745 86.4668 62.1745C86.4668 62.1745 86.7898 64.8442 86.6136 65.9319C86.5124 66.5362 86.4273 67.1424 86.3716 67.7516V67.7635C86.3716 67.7635 85.8431 69.2385 85.4603 70.0419C85.4502 70.0627 85.4411 70.0825 85.431 70.1023C85.3274 70.1116 85.2254 70.1332 85.1272 70.1667C85.1272 70.1667 84.6098 71.1811 84.0914 71.3475C83.573 71.5139 83.7461 72.0667 84.9166 71.8636C86.0871 71.6605 87.8529 71.4951 87.8529 71.4951L87.9299 70.4619L88.2894 70.0221L88.1982 71.0523L88.582 70.979L88.5313 69.7249L89.1196 69.0047C89.1196 69.0047 89.8284 68.3866 88.7744 67.1701V67.1959C88.7632 67.1781 88.7521 67.1602 88.7399 67.1434V67.1374C88.5658 66.872 88.426 66.3777 88.6812 65.5C89.1419 63.915 89.4102 62.4757 89.4102 62.4757C89.4102 62.4757 90.44 58.6212 89.2016 56.7966H89.2573C89.1303 56.5399 89.0403 56.2672 88.99 55.9862C88.984 55.9526 88.9789 55.9179 88.9728 55.8872C89.8841 55.8357 90.7883 55.6732 91.5204 55.3245C91.5123 55.3136 91.0718 46.1644 90.7073 44.7072ZM79.0803 38.3278V38.3456L78.891 38.3545L79.0803 38.3278ZM78.4354 38.4149C78.4042 38.4214 78.3751 38.435 78.3503 38.4546C78.2696 38.5667 78.2188 38.6968 78.2025 38.833L77.9088 38.7676C77.9088 38.7676 77.7063 38.725 77.4026 38.6775L77.2618 38.5398C77.6527 38.5041 78.0536 38.4615 78.4354 38.4149Z" fill="url(#paint0_linear)"/>
<path d="M88.1515 69.734L88.0391 71.0396L88.4147 70.9654L88.358 69.5508L88.1515 69.734Z" fill="#1D2366"/>
<path d="M79.585 63.5404C79.1324 64.8015 79.262 66.5043 79.3632 67.3315C79.4007 67.6376 79.4351 67.8268 79.4351 67.8268C79.4351 67.8268 78.7587 69.3345 78.702 69.3899C78.6453 69.4454 76.7094 70.6004 76.7094 70.6004L75.3566 71.3721C75.3566 71.3721 73.9847 70.7837 74.6479 70.5796C74.7821 70.5268 74.903 70.446 75.0023 70.3429C75.6584 69.7307 76.4897 68.2081 76.4897 68.2081C76.4897 68.2081 76.5454 67.4365 76.7519 67.0689C76.9585 66.7014 76.8835 62.8411 76.8835 62.8411L76.9008 56.5468V55.7266L79.4746 55.7454C79.4912 56.024 79.5284 56.3011 79.586 56.5745C79.6787 57.0456 79.7984 57.5113 79.9444 57.9693C80.392 59.4066 80.2046 61.8118 79.585 63.5404Z" fill="#FFB0B1"/>
<path opacity="0.1" d="M79.4341 67.8273C79.4341 67.8273 78.7577 69.335 78.701 69.3905C78.6443 69.446 76.7094 70.601 76.7094 70.601L75.3566 71.3727C75.3566 71.3727 73.9847 70.7843 74.6479 70.5802C74.7821 70.5273 74.903 70.4466 75.0023 70.3435L75.061 70.7456L75.5126 70.7268L79.3632 67.332C79.3997 67.6371 79.4341 67.8273 79.4341 67.8273Z" fill="black"/>
<path d="M79.3875 67.418L75.5075 70.8375L75.0559 70.8554L74.9628 70.2125C74.9628 70.2125 74.173 71.2031 72.4254 71.1496C72.4254 71.1496 71.3733 71.8301 72.9316 71.8668C74.4899 71.9034 76.4836 71.8113 76.4836 71.8113C76.4836 71.8113 77.8738 69.6973 79.0382 69.9737V71.5726H79.3956V69.9549C79.5619 69.8453 79.7037 69.704 79.8127 69.5394C79.9216 69.3747 79.9954 69.1902 80.0295 68.997C80.0606 68.7979 80.0388 68.5943 79.966 68.4059C79.8933 68.2174 79.7722 68.0505 79.6143 67.9212C79.5434 67.8569 79.4868 67.7791 79.4478 67.6925C79.4088 67.606 79.3883 67.5125 79.3875 67.418Z" fill="#282C35"/>
<path d="M88.5098 65.5058C88.2597 66.3805 88.3964 66.8728 88.5665 67.1373V67.1432C88.7877 67.4706 88.9414 67.837 89.0191 68.222L89.0353 68.3052L87.2694 70.8233L86.3115 71.1908C86.3115 71.1908 84.7704 70.6767 85.0519 70.5291C85.1228 70.4925 85.2332 70.3023 85.3557 70.0338C85.7334 69.2413 86.2518 67.7693 86.2518 67.7693V67.7564C86.3055 67.1492 86.3925 66.5449 86.4887 65.9426C86.6609 64.8599 86.3449 62.1991 86.3449 62.1991C86.3449 62.1991 86.2325 58.9648 85.9875 58.2288C85.8773 57.8548 85.8038 57.4713 85.7678 57.0837C85.7172 56.6211 85.706 56.2436 85.706 56.2436C85.706 56.2436 86.7186 54.8647 88.5806 56.3536C88.7288 56.4731 88.8593 56.6121 88.9684 56.7667C90.2533 58.5498 89.2195 62.4933 89.2195 62.4933C89.2195 62.4933 88.9603 63.9258 88.5098 65.5058Z" fill="#FFB0B1"/>
<path opacity="0.1" d="M89.0352 68.3001L87.2694 70.8182L86.3115 71.1857C86.3115 71.1857 84.7704 70.6716 85.0519 70.524C85.1228 70.4873 85.2332 70.2971 85.3557 70.0287C86.0078 70.0287 86.346 70.6309 86.346 70.6309L87.1722 70.5032C87.1722 70.5032 88.2627 68.407 88.5067 68.2793C88.7507 68.1515 88.5442 67.3223 88.5442 67.3223V67.1113L88.5634 67.1341V67.1401C88.7861 67.4681 88.9409 67.8356 89.019 68.2218L89.0352 68.3001Z" fill="black"/>
<path d="M86.4042 70.6895C86.4042 70.6895 85.9343 69.8445 85.0332 70.1566C85.0332 70.1566 84.5269 71.168 84.0207 71.3334C83.5144 71.4988 83.6825 72.0496 84.8307 71.8475C85.9789 71.6455 87.7053 71.48 87.7053 71.48L87.7802 70.4508L88.9446 68.9986C88.9446 68.9986 89.6402 68.3824 88.6064 67.1699V67.3809C88.6064 67.3809 88.8089 68.2081 88.569 68.3368C88.329 68.4656 87.2355 70.5607 87.2355 70.5607L86.4042 70.6895Z" fill="#282C35"/>
<path opacity="0.1" d="M79.4724 55.7454C79.489 56.024 79.5262 56.3011 79.5837 56.5745C78.5236 56.422 77.5405 56.4982 76.8965 56.5468V55.7266L79.4724 55.7454Z" fill="black"/>
<path opacity="0.1" d="M89.0716 56.9955C89.0716 56.9955 87.565 57.0669 85.7707 57.0817C85.7201 56.6191 85.709 56.2417 85.709 56.2417C85.709 56.2417 86.7215 54.8628 88.5836 56.3516C88.7317 56.4712 88.8622 56.6102 88.9714 56.7647C89.0007 56.8433 89.0341 56.9203 89.0716 56.9955Z" fill="black"/>
<path d="M89.0727 56.8302C89.0727 56.8302 82.4781 57.1422 80.4662 56.5914C78.4543 56.0407 76.4647 56.5171 76.164 56.3884C75.8632 56.2596 76.1083 54.2566 76.3665 53.7603C76.6247 53.264 78.0766 48.2456 78.0766 48.2456L79.4668 41.1499L80.933 40.7537L81.0342 40.726L83.5868 40.0326L85.459 39.5273C85.459 39.5273 89.1791 53.7365 88.8591 54.7826C88.7432 55.184 88.7248 55.6063 88.8054 56.0159C88.8555 56.2981 88.9455 56.5722 89.0727 56.8302Z" fill="#282C35"/>
<path d="M74.6263 36.2969C74.6263 36.2969 73.31 37.6758 74.3064 38.4475C75.3027 39.2191 75.9599 38.5218 75.9599 38.5218L74.6263 36.2969Z" fill="#C7DAF5"/>
<path opacity="0.1" d="M74.6263 36.2969C74.6263 36.2969 73.31 37.6758 74.3064 38.4475C75.3027 39.2191 75.9599 38.5218 75.9599 38.5218L74.6263 36.2969Z" fill="black"/>
<path d="M85.2701 27.2184C85.2701 27.2184 85.1162 27.361 84.8833 27.574C84.5522 27.8761 84.0621 28.3189 83.6267 28.6904C83.0192 29.2035 82.5281 29.5819 82.7053 29.258C82.8825 28.9341 82.8491 28.3774 82.761 27.8533L82.7428 27.7493C82.6693 27.3645 82.5719 26.9844 82.4512 26.6111C82.4512 26.6111 83.4242 25.3808 83.9629 24.8954C84.1654 24.7141 84.3041 24.6369 84.3112 24.7637C84.3213 24.936 84.454 25.3125 84.615 25.7206C84.621 25.7325 84.6261 25.7453 84.6312 25.7572C84.7405 26.0316 84.863 26.3179 84.9714 26.5626C85.1364 26.938 85.2701 27.2184 85.2701 27.2184Z" fill="#FFB0B1"/>
<path opacity="0.1" d="M84.6302 25.7573C84.5387 26.2386 84.3168 26.687 83.9876 27.0557C83.6585 27.4244 83.2342 27.6999 82.7591 27.8534C82.6846 27.433 82.581 27.018 82.4492 26.6112C82.4492 26.6112 84.2809 24.2952 84.3093 24.7638C84.3265 24.9421 84.4622 25.3363 84.6302 25.7573Z" fill="black"/>
<path opacity="0.1" d="M82.5764 28.4724L82.8133 28.1465C82.8133 28.1465 82.9702 29.0836 83.5484 28.6705C84.1266 28.2574 84.1559 31.781 84.1559 31.781L83.5342 40.8529L79.0527 40.5904L79.1793 36.207L79.6856 34.0009L80.9401 30.7884L81.6914 29.7275L82.5764 28.4724Z" fill="black"/>
<path d="M84.155 31.8367L83.594 40.0389L83.5353 40.9076L81.0364 40.762L80.9351 40.7561L79.0508 40.6461L79.1773 36.2617L79.6836 34.0566L80.9381 30.8441L81.6925 29.7822L82.5805 28.5281L82.8174 28.2012C82.8174 28.2012 82.9744 29.1393 83.5525 28.7252L83.5636 28.7173C84.1276 28.3626 84.155 31.8367 84.155 31.8367Z" fill="#282C35"/>
<path d="M79.7531 33.2832C79.7531 33.2832 79.5283 33.7428 79.0767 33.6695C78.6251 33.5962 78.6261 35.3238 78.6261 35.3238C78.6261 35.3238 78.3224 35.5992 78.1198 35.3605C77.9173 35.1218 77.3685 35.9301 77.3685 35.9301L73.9492 36.0777C73.9492 36.0777 75.468 36.7572 75.1703 38.8167C75.1703 38.8167 80.3343 38.5037 80.5064 38.0242C80.6785 37.5448 79.7531 33.2832 79.7531 33.2832Z" fill="white"/>
<path opacity="0.03" d="M79.7531 33.2832C79.7531 33.2832 79.5283 33.7428 79.0767 33.6695C78.6251 33.5962 78.6261 35.3238 78.6261 35.3238C78.6261 35.3238 78.3224 35.5992 78.1198 35.3605C77.9173 35.1218 77.3685 35.9301 77.3685 35.9301L73.9492 36.0777C73.9492 36.0777 75.468 36.7572 75.1703 38.8167C75.1703 38.8167 80.3343 38.5037 80.5064 38.0242C80.6785 37.5448 79.7531 33.2832 79.7531 33.2832Z" fill="black"/>
<path d="M69.8145 37.1621L70.7166 37.916L78.1385 39.4415L77.2171 38.5232L69.8145 37.1621Z" fill="white"/>
<path d="M82.5913 28.7613C82.4688 28.9416 82.1164 29.8886 81.8207 30.7118C81.5757 31.3973 81.3702 31.9996 81.3702 31.9996C81.3702 31.9996 80.8912 35.0517 80.6472 35.6024C80.4032 36.1532 80.5348 38.3068 80.5348 38.3068L79.6235 43.6194C79.6235 43.6194 79.2104 46.3584 78.5725 47.9939C77.9468 49.5996 77.238 50.3555 77.2188 50.3782C77.5012 50.0048 79.0413 42.6407 79.0413 42.6407L79.5476 33.3567C79.5476 33.3567 79.6225 32.4751 79.6985 31.7213C79.7744 30.9674 81.2952 29.9382 81.2952 29.9382L82.7654 27.8926C82.9163 28.0937 82.8171 28.4305 82.5913 28.7613Z" fill="white"/>
<path d="M78.7568 40.6917C78.7568 40.6917 76.5961 40.6006 75.544 39.3682C74.492 38.1359 77.968 38.8729 77.968 38.8729L78.8692 39.0711L78.7568 40.6917Z" fill="#FFB0B1"/>
<path opacity="0.1" d="M88.8676 54.7905C88.7517 55.1919 88.7333 55.6142 88.8139 56.0238C86.4527 56.1882 83.9264 55.5622 83.9264 55.5622C83.4566 55.9852 82.2163 56.6102 82.2163 56.6102L81.5399 48.411C81.1085 47.3075 80.9395 41.5174 80.9395 41.5174C80.9395 41.5174 80.9779 41.2143 81.0407 40.7606C81.0407 40.7497 81.0407 40.7378 81.0458 40.7269C81.2149 39.4589 81.552 37.0785 81.712 36.7566C81.9378 36.3158 81.0174 35.1399 81.0174 35.1399L81.4356 31.6451L81.4862 31.2241C82.3702 30.8377 83.0465 29.6064 83.0465 29.6064L83.565 28.7149C84.131 28.3602 84.1583 31.8343 84.1583 31.8343L83.5974 40.0365L85.4695 39.5312C85.4695 39.5312 89.1866 53.7424 88.8676 54.7905Z" fill="black"/>
<path d="M91.2886 55.3592C88.7147 56.6094 84.0358 55.4513 84.0358 55.4513C83.566 55.8743 82.3256 56.4994 82.3256 56.4994L81.6493 48.3002C81.2179 47.1976 81.0488 41.4076 81.0488 41.4076C81.0488 41.4076 81.5936 37.0876 81.8184 36.6467C81.8842 36.518 81.8528 36.3268 81.7748 36.1207C81.3906 35.1387 81.2494 34.0816 81.3627 33.036L81.5429 31.5352L81.5936 31.1142C82.4765 30.7279 83.1529 29.4956 83.1529 29.4956L83.6237 28.6892L84.4904 27.2033L84.9005 26.5L84.9694 26.5614L85.502 27.0329C85.502 27.0329 85.7278 27.2152 86.0659 27.4956C86.8031 28.1028 88.0768 29.1726 88.733 29.8264C89.3111 30.404 89.4934 32.6457 89.543 34.3337C89.5784 35.4441 89.5572 36.3149 89.5572 36.3149C88.9739 37.252 90.4958 44.7895 90.4958 44.7895C90.8562 46.2417 91.2886 55.3592 91.2886 55.3592Z" fill="white"/>
<path opacity="0.03" d="M86.3509 29.4775C86.3509 29.4775 84.584 32.7682 84.7916 34.0174C84.9991 35.2665 85.5803 36.6831 85.2978 37.014C85.2012 37.1392 85.0762 37.2409 84.9327 37.3111C84.7892 37.3812 84.631 37.4178 84.4706 37.4181C84.1891 37.437 83.4368 37.9511 83.4368 38.0065C83.4368 38.062 82.7422 38.062 82.1205 38.3196C81.4988 38.5771 80.5794 38.7237 80.5794 38.7237C80.5794 38.7237 78.7943 38.6683 78.6252 38.8337C78.4562 38.9991 78.2871 39.9917 78.6445 40.7822C79.0019 41.5727 79.3958 42.1611 79.6965 42.2681C79.9972 42.3751 81.8947 41.754 83.4348 41.6064C84.9748 41.4588 86.6546 40.2681 86.6546 40.2681C86.6546 40.2681 88.4954 39.6242 88.8154 38.5395C89.1353 37.4548 88.4205 31.4993 88.4205 31.4993C88.4205 31.4993 87.8697 28.7236 86.3509 29.4775Z" fill="black"/>
<path opacity="0.03" d="M86.1233 29.2022C86.1233 29.2022 84.3575 32.4919 84.564 33.7421C84.7706 34.9922 85.3528 36.4078 85.0703 36.7386C84.9737 36.8639 84.8487 36.9656 84.7052 37.0357C84.5616 37.1058 84.4035 37.1425 84.2431 37.1428C83.9616 37.1616 83.2103 37.6757 83.2103 37.7312C83.2103 37.7867 82.5146 37.7857 81.894 38.0433C81.2733 38.3008 80.3529 38.4474 80.3529 38.4474C80.3529 38.4474 78.5678 38.3929 78.3987 38.5584C78.2296 38.7238 78.0605 39.7164 78.4179 40.5069C78.7753 41.2974 79.1692 41.8858 79.4699 41.9928C79.7707 42.0998 81.6682 41.4777 83.2092 41.3311C84.7503 41.1845 86.4241 39.9898 86.4241 39.9898C86.4241 39.9898 88.2649 39.3469 88.5848 38.2622C88.9048 37.1775 88.1899 31.222 88.1899 31.222C88.1899 31.222 87.6452 28.4483 86.1233 29.2022Z" fill="black"/>
<path d="M86.2923 29.3137C86.2923 29.3137 84.5275 32.6044 84.73 33.8496C84.9325 35.0948 85.5188 36.5153 85.2363 36.8462C85.1398 36.9716 85.0149 37.0735 84.8713 37.1436C84.7277 37.2137 84.5695 37.2503 84.409 37.2504C84.1275 37.2692 83.3762 37.7833 83.3762 37.8388C83.3762 37.8943 82.6806 37.8943 82.06 38.1518C81.4393 38.4094 80.5189 38.556 80.5189 38.556C80.5189 38.556 78.7338 38.5005 78.5647 38.6659C78.3956 38.8314 78.2265 39.8239 78.5839 40.6144C78.9414 41.4049 79.3352 41.9934 79.636 42.1003C79.9367 42.2073 81.8342 41.5862 83.3752 41.4386C84.9163 41.291 86.588 40.0973 86.588 40.0973C86.588 40.0973 88.4288 39.4535 88.7487 38.3687C89.0687 37.284 88.3538 31.3286 88.3538 31.3286C88.3538 31.3286 87.8142 28.5598 86.2923 29.3137Z" fill="white"/>
<path opacity="0.1" d="M86.2539 38.1365C86.2539 38.1365 84.8445 37.8611 85.3336 38.3208C85.8226 38.7804 85.8216 39.1846 86.423 39.1657C87.0245 39.1469 86.2539 38.1365 86.2539 38.1365Z" fill="black"/>
<path opacity="0.1" d="M88.6397 48.0449C88.6397 48.0449 88.0008 48.4679 89.2219 49.4417C90.4429 50.4155 88.6397 48.0449 88.6397 48.0449Z" fill="black"/>
<path opacity="0.1" d="M87.4197 51.5176C87.4197 51.5731 87.1949 53.5394 88.0404 54.0357C88.8859 54.532 87.4197 51.5176 87.4197 51.5176Z" fill="black"/>
<path d="M74.0046 36.0762C73.3241 36.099 71.8509 36.303 72.6143 37.6958C73.2897 38.9281 74.4238 38.1049 75.0587 37.4789C74.9037 36.8966 74.5265 36.3945 74.0046 36.0762Z" fill="#FFB0B1"/>
<path d="M75.0684 37.4683C75.0781 37.459 75.0868 37.4487 75.0956 37.4395C75.0868 37.4487 75.0781 37.459 75.0684 37.4683Z" fill="#FFB0B1"/>
<path opacity="0.1" d="M86.0679 27.5502C85.345 28.0336 84.7385 28.4417 84.621 28.5269C84.296 28.7607 83.6763 30.1396 83.2814 30.8429C82.9635 31.4095 81.9337 31.5552 81.5449 31.5908L81.5915 31.1738C82.4744 30.7884 83.1508 29.5561 83.1508 29.5561L84.8984 26.5605L85.4999 27.0935C85.4999 27.0935 85.7297 27.2708 86.0679 27.5502Z" fill="black"/>
<path d="M86.0679 27.4956C85.345 27.978 84.7385 28.3871 84.621 28.4713C84.296 28.7061 83.6763 30.084 83.2814 30.7873C82.9635 31.3539 81.9337 31.4996 81.5449 31.5352L81.5955 31.1142C82.4785 30.7279 83.1549 29.4956 83.1549 29.4956L84.9025 26.5L85.5039 27.0329C85.5039 27.0329 85.7297 27.2113 86.0679 27.4956Z" fill="#DCE7FF"/>
<path d="M84.6768 25.1495C84.6774 25.3413 84.6567 25.5326 84.615 25.7201C84.5397 26.0703 84.3938 26.4024 84.1857 26.6968C83.8075 27.235 83.2447 27.6227 82.5993 27.7895C81.9539 27.9564 81.2688 27.8914 80.6682 27.6064C80.0676 27.3213 79.5914 26.835 79.3259 26.2358C79.0604 25.6366 79.0233 24.9642 79.2212 24.3405C79.4192 23.7168 79.8391 23.1832 80.4048 22.8364C80.9705 22.4897 81.6444 22.3529 82.3044 22.4508C82.9644 22.5486 83.5667 22.8747 84.002 23.3699C84.4372 23.865 84.6766 24.4964 84.6768 25.1495Z" fill="#FFB0B1"/>
<path opacity="0.1" d="M89.5481 34.3346C89.1659 34.1045 88.8548 33.7771 88.6479 33.3876C88.491 33.0835 88.3867 32.7338 88.1174 32.5168C87.8764 32.3247 87.5503 32.2771 87.2516 32.1909C86.2624 31.9046 85.4291 31.02 85.4007 30.0116C85.3865 29.5371 85.5374 29.0626 85.4686 28.5931C85.4297 28.3266 85.3213 28.0745 85.1537 27.861C85.0718 27.7581 84.981 27.6624 84.8823 27.5747C84.7507 27.4529 84.612 27.335 84.4925 27.2052C84.415 27.1256 84.347 27.0375 84.29 26.9427C84.2454 26.865 84.2091 26.783 84.1816 26.6981C83.9974 26.1354 84.1644 25.4657 83.9579 24.8962C83.9579 24.8862 83.9508 24.8754 83.9467 24.8654C83.8677 24.6624 83.7088 24.4603 83.4891 24.4444C83.2693 24.4286 83.078 24.6079 82.8674 24.6891C82.4259 24.8565 81.949 24.5712 81.5814 24.28C81.2139 23.9888 80.7987 23.6559 80.3299 23.7213C80.0211 23.7639 79.7761 23.9709 79.4916 24.0779C79.4256 24.1015 79.3579 24.1201 79.2891 24.1334C79.5308 23.5452 79.9743 23.0577 80.5433 22.7545C81.1123 22.4512 81.7715 22.3512 82.4077 22.4715C83.0439 22.5918 83.6175 22.925 84.03 23.4138C84.4426 23.9027 84.6684 24.5168 84.6687 25.1507C84.6693 25.3426 84.6486 25.5339 84.6069 25.7213C84.613 25.7332 84.618 25.7461 84.6231 25.758C84.7325 26.0324 84.855 26.3187 84.9633 26.5633L85.4959 27.0349C85.4959 27.0349 85.7217 27.2171 86.0599 27.4975C86.797 28.1047 88.0708 29.1746 88.7269 29.8284C89.3132 30.4049 89.4954 32.6466 89.5481 34.3346Z" fill="black"/>
<path d="M79.4639 22.3957C79.5985 22.1272 79.6664 21.8271 79.8264 21.5735C80.0623 21.202 80.4754 20.9692 80.8976 20.8266C82.0033 20.4541 84.3402 19.9122 85.0379 20.8266C85.1756 21.0078 85.289 21.2159 85.4793 21.3437C85.6332 21.4256 85.7933 21.4958 85.9583 21.5537C86.4038 21.7587 86.6883 22.2035 86.8402 22.6612C86.9921 23.1188 87.0366 23.6042 87.1439 24.0738C87.2857 24.6741 87.5358 25.2437 87.7839 25.8103C88.0765 26.4789 88.3914 27.1714 88.9523 27.6449C89.7229 28.2898 89.896 29.2021 90.6078 29.9084C91.4553 30.7484 91.428 32.1343 90.9916 33.2339C90.9193 33.3729 90.8844 33.5277 90.8903 33.6836C90.9314 33.8428 91.0182 33.9872 91.1404 34.0996L91.6032 34.6108C91.0504 34.7275 90.4739 34.6649 89.9608 34.4326C89.4476 34.2002 89.0258 33.8107 88.7589 33.323C88.601 33.0189 88.4967 32.6692 88.2274 32.4533C87.9864 32.2601 87.6614 32.2135 87.3616 32.1264C86.3724 31.8401 85.5391 30.9555 85.5107 29.947C85.4966 29.4735 85.6474 28.998 85.5796 28.5285C85.5389 28.2654 85.431 28.0167 85.2657 27.8054C85.0055 27.4745 84.6156 27.2496 84.405 26.8871C84.0486 26.2719 84.319 25.4715 84.0618 24.8068C83.9828 24.6087 83.8249 24.4016 83.6041 24.3858C83.3834 24.3699 83.193 24.5502 82.9824 24.6305C82.541 24.7979 82.0651 24.5126 81.6975 24.2214C81.33 23.9301 80.9138 23.5983 80.446 23.6636C80.1362 23.7062 79.8922 23.9123 79.6066 24.0193C79.396 24.0985 78.9687 24.1698 78.7834 23.9955C78.3956 23.631 79.2978 22.7216 79.4639 22.3957Z" fill="#591D4B"/>
<path opacity="0.1" d="M89.0237 33.0188C88.8667 32.7147 88.7624 32.365 88.4931 32.1481C88.2521 31.9549 87.9261 31.9084 87.6274 31.8222C86.6381 31.5359 85.8048 30.6513 85.7765 29.6428C85.7613 29.1684 85.9131 28.6939 85.8443 28.2243C85.8055 27.9579 85.697 27.7057 85.5294 27.4923C85.2702 27.1614 84.8794 26.9355 84.6698 26.573C84.3123 25.9578 84.5837 25.1574 84.3265 24.4927C84.2475 24.2946 84.0896 24.0876 83.8688 24.0717C83.6481 24.0559 83.4577 24.2352 83.2471 24.3154C82.8057 24.4838 82.3288 24.1985 81.9622 23.9073C81.5957 23.616 81.1785 23.2842 80.7097 23.3486C80.406 23.3912 80.1569 23.5972 79.8713 23.7052C79.6607 23.7844 79.2335 23.8558 79.0482 23.6814C78.6604 23.3149 79.5625 22.4055 79.7255 22.0806C79.8602 21.8121 79.9281 21.512 80.088 21.2584L80.1154 21.2168C79.9963 21.3154 79.8938 21.4318 79.8116 21.5615C79.6496 21.8151 79.5828 22.1153 79.4491 22.3837C79.2861 22.7096 78.3839 23.619 78.7717 23.9845C78.956 24.1589 79.3793 24.0836 79.5949 24.0083C79.8795 23.9013 80.1235 23.6953 80.4333 23.6517C80.9011 23.5873 81.3172 23.9192 81.6848 24.2104C82.0523 24.5016 82.5293 24.7869 82.9697 24.6195C83.1813 24.5393 83.3656 24.358 83.5914 24.3748C83.8172 24.3917 83.9711 24.5928 84.0501 24.7958C84.3073 25.4566 84.0359 26.257 84.3923 26.8761C84.6029 27.2377 84.9938 27.4635 85.253 27.7944C85.4206 28.0078 85.529 28.26 85.5679 28.5264C85.6367 28.996 85.4848 29.4705 85.5 29.945C85.5314 30.9544 86.3617 31.839 87.3509 32.1243C87.6496 32.2105 87.9757 32.257 88.2167 32.4512C88.486 32.6672 88.5893 33.0168 88.7472 33.321C89.014 33.8087 89.4359 34.1982 89.9491 34.4305C90.4622 34.6628 91.0387 34.7254 91.5914 34.6087L91.3737 34.367C90.4179 34.3829 89.457 33.8539 89.0237 33.0188Z" fill="black"/>
<path opacity="0.1" d="M82.5354 28.817C82.4118 28.9973 82.0595 29.9443 81.7648 30.7665C81.4894 30.6625 81.2383 29.9929 81.2383 29.9929L82.7055 27.9473C82.8594 28.1493 82.7601 28.4862 82.5354 28.817Z" fill="black"/>
<path d="M82.589 28.7613C82.4665 28.9416 82.1142 29.8886 81.8185 30.7118C81.5431 30.6078 81.293 29.9382 81.293 29.9382L82.7632 27.8926C82.9141 28.0937 82.8148 28.4305 82.589 28.7613Z" fill="#DCE7FF"/>
<path d="M74.0436 38.168L73.2285 35.6568C73.2187 35.6273 73.215 35.5962 73.2176 35.5652C73.2201 35.5343 73.2289 35.5042 73.2434 35.4766C73.2579 35.4489 73.2778 35.4244 73.302 35.4043C73.3262 35.3843 73.3542 35.3691 73.3844 35.3596C73.4146 35.3498 73.4465 35.346 73.4782 35.3483C73.5099 35.3507 73.5408 35.3593 73.5691 35.3735C73.5974 35.3877 73.6225 35.4073 73.643 35.4311C73.6634 35.4549 73.6788 35.4825 73.6882 35.5122L74.5033 38.0254L74.4223 38.5514L74.0436 38.168Z" fill="#BE8B87"/>
<path opacity="0.1" d="M73.3073 35.4339C73.3375 35.4243 73.3694 35.4207 73.4011 35.4233C73.4327 35.4259 73.4636 35.4345 73.4918 35.4488C73.5201 35.4631 73.5451 35.4827 73.5656 35.5064C73.586 35.5302 73.6015 35.5577 73.611 35.5874L74.4261 38.0986L74.3644 38.4948L74.4241 38.5552L74.5051 38.0292L73.69 35.5181C73.6806 35.4883 73.6652 35.4608 73.6448 35.4369C73.6243 35.4131 73.5992 35.3935 73.5709 35.3793C73.5426 35.3651 73.5117 35.3566 73.48 35.3542C73.4483 35.3518 73.4164 35.3557 73.3863 35.3655C73.3355 35.3809 73.2916 35.4127 73.2617 35.4556C73.276 35.4468 73.2913 35.4395 73.3073 35.4339Z" fill="white"/>
<path d="M74.0449 38.168L74.5026 38.0254L74.4358 38.4573L74.4216 38.5514L74.2879 38.4147L74.0449 38.168Z" fill="#EFC8C4"/>
<path d="M74.2871 38.4146C74.2955 38.4051 74.3054 38.3971 74.3165 38.3908C74.323 38.3869 74.3305 38.3848 74.3382 38.3848C74.3459 38.3848 74.3535 38.3869 74.36 38.3908C74.3666 38.3982 74.3721 38.4066 74.3762 38.4156C74.3823 38.426 74.3908 38.4349 74.4009 38.4416C74.4111 38.4483 74.4228 38.4526 74.4349 38.4542L74.4207 38.5533L74.2871 38.4146Z" fill="#727A9C"/>
<path d="M73.2246 36.5469C73.2246 36.5469 74.8599 36.538 74.4741 37.2175C74.0883 37.8971 73.4879 37.9803 73.4879 37.9803L73.2246 36.5469Z" fill="#FFB0B1"/>
</g>
<defs>
<linearGradient id="paint0_linear" x1="80.7085" y1="71.9032" x2="80.7085" y2="20.1581" gradientUnits="userSpaceOnUse">
<stop stop-color="#808080" stop-opacity="0.25"/>
<stop offset="0.54" stop-color="#808080" stop-opacity="0.12"/>
<stop offset="1" stop-color="#808080" stop-opacity="0.1"/>
</linearGradient>
<clipPath id="clip0">
<rect width="100" height="78" fill="white"/>
</clipPath>
</defs>
</svg>
