<svg width="130" height="58" viewBox="0 0 130 58" fill="none" xmlns="http://www.w3.org/2000/svg">
<path d="M109.086 9.1412H117.23V4.62012C117.23 4.57957 117.229 4.53988 117.228 4.49789C117.215 3.30149 116.781 2.159 116.019 1.31734C115.257 0.475686 114.23 0.0024791 113.158 4.13248e-06C112.622 -0.000809294 112.091 0.11847 111.596 0.350789C111.102 0.583109 110.654 0.923754 110.279 1.35258C110.134 1.51698 110 1.69345 109.879 1.88046C109.361 2.67636 109.083 3.63599 109.086 4.62012V9.1412Z" fill="#2F2E41"/>
<path d="M71.0782 57.727C72.9024 57.727 74.3811 56.076 74.3811 54.0393C74.3811 52.0026 72.9024 50.3516 71.0782 50.3516C69.2541 50.3516 67.7754 52.0026 67.7754 54.0393C67.7754 56.076 69.2541 57.727 71.0782 57.727Z" fill="#868EA1"/>
<path d="M82.7032 57.727C84.5273 57.727 86.0061 56.076 86.0061 54.0393C86.0061 52.0026 84.5273 50.3516 82.7032 50.3516C80.8791 50.3516 79.4004 52.0026 79.4004 54.0393C79.4004 56.076 80.8791 57.727 82.7032 57.727Z" fill="#868EA1"/>
<path d="M94.3302 57.727C96.1543 57.727 97.633 56.076 97.633 54.0393C97.633 52.0026 96.1543 50.3516 94.3302 50.3516C92.5061 50.3516 91.0273 52.0026 91.0273 54.0393C91.0273 56.076 92.5061 57.727 94.3302 57.727Z" fill="#868EA1"/>
<path d="M27.7405 48.9655H11.6491L8.31977 57.5875H2.30859L17.1978 20.8281H22.053L36.9885 57.5875H31.0235L27.7405 48.9655ZM25.7522 43.8027L19.6948 28.0561L13.6374 43.8027H25.7522Z" fill="#F9A826"/>
<path d="M62.4664 31.5149V57.5872H56.7789V53.4052C56.0789 54.8407 55.0181 56.0162 53.7272 56.787C52.4014 57.5952 50.8909 57.9996 49.1957 58.0002C47.1611 58.0002 45.3577 57.4495 43.7856 56.3482C42.2134 55.247 40.9957 53.681 40.1326 51.6499C39.2692 49.6195 38.8376 47.2618 38.8379 44.5768C38.8379 41.8923 39.2772 39.5088 40.1557 37.4264C41.0343 35.3442 42.2596 33.7265 43.8318 32.5732C45.404 31.4205 47.1919 30.844 49.1957 30.8438C50.8906 30.8438 52.4011 31.2482 53.7272 32.057C55.0179 32.8279 56.0787 34.0034 56.7789 35.4387V31.5149H62.4664ZM55.2069 50.7206C56.2545 49.2412 56.7785 47.1589 56.7789 44.4737C56.7789 41.7203 56.2549 39.6035 55.2069 38.1233C54.1585 36.6439 52.6634 35.9039 50.7216 35.9033C48.8098 35.9033 47.3224 36.6691 46.2594 38.2008C45.1959 39.7326 44.6641 41.858 44.6641 44.5768C44.6641 47.2615 45.1958 49.3266 46.2594 50.7722C47.3229 52.2179 48.8257 52.9407 50.7678 52.9406C52.6788 52.9406 54.1585 52.2006 55.2069 50.7206Z" fill="#F9A826"/>
<path d="M130 57.4316H0V57.7267H130V57.4316Z" fill="#3F3D56"/>
<path d="M118.852 27.0941C119.167 27.4648 119.647 32.023 121.069 31.3304C122.218 29.8822 120.287 27.0053 120.09 26.3945L118.852 27.0941Z" fill="#FFB8B8"/>
<path d="M117.057 21.2109L120.553 26.4441L118.885 27.8633L116.422 23.9605L117.057 21.2109Z" fill="#F9A826"/>
<path d="M111.577 22.0098C111.577 22.0098 109.194 27.0655 111.101 29.9925C113.007 32.9195 116.979 39.3058 116.979 39.3058C117.556 44.786 118.654 50.0077 121.678 54.431L123.679 53.8184L120.792 38.064C120.792 38.064 119.203 28.8395 117.376 26.5333L117.054 22.1265L111.577 22.0098Z" fill="#2F2E41"/>
<path d="M111.498 29.4609L109.909 38.242C108.554 39.1922 105.736 48.647 104.635 51.924L106.784 52.8163C109.154 48.6379 114.613 37.6676 115.867 33.0088L111.498 29.4609Z" fill="#2F2E41"/>
<path d="M116.899 4.26932C116.836 8.35006 111.4 8.34942 111.338 4.26919C111.4 0.188576 116.837 0.189214 116.899 4.26932Z" fill="#FFB8B8"/>
<path d="M114.914 6.39903C113.51 8.74996 113.547 9.56428 115.232 11.7209L112.69 9.68083C112.69 9.68083 110.862 9.68083 111.26 8.70516C111.657 7.72949 112.451 5.68945 112.451 5.68945L114.914 6.39903Z" fill="#FFB8B8"/>
<path d="M113.483 9.85883C113.483 9.85883 111.656 8.35097 110.782 9.32664C109.914 11.1838 110.788 19.3203 111.1 19.9703C111.497 20.6799 111.577 20.059 111.497 20.8573C111.418 21.6556 111.1 22.2765 111.18 22.3652C111.259 22.4538 117.376 23.1634 117.376 23.1634C117.376 23.1634 116.899 20.6799 117.058 19.7042C117.217 18.7286 116.899 17.7529 116.899 17.3981C116.899 17.0433 117.376 15.5355 116.899 14.3824C116.423 13.2293 114.637 10.8577 114.637 10.8577L114.516 11.0119L113.483 9.85883Z" fill="#F9A826"/>
<path d="M108.875 28.9285C109.05 29.4805 107.653 34.5029 109.431 34.5166C111.237 33.5972 110.415 29.5815 110.464 28.8398L108.875 28.9285Z" fill="#FFB8B8"/>
<path d="M111.101 9.41406C111.101 9.41406 109.035 9.50276 109.035 12.2524C109.035 15.002 108.32 19.8804 108.32 19.8804V29.371H111.021L110.624 20.4125L112.292 14.5585C112.292 14.5585 114.437 10.8332 111.101 9.41406Z" fill="#F9A826"/>
<path d="M127.182 56.5485C127.21 56.3289 127.181 56.1051 127.099 55.9033C127.017 55.7016 126.884 55.5305 126.717 55.4102L123.734 53.7754L121.484 54.0924L120.953 56.2189C120.931 56.3704 120.936 56.5254 120.969 56.6745C121.002 56.8236 121.062 56.9637 121.145 57.0862C121.227 57.2087 121.332 57.3111 121.451 57.3871C121.571 57.4631 121.703 57.5111 121.84 57.5283L126.037 57.5385C126.306 57.5723 126.576 57.4877 126.79 57.3029C127.003 57.118 127.144 56.8474 127.182 56.5485Z" fill="#2F2E41"/>
<path d="M107.672 57.2706C107.831 57.1374 107.953 56.9562 108.022 56.7485C108.091 56.5408 108.106 56.3152 108.064 56.0984L106.99 52.5869L105.199 51.0352L103.476 52.1193C103.364 52.2087 103.27 52.3226 103.199 52.454C103.128 52.5854 103.081 52.7317 103.062 52.8838C103.043 53.0359 103.052 53.1907 103.089 53.3388C103.125 53.4869 103.188 53.6252 103.274 53.7452L106.236 57.0664C106.404 57.3024 106.649 57.4558 106.917 57.4939C107.185 57.532 107.456 57.4519 107.672 57.2706Z" fill="#2F2E41"/>
<path d="M110.947 1.80167L111.689 4.43739L118.104 4.31009C118.082 3.38792 117.803 2.49642 117.305 1.76013C116.807 1.02384 116.116 0.479535 115.328 0.203245C114.539 -0.0730443 113.694 -0.0675189 112.908 0.219051C112.123 0.50562 111.437 1.05892 110.947 1.80166L110.947 1.80167Z" fill="#2F2E41"/>
</svg>
