<svg width="508" height="338" viewBox="0 0 508 338" fill="none" xmlns="http://www.w3.org/2000/svg">
<path d="M103.029 274.456C111.482 268.933 113.629 258.354 113.541 248.768C113.541 247.173 113.745 245.496 113.006 244.077C112.268 242.657 110.5 241.663 109.03 242.299C107.818 242.826 107.263 244.191 106.558 245.314C105.619 246.816 104.273 248.023 102.677 248.795C101.634 249.295 100.354 249.586 99.3512 249.011C97.9966 248.22 97.8543 246.307 97.9017 244.732C97.9966 241.776 98.0869 238.822 98.1727 235.87C98.3115 234.283 98.1879 232.685 97.8069 231.138C97.6049 230.372 97.2222 229.666 96.6908 229.078C96.1594 228.49 95.4946 228.037 94.7522 227.758C93.2282 227.298 91.3181 228.123 90.9523 229.664C90.8765 230.319 90.8448 230.979 90.8575 231.638C90.8588 231.969 90.7617 232.293 90.5784 232.568C90.3951 232.844 90.1339 233.059 89.8279 233.186C89.495 233.217 89.1598 233.162 88.854 233.027C88.5482 232.892 88.2819 232.682 88.0804 232.416C86.5383 230.694 85.289 228.733 84.3822 226.609C83.4767 224.488 82.3217 222.482 80.9413 220.633C79.4783 218.848 77.426 217.415 75.123 217.253C72.8201 217.091 70.3343 218.416 69.7044 220.633C69.0745 222.85 70.3343 225.155 71.7364 226.994C73.8114 229.735 76.273 232.163 79.0448 234.2C79.5844 234.511 80.0114 234.984 80.264 235.552C80.5823 236.62 79.5392 237.641 78.4758 237.966C77.2634 238.331 75.9629 238.175 74.7099 238.29C73.4568 238.405 72.075 238.919 71.5738 240.075C70.8965 241.684 72.2105 243.414 73.5313 244.557C76.1954 246.855 79.2328 248.684 82.5127 249.965C83.7222 250.325 84.856 250.903 85.8588 251.668C86.7935 252.506 87.3354 253.946 86.7325 255.048C86.1297 256.15 84.6396 256.474 83.4 256.218C82.2049 255.862 81.0424 255.405 79.9253 254.852C77.7308 253.98 74.8724 254.061 73.4094 255.913C72.9576 256.546 72.661 257.275 72.5433 258.043C72.4257 258.811 72.4903 259.596 72.732 260.334C73.238 261.803 74.035 263.155 75.0756 264.309C78.4912 268.552 82.971 271.817 88.0601 273.773C93.1469 275.653 97.895 276.241 103.036 274.524" fill="#F58E08"/>
<path d="M72.075 218.544L72.2308 218.699L72.6982 219.125C73.1114 219.504 73.7142 220.058 74.4796 220.795C76.6395 222.872 78.641 225.106 80.4672 227.481C81.6254 228.975 82.8311 230.671 84.0909 232.51C85.3508 234.349 86.6716 236.336 87.9924 238.466C89.3854 240.683 90.6539 242.976 91.7922 245.334C92.3883 246.557 92.9098 247.842 93.4381 249.147C93.9664 250.451 94.5083 251.776 95.0502 253.121C97.1268 258.145 98.9155 263.281 100.408 268.507C101.609 272.781 102.4 277.158 102.772 281.581C103.015 284.563 102.992 287.56 102.704 290.538C102.596 291.586 102.494 292.404 102.406 292.958C102.365 293.222 102.338 293.431 102.311 293.587C102.307 293.659 102.307 293.731 102.311 293.803C102.334 293.735 102.352 293.665 102.365 293.594C102.365 293.438 102.433 293.228 102.481 292.965C102.589 292.417 102.711 291.613 102.84 290.552C103.172 287.568 103.226 284.561 103.002 281.567C102.662 277.127 101.888 272.73 100.692 268.44C99.2105 263.197 97.4261 258.044 95.3482 253.006C94.7973 251.654 94.26 250.332 93.7362 249.038C93.2011 247.734 92.6727 246.443 92.0767 245.205C90.9272 242.84 89.6473 240.541 88.243 238.317C86.8883 236.188 85.5743 234.214 84.3145 232.375C83.0546 230.536 81.8286 228.846 80.6501 227.352C78.7967 224.983 76.7583 222.763 74.5541 220.714C73.7751 219.991 73.152 219.443 72.7253 219.085L72.2444 218.672C72.136 218.585 72.0818 218.537 72.075 218.544Z" fill="#263238"/>
<path d="M91.9751 245.192C92.0556 244.973 92.1123 244.747 92.1444 244.516C92.2392 244.077 92.3612 243.448 92.4899 242.657C92.754 241.082 93.052 238.898 93.3636 236.492C93.6752 234.085 94.0003 231.909 94.2916 230.34C94.4338 229.563 94.5557 228.927 94.6438 228.488C94.7049 228.267 94.7413 228.041 94.7522 227.812C94.6496 228.027 94.5745 228.254 94.5286 228.488C94.4067 228.914 94.2509 229.543 94.0816 230.32C93.7429 231.882 93.4043 234.058 93.0724 236.472C92.7405 238.885 92.4899 241.001 92.2867 242.65C92.1851 243.387 92.097 244.002 92.036 244.516C91.9896 244.738 91.9691 244.965 91.9751 245.192Z" fill="#263238"/>
<path d="M71.3774 240.893C71.6464 240.956 71.9208 240.995 72.197 241.007C72.7253 241.068 73.4974 241.149 74.4389 241.285C76.3287 241.528 78.9297 241.961 81.7745 242.556C84.6193 243.15 87.1931 243.82 89.0016 244.34C89.9228 244.597 90.6611 244.827 91.1691 244.982C91.4298 245.08 91.6999 245.15 91.9751 245.192C91.7277 245.068 91.472 244.962 91.2097 244.874C90.7085 244.685 89.977 244.428 89.0626 244.144C87.2405 243.563 84.687 242.873 81.8354 242.272C79.4007 241.749 76.9411 241.35 74.466 241.075C73.511 240.967 72.7388 240.92 72.2105 240.899C71.9337 240.869 71.6546 240.867 71.3774 240.893Z" fill="#263238"/>
<path d="M100.428 268.054C100.488 267.98 100.538 267.898 100.577 267.811L100.95 267.081C101.268 266.445 101.708 265.519 102.237 264.377C103.293 262.065 104.648 258.827 106.091 255.237C107.533 251.648 108.868 248.396 109.87 246.071L111.069 243.313L111.394 242.562C111.462 242.387 111.496 242.292 111.482 242.292C111.427 242.368 111.379 242.449 111.34 242.535L110.968 243.265C110.642 243.901 110.209 244.827 109.681 245.969C108.624 248.281 107.269 251.519 105.82 255.109C104.37 258.698 103.049 261.95 102.04 264.275C101.553 265.411 101.146 266.344 100.841 267.033L100.523 267.784C100.48 267.87 100.448 267.96 100.428 268.054Z" fill="#263238"/>
<path d="M73.152 258.671C73.152 258.671 73.2401 258.725 73.4162 258.793L74.2086 259.07L77.1347 260.084C79.6002 260.936 82.9937 262.153 86.7393 263.505C90.485 264.857 93.8919 266.04 96.3778 266.844C97.624 267.25 98.6265 267.561 99.3309 267.764L100.137 267.993C100.327 268.048 100.428 268.068 100.428 268.054C100.342 268.007 100.251 267.968 100.157 267.939L99.3648 267.655L96.4455 266.648C93.98 265.796 90.5866 264.58 86.8409 263.228C83.0953 261.876 79.6815 260.686 77.2025 259.881C75.9562 259.483 74.9469 259.165 74.2493 258.962L73.4365 258.732C73.3439 258.703 73.2486 258.682 73.152 258.671Z" fill="#263238"/>
<path d="M377.898 203.124L337.034 202.935C335.865 202.933 334.707 202.699 333.628 202.249C332.549 201.799 331.57 201.14 330.747 200.311C329.924 199.482 329.273 198.498 328.831 197.417C328.39 196.337 328.167 195.179 328.175 194.012L328.608 92.0509C328.614 90.8856 328.851 89.733 329.303 88.6589C329.756 87.5847 330.417 86.6102 331.247 85.7909C332.077 84.9716 333.061 84.3237 334.143 83.8841C335.224 83.4446 336.381 83.222 337.549 83.2291L378.413 83.4116C380.77 83.4206 383.027 84.3622 384.689 86.03C386.351 87.6978 387.283 89.9555 387.279 92.3078L386.845 194.276C386.842 195.444 386.607 196.599 386.156 197.677C385.704 198.754 385.043 199.731 384.212 200.554C383.381 201.376 382.395 202.026 381.312 202.467C380.228 202.908 379.068 203.132 377.898 203.124Z" fill="#455A64"/>
<path d="M378.358 86.9606H370.434C370.176 86.9641 369.922 87.0184 369.685 87.1203C369.448 87.2221 369.234 87.3696 369.055 87.5543C368.876 87.7389 368.735 87.9571 368.64 88.1963C368.545 88.4355 368.499 88.6909 368.503 88.9481V90.3812C368.509 90.9001 368.309 91.4003 367.948 91.7735C367.587 92.1467 367.093 92.363 366.573 92.3754L351.123 92.301C350.863 92.2949 350.608 92.2374 350.371 92.1318C350.134 92.0262 349.92 91.8747 349.743 91.686C349.565 91.4973 349.426 91.2752 349.335 91.0326C349.245 90.79 349.203 90.5318 349.213 90.273V88.8264C349.222 88.5678 349.179 88.31 349.088 88.0678C348.997 87.8256 348.858 87.6039 348.681 87.4154C348.503 87.2268 348.29 87.0753 348.054 86.9694C347.817 86.8635 347.562 86.8054 347.303 86.7984H344.512H337.576C336.759 86.7939 335.948 86.9502 335.192 87.2583C334.435 87.5664 333.746 88.0203 333.165 88.594C332.584 89.1678 332.121 89.8501 331.804 90.6022C331.487 91.3542 331.322 92.1612 331.318 92.977L330.891 192.504C330.887 194.153 331.539 195.735 332.704 196.904C333.869 198.072 335.451 198.732 337.102 198.737L377.884 198.926C379.535 198.934 381.122 198.287 382.296 197.129C383.471 195.971 384.137 194.396 384.15 192.748L384.57 93.2204C384.576 92.4017 384.42 91.5899 384.111 90.8316C383.802 90.0733 383.345 89.3834 382.768 88.8017C382.191 88.22 381.504 87.7578 380.747 87.4419C379.991 87.1259 379.179 86.9624 378.358 86.9606Z" fill="white"/>
<path d="M377.688 154.682H337.332V157.38H377.688V154.682Z" fill="#455A64"/>
<path d="M376.252 165.289C376.252 165.383 367.636 165.464 357.016 165.464C346.395 165.464 337.773 165.383 337.773 165.289C337.773 165.194 346.388 165.113 357.016 165.113C367.643 165.113 376.252 165.194 376.252 165.289Z" fill="#455A64"/>
<path d="M376.252 101.4C376.252 101.501 367.636 101.576 357.016 101.576C346.395 101.576 337.773 101.501 337.773 101.4C337.773 101.299 346.388 101.224 357.016 101.224C367.643 101.224 376.252 101.285 376.252 101.4Z" fill="#455A64"/>
<path d="M376.252 170.197C376.252 170.291 367.636 170.372 357.016 170.372C346.395 170.372 337.773 170.291 337.773 170.197C337.773 170.102 346.388 170.021 357.016 170.021C367.643 170.021 376.252 170.095 376.252 170.197Z" fill="#455A64"/>
<path d="M376.252 175.084C376.252 175.179 367.636 175.26 357.016 175.26C346.395 175.26 337.773 175.179 337.773 175.084C337.773 174.989 346.388 174.908 357.016 174.908C367.643 174.908 376.252 175.003 376.252 175.084Z" fill="#455A64"/>
<path d="M376.252 180.005C376.252 180.1 367.636 180.181 357.016 180.181C346.395 180.181 337.773 180.1 337.773 180.005C337.773 179.911 346.388 179.83 357.016 179.83C367.643 179.83 376.252 179.904 376.252 180.005Z" fill="#455A64"/>
<path d="M376.252 184.906C376.252 185.008 367.636 185.082 357.016 185.082C346.395 185.082 337.773 185.008 337.773 184.906C337.773 184.805 346.388 184.731 357.016 184.731C367.643 184.731 376.252 184.812 376.252 184.906Z" fill="#455A64"/>
<path d="M376.801 190.47C376.801 190.564 368.185 190.646 357.564 190.646C346.944 190.646 338.321 190.564 338.321 190.47C338.321 190.375 346.937 190.294 357.564 190.294C368.192 190.294 376.801 190.368 376.801 190.47Z" fill="#455A64"/>
<path d="M378.23 106.977H337.773V146.043H378.23V106.977Z" fill="#E0E0E0"/>
<path d="M340.909 142.697L352.105 122.593L361.256 135.443L366.817 128.616L375.094 142.697H340.909Z" fill="#F58E08"/>
<path d="M365.157 118.685C365.157 119.26 364.986 119.822 364.666 120.3C364.346 120.778 363.891 121.151 363.359 121.371C362.827 121.591 362.241 121.648 361.676 121.536C361.111 121.424 360.593 121.147 360.185 120.741C359.778 120.334 359.5 119.816 359.388 119.252C359.276 118.689 359.333 118.104 359.554 117.573C359.774 117.042 360.148 116.588 360.627 116.268C361.105 115.949 361.669 115.779 362.245 115.779C363.017 115.78 363.756 116.087 364.302 116.632C364.848 117.177 365.155 117.915 365.157 118.685Z" fill="#F58E08"/>
<path d="M375.094 142.805C375.094 142.805 375.094 142.751 375.094 142.643C375.094 142.535 375.094 142.379 375.094 142.19C375.094 141.771 375.094 141.189 375.094 140.432C375.094 138.884 375.094 136.64 375.046 133.794C375.046 128.088 374.999 119.963 374.965 110.208L375.128 110.371H340.949C340.902 110.411 341.308 110.005 341.139 110.181V118.969C341.139 121.842 341.139 124.654 341.139 127.385C341.139 132.861 341.139 138.032 341.139 142.791L340.97 142.622L365.685 142.71L372.662 142.751H374.511H374.985H375.155H375.006H374.545H372.73L365.794 142.791L340.97 142.879H340.8V142.71C340.8 137.978 340.8 132.78 340.8 127.304C340.8 124.6 340.8 121.761 340.8 118.888V110.1C340.624 110.269 341.031 109.857 340.997 109.904H375.175H375.243V110.188C375.202 119.99 375.175 128.149 375.155 133.882C375.155 136.707 375.155 138.938 375.114 140.48C375.114 141.223 375.114 141.798 375.114 142.203C375.114 142.386 375.114 142.528 375.114 142.643C375.115 142.698 375.108 142.752 375.094 142.805Z" fill="#455A64"/>
<path d="M165.567 48.6585V138.715C165.567 143.027 169.07 146.523 173.391 146.523H309.697C314.018 146.523 317.52 143.027 317.52 138.715V48.6585C317.52 44.3463 314.018 40.8507 309.697 40.8507L173.391 40.8507C169.07 40.8507 165.567 44.3463 165.567 48.6585Z" fill="#455A64"/>
<path d="M175.958 44.1834V143.19H302.856V44.1834L175.958 44.1834Z" fill="white"/>
<path d="M309.88 89.6308C310.684 89.6308 311.47 89.8687 312.138 90.3144C312.806 90.7601 313.327 91.3935 313.635 92.1347C313.942 92.8758 314.023 93.6913 313.866 94.4781C313.709 95.2649 313.322 95.9876 312.754 96.5549C312.185 97.1221 311.461 97.5084 310.673 97.6649C309.885 97.8214 309.067 97.7411 308.325 97.4341C307.582 97.1271 306.947 96.6072 306.501 95.9402C306.054 95.2732 305.816 94.489 305.816 93.6868C305.816 92.6111 306.244 91.5795 307.006 90.8188C307.768 90.0582 308.802 89.6308 309.88 89.6308Z" fill="#263238"/>
<path d="M169.943 78.5985V108.775C169.943 109.231 170.313 109.6 170.769 109.6H170.796C171.253 109.6 171.623 109.231 171.623 108.775V78.5985C171.623 78.143 171.253 77.7738 170.796 77.7738H170.769C170.313 77.7738 169.943 78.143 169.943 78.5985Z" fill="#263238"/>
<path d="M274.198 51.6194H233.843V54.3166H274.198V51.6194Z" fill="#455A64"/>
<path d="M221.63 97.9456H181.275V100.643H221.63V97.9456Z" fill="#455A64"/>
<path d="M284.026 61.6512C284.026 61.7526 272.796 61.8269 258.965 61.8269C245.134 61.8269 233.87 61.7526 233.87 61.6512C233.87 61.5498 245.1 61.4754 258.965 61.4754C272.83 61.4754 284.026 61.5565 284.026 61.6512Z" fill="#455A64"/>
<path d="M284.026 67.5392C284.026 67.6338 272.796 67.7149 258.965 67.7149C245.134 67.7149 233.87 67.6338 233.87 67.5392C233.87 67.4445 245.1 67.3634 258.965 67.3634C272.83 67.3634 284.026 67.4378 284.026 67.5392Z" fill="#455A64"/>
<path d="M284.026 73.4204C284.026 73.515 272.796 73.5961 258.965 73.5961C245.134 73.5961 233.87 73.515 233.87 73.4204C233.87 73.3257 245.1 73.2446 258.965 73.2446C272.83 73.2446 284.026 73.3257 284.026 73.4204Z" fill="#455A64"/>
<path d="M284.026 79.3016C284.026 79.403 272.796 79.4773 258.965 79.4773C245.134 79.4773 233.87 79.403 233.87 79.3016C233.87 79.2002 245.1 79.1258 258.965 79.1258C272.83 79.1258 284.026 79.2069 284.026 79.3016Z" fill="#455A64"/>
<path d="M284.026 85.176C284.026 85.2706 272.796 85.3518 258.965 85.3518C245.134 85.3518 233.87 85.2706 233.87 85.176C233.87 85.0814 245.1 85.0002 258.965 85.0002C272.83 85.0002 284.026 85.0881 284.026 85.176Z" fill="#455A64"/>
<path d="M273.02 91.0707C273.02 91.1654 264.248 91.2465 253.431 91.2465C242.614 91.2465 233.843 91.1654 233.843 91.0707C233.843 90.9761 242.607 90.895 253.431 90.895C264.255 90.895 273.02 90.9761 273.02 91.0707Z" fill="#455A64"/>
<path d="M247.552 108.552C247.552 108.647 232.813 108.728 214.633 108.728C196.454 108.728 181.715 108.647 181.715 108.552C181.715 108.457 196.454 108.376 214.633 108.376C232.813 108.376 247.552 108.451 247.552 108.552Z" fill="#455A64"/>
<path d="M247.552 113.453C247.552 113.554 232.813 113.629 214.633 113.629C196.454 113.629 181.715 113.554 181.715 113.453C181.715 113.352 196.454 113.277 214.633 113.277C232.813 113.277 247.552 113.358 247.552 113.453Z" fill="#455A64"/>
<path d="M247.552 118.361C247.552 118.455 232.813 118.537 214.633 118.537C196.454 118.537 181.715 118.455 181.715 118.361C181.715 118.266 196.454 118.185 214.633 118.185C232.813 118.185 247.552 118.259 247.552 118.361Z" fill="#455A64"/>
<path d="M247.552 123.262C247.552 123.363 232.813 123.438 214.633 123.438C196.454 123.438 181.715 123.363 181.715 123.262C181.715 123.16 196.454 123.086 214.633 123.086C232.813 123.086 247.552 123.167 247.552 123.262Z" fill="#455A64"/>
<path d="M247.552 128.17C247.552 128.264 232.813 128.345 214.633 128.345C196.454 128.345 181.715 128.264 181.715 128.17C181.715 128.075 196.454 127.994 214.633 127.994C232.813 127.994 247.552 128.075 247.552 128.17Z" fill="#455A64"/>
<path d="M222.172 50.2336H181.715V89.2996H222.172V50.2336Z" fill="#F58E08"/>
<path d="M184.851 85.9602L196.047 65.8559L205.198 78.6999L210.759 71.8791L219.036 85.9602H184.851Z" fill="#E0E0E0"/>
<path d="M209.1 61.9419C209.101 62.5171 208.931 63.0797 208.612 63.5586C208.293 64.0376 207.838 64.4112 207.306 64.6322C206.774 64.8533 206.188 64.9118 205.623 64.8004C205.058 64.689 204.538 64.4127 204.13 64.0064C203.722 63.6002 203.444 63.0823 203.331 62.5182C203.218 61.9542 203.275 61.3694 203.496 60.8378C203.716 60.3063 204.089 59.8519 204.568 59.5322C205.047 59.2125 205.611 59.0418 206.187 59.0418C206.958 59.0418 207.698 59.3472 208.244 59.8908C208.79 60.4345 209.098 61.1721 209.1 61.9419Z" fill="#E0E0E0"/>
<path d="M219.036 86.0683C219.036 86.0683 219.036 86.0075 219.036 85.9061C219.036 85.8046 219.036 85.6424 219.036 85.4531C219.036 85.034 219.036 84.4459 219.036 83.6955C219.036 82.1407 219.036 79.9032 218.995 77.0572C218.995 71.3518 218.948 63.2263 218.914 53.4716L219.077 53.6338H184.898C184.851 53.6744 185.257 53.2755 185.088 53.4513V57.8656C185.088 59.3257 185.088 60.7791 185.088 62.2123V70.6285C185.088 76.1041 185.088 81.2754 185.088 86.0345L184.919 85.8655L209.635 85.9466L216.604 85.9939H218.454H218.934H219.104H218.955H218.494H216.679L209.743 86.0412L184.919 86.1224H184.749V85.9534C184.749 81.2214 184.749 76.0229 184.749 70.5473C184.749 67.8118 184.749 65.0064 184.749 62.1311V53.3431C184.573 53.5121 184.98 53.0998 184.946 53.1403H219.124H219.293V53.3093C219.26 63.1046 219.233 71.2707 219.212 77.0031C219.212 79.8288 219.178 82.0596 219.172 83.6009C219.172 84.3377 219.172 84.9529 219.172 85.3247C219.172 85.5072 219.172 85.6492 219.172 85.7641C219.167 85.879 219.118 85.9877 219.036 86.0683Z" fill="#455A64"/>
<path d="M285.266 103.124H256.635V130.772H285.266V103.124Z" fill="#F58E08"/>
<path d="M258.857 128.406L266.775 114.183L273.257 123.275L277.192 118.442L283.044 128.406H258.857Z" fill="#E0E0E0"/>
<path d="M276.013 111.412C276.013 111.813 275.894 112.205 275.671 112.538C275.448 112.872 275.13 113.132 274.759 113.285C274.388 113.439 273.979 113.479 273.585 113.401C273.191 113.322 272.829 113.129 272.545 112.846C272.26 112.562 272.067 112.201 271.988 111.807C271.91 111.414 271.95 111.006 272.104 110.635C272.258 110.265 272.518 109.948 272.852 109.725C273.187 109.502 273.579 109.384 273.981 109.384C274.52 109.384 275.037 109.597 275.418 109.978C275.799 110.358 276.013 110.874 276.013 111.412Z" fill="#E0E0E0"/>
<path d="M283.044 128.481C283.044 128.481 283.044 128.44 283.044 128.372C283.044 128.305 283.044 128.183 283.044 128.048C283.044 127.75 283.044 127.372 283.044 126.804C283.044 125.709 283.044 124.1 283.044 122.072C283.044 118.016 283.01 112.284 282.983 105.382L283.098 105.497H258.911C258.877 105.497 259.168 105.24 259.046 105.368V111.574C259.046 113.602 259.046 115.587 259.046 117.529C259.046 121.403 259.046 125.06 259.046 128.426L258.931 128.312L276.352 128.44H281.283H282.597H283.051C283.051 128.44 283.017 128.44 282.949 128.44H282.624H281.337L276.427 128.474L258.863 128.535H258.741V128.413C258.741 125.033 258.741 121.389 258.741 117.516V105.456C258.619 105.571 258.911 105.28 258.884 105.314H283.071H283.193V105.429C283.193 112.365 283.146 118.138 283.132 122.194C283.132 124.222 283.132 125.777 283.098 126.865C283.098 127.392 283.098 127.798 283.098 128.088C283.098 128.217 283.098 128.318 283.098 128.399C283.098 128.481 283.051 128.487 283.044 128.481Z" fill="#455A64"/>
<path d="M305.877 157.204H113.21C107.759 157.204 103.341 161.613 103.341 167.053V287.537C103.341 292.976 107.759 297.386 113.21 297.386H305.877C311.327 297.386 315.746 292.976 315.746 287.537V167.053C315.746 161.613 311.327 157.204 305.877 157.204Z" fill="#263238"/>
<path d="M94.4609 287.023H324.585V287.259C324.585 290.451 323.315 293.511 321.054 295.768C318.793 298.024 315.726 299.292 312.528 299.292H106.517C103.32 299.292 100.253 298.024 97.9922 295.768C95.7311 293.511 94.4609 290.451 94.4609 287.259V287.023Z" fill="#263238"/>
<path d="M309.453 162.774H109.044V281.155H309.453V162.774Z" fill="#E0E0E0"/>
<path d="M188.603 287.023L191.462 291.559H231.641L234.296 287.023H188.603Z" fill="#455A64"/>
<path d="M300.242 170.663H115.729V281.115H300.242V170.663Z" fill="#FAFAFA"/>
<path d="M123.607 176.105C123.608 176.411 123.518 176.711 123.348 176.967C123.179 177.222 122.937 177.422 122.654 177.54C122.37 177.658 122.058 177.69 121.757 177.631C121.456 177.572 121.179 177.425 120.961 177.209C120.743 176.992 120.595 176.716 120.535 176.416C120.474 176.116 120.505 175.804 120.622 175.521C120.739 175.237 120.938 174.995 121.193 174.825C121.448 174.654 121.748 174.563 122.055 174.563C122.466 174.563 122.859 174.726 123.15 175.014C123.441 175.303 123.605 175.695 123.607 176.105Z" fill="#455A64"/>
<path d="M129.919 176.105C129.921 176.411 129.831 176.712 129.661 176.967C129.491 177.223 129.249 177.422 128.965 177.54C128.681 177.658 128.369 177.69 128.067 177.63C127.766 177.571 127.489 177.423 127.271 177.206C127.054 176.989 126.906 176.713 126.847 176.412C126.787 176.111 126.818 175.799 126.937 175.516C127.055 175.233 127.255 174.991 127.511 174.822C127.767 174.652 128.068 174.562 128.375 174.563C128.785 174.563 129.177 174.726 129.467 175.015C129.757 175.304 129.919 175.696 129.919 176.105Z" fill="#455A64"/>
<path d="M136.239 176.105C136.24 176.411 136.15 176.711 135.981 176.967C135.811 177.222 135.569 177.422 135.286 177.54C135.003 177.658 134.691 177.69 134.389 177.631C134.088 177.572 133.811 177.425 133.593 177.209C133.376 176.992 133.227 176.716 133.167 176.416C133.107 176.116 133.137 175.804 133.254 175.521C133.371 175.237 133.57 174.995 133.825 174.825C134.081 174.654 134.381 174.563 134.688 174.563C134.891 174.563 135.093 174.602 135.281 174.679C135.469 174.756 135.64 174.869 135.784 175.012C135.928 175.156 136.043 175.326 136.121 175.513C136.199 175.701 136.239 175.902 136.239 176.105Z" fill="#455A64"/>
<path d="M300.242 182.865C300.242 182.966 258.924 183.04 207.989 183.04C157.053 183.04 115.729 182.966 115.729 182.865C115.729 182.763 157.047 182.689 207.989 182.689C258.931 182.689 300.242 182.77 300.242 182.865Z" fill="#455A64"/>
<path d="M315.746 287.117H103.341V287.794H315.746V287.117Z" fill="#455A64"/>
<path d="M171.21 236.532H130.854V239.23H171.21V236.532Z" fill="#455A64"/>
<path d="M223.337 199.123H182.982V201.82H223.337V199.123Z" fill="#455A64"/>
<path d="M283.362 209.161C283.362 209.256 260.888 209.337 233.172 209.337C205.456 209.337 182.982 209.256 182.982 209.161C182.982 209.067 205.449 208.979 233.172 208.979C260.895 208.979 283.362 209.06 283.362 209.161Z" fill="#455A64"/>
<path d="M283.362 215.042C283.362 215.137 260.888 215.218 233.172 215.218C205.456 215.218 182.982 215.137 182.982 215.042C182.982 214.948 205.449 214.867 233.172 214.867C260.895 214.867 283.362 214.968 283.362 215.042Z" fill="#455A64"/>
<path d="M283.362 220.924C283.362 221.025 260.888 221.099 233.172 221.099C205.456 221.099 182.982 221.025 182.982 220.924C182.982 220.822 205.449 220.748 233.172 220.748C260.895 220.748 283.362 220.829 283.362 220.924Z" fill="#455A64"/>
<path d="M283.362 226.811C283.362 226.906 260.888 226.987 233.172 226.987C205.456 226.987 182.982 226.906 182.982 226.811C182.982 226.717 205.449 226.629 233.172 226.629C260.895 226.629 283.362 226.71 283.362 226.811Z" fill="#455A64"/>
<path d="M283.362 232.693C283.362 232.787 260.888 232.868 233.172 232.868C205.456 232.868 182.982 232.787 182.982 232.693C182.982 232.598 205.449 232.517 233.172 232.517C260.895 232.517 283.362 232.591 283.362 232.693Z" fill="#455A64"/>
<path d="M222.165 238.574C222.165 238.669 213.394 238.75 202.577 238.75C191.76 238.75 182.982 238.669 182.982 238.574C182.982 238.479 191.787 238.398 202.577 238.398C213.367 238.398 222.165 238.479 222.165 238.574Z" fill="#455A64"/>
<path d="M282.624 249.992C282.624 250.093 267.852 250.167 249.638 250.167C231.425 250.167 216.652 250.093 216.652 249.992C216.652 249.89 231.418 249.816 249.638 249.816C267.858 249.816 282.624 249.897 282.624 249.992Z" fill="#455A64"/>
<path d="M282.624 256.238C282.624 256.332 267.852 256.414 249.638 256.414C231.425 256.414 216.652 256.332 216.652 256.238C216.652 256.143 231.418 256.062 249.638 256.062C267.858 256.062 282.624 256.143 282.624 256.238Z" fill="#455A64"/>
<path d="M282.624 262.484C282.624 262.579 267.852 262.66 249.638 262.66C231.425 262.66 216.652 262.579 216.652 262.484C216.652 262.389 231.418 262.308 249.638 262.308C267.858 262.308 282.624 262.383 282.624 262.484Z" fill="#455A64"/>
<path d="M282.624 268.73C282.624 268.825 267.852 268.906 249.638 268.906C231.425 268.906 216.652 268.825 216.652 268.73C216.652 268.636 231.418 268.555 249.638 268.555C267.858 268.555 282.624 268.629 282.624 268.73Z" fill="#455A64"/>
<path d="M171.311 249.397C171.311 249.491 162.506 249.572 151.668 249.572C140.831 249.572 132.026 249.491 132.026 249.397C132.026 249.302 140.831 249.221 151.668 249.221C162.506 249.221 171.311 249.295 171.311 249.397Z" fill="#455A64"/>
<path d="M171.311 254.298C171.311 254.399 162.506 254.473 151.668 254.473C140.831 254.473 132.026 254.399 132.026 254.298C132.026 254.196 140.831 254.122 151.668 254.122C162.506 254.122 171.311 254.176 171.311 254.298Z" fill="#455A64"/>
<path d="M171.311 259.205C171.311 259.3 162.506 259.381 151.668 259.381C140.831 259.381 132.026 259.3 132.026 259.205C132.026 259.111 140.831 259.03 151.668 259.03C162.506 259.03 171.311 259.111 171.311 259.205Z" fill="#455A64"/>
<path d="M171.311 264.106C171.311 264.208 162.506 264.282 151.668 264.282C140.831 264.282 132.026 264.208 132.026 264.106C132.026 264.005 140.831 263.931 151.668 263.931C162.506 263.931 171.311 264.012 171.311 264.106Z" fill="#455A64"/>
<path d="M171.311 269.048C171.311 269.143 162.506 269.224 151.668 269.224C140.831 269.224 132.026 269.143 132.026 269.048C132.026 268.953 140.831 268.872 151.668 268.872C162.506 268.872 171.311 268.92 171.311 269.048Z" fill="#455A64"/>
<path d="M171.311 190.321H130.854V229.387H171.311V190.321Z" fill="#E0E0E0"/>
<path d="M133.99 226.041L145.186 205.937L154.337 218.787L159.905 211.967L168.175 226.041H133.99Z" fill="#F58E08"/>
<path d="M158.239 202.029C158.239 202.604 158.068 203.166 157.748 203.644C157.428 204.122 156.973 204.495 156.441 204.715C155.908 204.935 155.323 204.992 154.758 204.88C154.193 204.768 153.674 204.491 153.267 204.085C152.859 203.678 152.582 203.16 152.47 202.596C152.357 202.033 152.415 201.448 152.635 200.917C152.856 200.386 153.229 199.932 153.708 199.612C154.187 199.293 154.75 199.123 155.326 199.123C156.099 199.123 156.839 199.429 157.386 199.974C157.932 200.519 158.239 201.258 158.239 202.029Z" fill="#F58E08"/>
<path d="M168.175 226.149C168.172 226.097 168.172 226.045 168.175 225.994C168.175 225.872 168.175 225.723 168.175 225.534C168.175 225.121 168.175 224.533 168.175 223.776C168.175 222.228 168.175 219.991 168.128 217.145C168.128 211.439 168.08 203.314 168.046 193.552L168.209 193.721H134.031C133.983 193.762 134.39 193.356 134.22 193.532V202.32C134.22 205.186 134.22 207.998 134.22 210.736C134.22 216.205 134.22 221.376 134.22 226.135L134.051 225.973L158.767 226.054L165.743 226.102H167.593H168.236C168.236 226.102 168.189 226.102 168.087 226.102H167.626H165.811L158.875 226.149L134.051 226.23H133.888V226.061C133.888 221.329 133.888 216.131 133.888 210.662C133.888 207.924 133.888 205.112 133.888 202.246V193.458L134.085 193.262H168.263H168.432V193.424C168.432 203.226 168.365 211.385 168.344 217.118C168.344 219.95 168.344 222.174 168.304 223.715C168.304 224.459 168.304 225.034 168.304 225.446C168.304 225.628 168.304 225.77 168.304 225.879C168.304 225.987 168.182 226.156 168.175 226.149Z" fill="#455A64"/>
<path d="M211.585 247.01H182.954V274.659H211.585V247.01Z" fill="#E0E0E0"/>
<path d="M185.176 272.293L193.094 258.07L199.576 267.162L203.512 262.329L209.37 272.293H185.176Z" fill="#F58E08"/>
<path d="M202.333 255.298C202.333 255.699 202.214 256.091 201.991 256.425C201.767 256.758 201.45 257.018 201.079 257.172C200.707 257.325 200.299 257.365 199.905 257.287C199.51 257.209 199.148 257.016 198.864 256.732C198.58 256.449 198.386 256.087 198.308 255.694C198.23 255.3 198.27 254.893 198.424 254.522C198.577 254.152 198.838 253.835 199.172 253.612C199.506 253.389 199.899 253.27 200.301 253.27C200.84 253.27 201.357 253.484 201.738 253.864C202.119 254.244 202.333 254.76 202.333 255.298Z" fill="#F58E08"/>
<path d="M209.37 272.374C209.368 272.336 209.368 272.297 209.37 272.259C209.37 272.178 209.37 272.07 209.37 271.935C209.37 271.644 209.37 271.259 209.37 270.691C209.37 269.596 209.37 267.987 209.337 265.992C209.337 261.936 209.337 256.204 209.282 249.302L209.398 249.417H185.203C185.203 249.417 185.461 249.16 185.339 249.288V261.457C185.339 265.33 185.339 268.987 185.339 272.36L185.217 272.239L202.712 272.3L207.643 272.333H208.951H207.664H202.76L185.19 272.394H185.075V272.279C185.075 268.899 185.075 265.249 185.075 261.375C185.075 259.442 185.075 257.448 185.075 255.42V249.228C184.953 249.343 185.237 249.052 185.21 249.086H209.404H209.519V249.201C209.519 256.136 209.472 261.909 209.459 265.972C209.459 268 209.459 269.548 209.459 270.637C209.459 271.164 209.459 271.569 209.459 271.86C209.459 271.989 209.459 272.09 209.459 272.171C209.443 272.244 209.413 272.313 209.37 272.374Z" fill="#455A64"/>
<path d="M450.664 287.3L443.89 286.496L442.299 299.164L452.208 300.441L452.357 299.664C452.994 296.189 455.331 281.966 454.911 279.54C454.443 276.836 450.664 287.3 450.664 287.3Z" fill="#F58E08"/>
<path d="M454.321 278.634C454.443 278.634 453.976 283.406 453.278 289.254C452.581 295.101 451.924 299.833 451.802 299.82C451.68 299.806 452.154 295.088 452.845 289.2C453.536 283.312 454.199 278.62 454.321 278.634Z" fill="#263238"/>
<path d="M452.073 286.705C452.005 286.8 451.653 286.665 451.328 286.354C451.002 286.043 450.867 285.678 450.962 285.617C451.057 285.556 451.341 285.752 451.639 286.043C451.937 286.333 452.147 286.624 452.073 286.705Z" fill="#263238"/>
<path d="M452.614 285.948C452.56 286.056 452.161 285.948 451.768 285.651C451.375 285.353 451.158 284.975 451.246 284.907C451.334 284.839 451.666 285.022 452.032 285.299C452.398 285.576 452.675 285.84 452.614 285.948Z" fill="#263238"/>
<path d="M452.215 295.993C452.215 296.047 452.045 296.216 451.707 296.46C451.276 296.752 450.875 297.085 450.508 297.453C450.161 297.82 449.91 298.266 449.776 298.751C449.682 299.13 449.709 299.38 449.641 299.394C449.573 299.407 449.451 299.157 449.472 298.718C449.519 298.141 449.757 297.596 450.149 297.17C450.536 296.766 450.996 296.438 451.504 296.203C451.93 296.014 452.181 295.939 452.215 295.993Z" fill="#263238"/>
<path d="M450.806 286.516C450.914 286.469 451.131 286.719 451.212 287.09C451.294 287.462 451.212 287.766 451.091 287.766C450.969 287.766 450.86 287.496 450.786 287.165C450.711 286.834 450.691 286.563 450.806 286.516Z" fill="#263238"/>
<path d="M450.129 286.624C450.244 286.624 450.305 286.976 450.264 287.408C450.223 287.841 450.081 288.165 449.966 288.138C449.851 288.111 449.783 287.766 449.831 287.361C449.878 286.955 450.007 286.624 450.129 286.624Z" fill="#263238"/>
<path d="M446.532 300.171L408.987 296.372L331.135 298.109L351.834 281.453L403.792 278.965L449.221 285.211L446.532 300.171Z" fill="#263238"/>
<path d="M383.073 289.767C383.073 289.869 375.764 289.943 366.749 289.943C357.734 289.943 350.432 289.869 350.432 289.767C350.432 289.666 357.734 289.592 366.749 289.592C375.764 289.592 383.073 289.673 383.073 289.767Z" fill="#455A64"/>
<path d="M379.442 280.128L382.111 296.886H387.231L383.337 279.945L379.442 280.128Z" fill="black"/>
<path d="M399.261 297.109L398.502 290.349L385.775 291.701L386.757 301.597H387.55C391.085 301.422 405.492 300.462 407.761 299.502C410.322 298.4 399.261 297.109 399.261 297.109Z" fill="#F58E08"/>
<path d="M408.026 298.792C408.026 298.914 403.284 299.542 397.425 300.198C391.566 300.854 386.798 301.286 386.784 301.165C386.771 301.043 391.526 300.421 397.378 299.765C403.23 299.11 408.012 298.697 408.026 298.792Z" fill="#263238"/>
<path d="M399.627 298.468C399.512 298.42 399.566 298.048 399.796 297.663C400.026 297.278 400.345 297.061 400.433 297.136C400.521 297.21 400.385 297.535 400.175 297.886C399.965 298.238 399.749 298.515 399.627 298.468Z" fill="#263238"/>
<path d="M400.5 298.792C400.385 298.792 400.399 298.353 400.602 297.9C400.805 297.447 401.103 297.163 401.205 297.224C401.307 297.285 401.205 297.65 401.002 298.069C400.798 298.488 400.616 298.853 400.5 298.792Z" fill="#263238"/>
<path d="M390.605 300.712C390.564 300.752 390.347 300.597 390.036 300.326C389.653 299.976 389.238 299.661 388.796 299.387C388.359 299.133 387.866 298.991 387.36 298.974C386.974 298.974 386.73 299.049 386.683 298.974C386.635 298.9 386.866 298.738 387.313 298.657C387.895 298.575 388.488 298.694 388.992 298.995C389.474 299.283 389.896 299.659 390.239 300.103C390.523 300.448 390.652 300.671 390.605 300.712Z" fill="#263238"/>
<path d="M399.532 297.19C399.606 297.285 399.41 297.548 399.064 297.717C398.719 297.886 398.387 297.873 398.387 297.758C398.387 297.643 398.597 297.474 398.902 297.325C399.207 297.176 399.464 297.088 399.532 297.19Z" fill="#263238"/>
<path d="M399.261 296.554C399.261 296.676 398.956 296.811 398.529 296.865C398.103 296.919 397.75 296.865 397.744 296.744C397.737 296.622 398.069 296.487 398.475 296.433C398.882 296.379 399.234 296.44 399.261 296.554Z" fill="#263238"/>
<path d="M324.795 219.781L335.632 219.585C335.781 218.334 335.991 213.461 335.991 213.461C335.991 213.461 340.529 213.035 340.861 208.56C341.193 204.084 341.051 193.728 341.051 193.728C338.564 192.475 335.787 191.907 333.007 192.083C330.227 192.259 327.544 193.172 325.235 194.729L324.558 195.202L324.795 219.781Z" fill="#B78876"/>
<path d="M339.554 201.374C339.436 201.248 339.37 201.083 339.37 200.911C339.37 200.738 339.436 200.573 339.554 200.447C339.647 200.349 339.768 200.28 339.9 200.251C340.032 200.221 340.171 200.232 340.297 200.282C340.423 200.332 340.531 200.419 340.608 200.531C340.684 200.643 340.725 200.775 340.725 200.911C340.725 201.046 340.684 201.178 340.608 201.29C340.531 201.403 340.423 201.489 340.297 201.539C340.171 201.589 340.032 201.6 339.9 201.57C339.768 201.541 339.647 201.472 339.554 201.374Z" fill="#263238"/>
<path d="M340.699 200.414C340.624 200.488 340.204 200.123 339.588 200.082C338.971 200.042 338.497 200.333 338.436 200.251C338.375 200.17 338.484 200.076 338.687 199.941C338.964 199.767 339.289 199.686 339.615 199.711C339.94 199.731 340.249 199.857 340.495 200.069C340.699 200.238 340.746 200.38 340.699 200.414Z" fill="#263238"/>
<path d="M333.546 200.515C333.643 200.63 333.699 200.773 333.706 200.923C333.712 201.073 333.668 201.22 333.581 201.343C333.495 201.465 333.369 201.555 333.226 201.598C333.082 201.642 332.928 201.637 332.787 201.583C332.691 201.546 332.604 201.488 332.534 201.413C332.463 201.337 332.411 201.247 332.381 201.148C332.351 201.049 332.344 200.945 332.36 200.843C332.377 200.741 332.416 200.645 332.476 200.561C332.536 200.476 332.614 200.407 332.705 200.358C332.796 200.308 332.897 200.281 333 200.276C333.103 200.272 333.206 200.291 333.301 200.332C333.395 200.374 333.479 200.436 333.546 200.515Z" fill="#263238"/>
<path d="M333.925 200.542C333.851 200.617 333.431 200.251 332.808 200.211C332.185 200.17 331.724 200.461 331.656 200.38C331.589 200.299 331.704 200.204 331.914 200.069C332.19 199.895 332.515 199.815 332.84 199.839C333.166 199.863 333.475 199.991 333.722 200.204C333.925 200.366 333.986 200.515 333.925 200.542Z" fill="#263238"/>
<path d="M336.12 205.795C336.445 205.688 336.787 205.638 337.129 205.646C337.292 205.646 337.427 205.605 337.441 205.524C337.457 205.361 337.427 205.197 337.353 205.051L336.939 203.767C336.542 202.671 336.256 201.539 336.086 200.387C336.595 201.431 336.994 202.525 337.278 203.652C337.414 204.098 337.536 204.524 337.664 204.943C337.757 205.156 337.773 205.395 337.712 205.619C337.684 205.679 337.642 205.733 337.591 205.775C337.539 205.817 337.479 205.847 337.414 205.862C337.321 205.875 337.228 205.875 337.136 205.862C336.796 205.896 336.452 205.873 336.12 205.795Z" fill="#263238"/>
<path d="M334.068 206.356C333.444 205.93 335.781 207.404 337.048 207.417C336.817 207.729 336.487 207.954 336.113 208.056C335.738 208.157 335.339 208.13 334.982 207.978C333.668 207.404 334.068 206.356 334.068 206.356Z" fill="white"/>
<path d="M336.018 213.393C333.94 213.302 331.936 212.596 330.261 211.365C330.261 211.365 331.446 214.677 335.957 214.549L336.018 213.393Z" fill="#A36957"/>
<path d="M341.376 192.112C341.634 192.104 341.886 192.037 342.113 191.916C342.341 191.795 342.537 191.623 342.688 191.415C342.839 191.206 342.94 190.966 342.983 190.712C343.026 190.458 343.01 190.198 342.937 189.952C342.864 189.705 342.735 189.478 342.56 189.289C342.385 189.1 342.17 188.953 341.929 188.861C341.689 188.768 341.43 188.731 341.174 188.753C340.917 188.776 340.669 188.856 340.448 188.989C340.986 188.547 341.425 187.997 341.735 187.374C341.884 187.061 341.934 186.709 341.877 186.367C341.82 186.025 341.659 185.709 341.417 185.461C341.134 185.267 340.804 185.153 340.462 185.132C340.119 185.11 339.777 185.182 339.473 185.339C338.518 185.751 337.766 186.556 336.763 186.894C335.761 187.232 334.691 187.063 333.641 187.11C332.471 187.132 331.338 187.523 330.403 188.225C329.943 188.58 329.573 189.038 329.323 189.562C329.072 190.085 328.948 190.66 328.96 191.24C327.491 191.065 325.865 191.044 324.707 191.957C324.241 192.371 323.872 192.882 323.628 193.455C323.383 194.028 323.268 194.647 323.291 195.269C323.404 196.512 323.701 197.73 324.172 198.886C324.254 199.225 324.406 199.542 324.619 199.819L325.167 203.037L327.166 202.996L327.037 196.304C327.037 196.304 326.834 193.478 329.272 193.728C331.71 193.978 335.009 196.716 339.744 196.02C340.518 195.979 341.273 195.764 341.952 195.391C342.281 195.184 342.549 194.894 342.727 194.549C342.906 194.204 342.989 193.818 342.968 193.431C342.927 193.047 342.737 192.695 342.44 192.449C342.143 192.203 341.761 192.082 341.376 192.112Z" fill="#263238"/>
<path d="M325.418 199.177C325.316 199.143 322.079 198.724 322.384 202.557C322.688 206.39 326.448 204.801 326.448 204.693C326.448 204.585 325.418 199.177 325.418 199.177Z" fill="#B78876"/>
<path d="M325.174 203.429C325.174 203.429 325.106 203.476 324.998 203.537C324.846 203.617 324.669 203.636 324.504 203.591C324.245 203.454 324.027 203.251 323.873 203.003C323.718 202.755 323.632 202.47 323.623 202.178C323.585 201.852 323.622 201.521 323.731 201.211C323.757 201.089 323.813 200.974 323.893 200.877C323.973 200.781 324.076 200.705 324.192 200.657C324.267 200.631 324.349 200.633 324.424 200.661C324.498 200.689 324.56 200.743 324.598 200.813C324.659 200.914 324.639 200.988 324.659 200.995C324.68 201.002 324.741 200.927 324.693 200.772C324.667 200.677 324.607 200.595 324.524 200.542C324.47 200.507 324.409 200.482 324.345 200.471C324.281 200.459 324.215 200.46 324.151 200.475C323.989 200.518 323.841 200.604 323.722 200.722C323.604 200.841 323.518 200.989 323.474 201.151C323.335 201.493 323.287 201.865 323.332 202.232C323.339 202.572 323.447 202.903 323.643 203.182C323.838 203.461 324.112 203.676 324.429 203.8C324.534 203.823 324.643 203.821 324.748 203.795C324.852 203.769 324.949 203.72 325.032 203.652C325.174 203.517 325.188 203.435 325.174 203.429Z" fill="#A36957"/>
<path d="M316.003 286.624C318.035 289.646 330.356 308.155 345.067 294.695C363.809 277.566 378.629 262.558 378.629 262.558L384.197 296.46L401.645 295.513C401.645 295.513 394.872 245.036 390.55 240.446C385.748 235.322 381.332 235.755 343.618 265.458L316.003 286.624Z" fill="#455A64"/>
<path d="M378.413 229.137L394.709 217.266L395.508 218.544L379.32 230.557L378.413 229.137Z" fill="#263238"/>
<path d="M382.443 228.772C382.443 228.772 384.624 223.094 385.152 221.883C385.68 220.673 386.473 218.564 386.784 218.503C387.096 218.443 388.234 218.639 386.784 222.249C385.335 225.858 388.545 223.655 388.545 223.655L391.682 221.41C391.682 221.41 394.161 228.806 392.752 231.037C391.644 232.702 390.4 234.274 389.033 235.735L382.443 228.772Z" fill="#B78876"/>
<path d="M382.626 228.109C382.3 227.373 361.574 245.638 357.449 246.26L345.365 230.557C345.365 230.557 342.859 226.582 337.475 219.781C333.993 215.394 324.402 216.307 321.896 221.654C317.615 230.739 317.561 240.839 315.278 260.49L314.283 273.78C314.068 276.608 314.111 279.45 314.411 282.271C314.777 285.563 315.522 289.031 317.053 288.537L344.695 265.736L345.582 255.379C351.394 261.26 353.202 262.491 356.223 262.018C363.83 260.841 390.456 236.945 390.456 236.945C390.456 236.945 382.944 228.853 382.626 228.109Z" fill="#F58E08"/>
<path d="M386.886 240.264C386.346 239.94 385.848 239.552 385.403 239.108C384.27 238.099 383.208 237.012 382.226 235.856C381.237 234.705 380.332 233.485 379.517 232.206C379.154 231.69 378.847 231.137 378.602 230.557C379.013 231.03 379.386 231.534 379.72 232.064C380.397 233.004 381.345 234.288 382.49 235.627C383.635 236.965 384.746 238.114 385.572 238.925C386.041 239.34 386.48 239.788 386.886 240.264Z" fill="#263238"/>
<path d="M356.277 252.486C356.288 251.427 356.415 250.373 356.657 249.343C356.789 248.292 357.035 247.258 357.388 246.26C357.378 247.319 357.25 248.373 357.009 249.403C356.877 250.454 356.632 251.488 356.277 252.486Z" fill="#263238"/>
<path d="M358.919 251.837C358.5 250.977 358.191 250.069 357.998 249.133C357.698 248.228 357.505 247.291 357.422 246.341C357.841 247.201 358.15 248.109 358.343 249.045C358.641 249.951 358.835 250.887 358.919 251.837Z" fill="#263238"/>
<path d="M328.994 233.315C329.242 233.587 329.469 233.879 329.672 234.187L331.473 236.634C332.997 238.696 335.124 241.535 337.502 244.638L343.631 252.574L345.481 254.987C345.731 255.273 345.957 255.578 346.158 255.9C345.886 255.642 345.635 255.364 345.406 255.068C344.939 254.521 344.282 253.716 343.469 252.729C341.85 250.735 339.635 247.964 337.258 244.854C334.88 241.744 332.781 238.878 331.311 236.776C330.573 235.728 329.956 234.869 329.59 234.268C329.366 233.967 329.167 233.648 328.994 233.315Z" fill="#263238"/>
<path d="M325.459 246.672C324.742 246.267 324.088 245.762 323.515 245.172C322.864 244.664 322.287 244.068 321.801 243.401C322.521 243.806 323.179 244.313 323.752 244.908C324.404 245.409 324.98 246.004 325.459 246.672Z" fill="#263238"/>
<path d="M323.088 254.291C322.381 255.751 321.469 257.104 320.379 258.306C320.677 257.548 321.085 256.837 321.591 256.197C321.996 255.494 322.5 254.852 323.088 254.291Z" fill="#263238"/>
<path d="M326.42 264.803C326.346 264.864 325.743 264.255 325.066 263.451C324.609 262.992 324.238 262.457 323.969 261.869C324.043 261.808 324.646 262.416 325.323 263.221C325.781 263.678 326.152 264.214 326.42 264.803Z" fill="#263238"/>
<path d="M319.972 271.542C319.545 272.042 319.031 272.461 318.455 272.78C317.944 273.193 317.364 273.513 316.741 273.726C317.169 273.226 317.683 272.807 318.259 272.489C318.77 272.075 319.35 271.755 319.972 271.542Z" fill="#263238"/>
<path d="M328.988 273.327C328.27 273.015 327.648 272.518 327.186 271.887C326.636 271.323 326.246 270.623 326.055 269.859C326.15 269.812 326.644 270.704 327.45 271.644C328.256 272.583 329.049 273.239 328.988 273.327Z" fill="#263238"/>
<path d="M337.393 266.959C336.898 267.605 336.315 268.179 335.659 268.663C335.076 269.231 334.415 269.714 333.695 270.096C334.19 269.449 334.773 268.876 335.429 268.392C336.011 267.822 336.672 267.339 337.393 266.959Z" fill="#263238"/>
<path d="M320.094 279.256C318.937 278.726 318.017 277.786 317.514 276.619C317.595 276.565 318.103 277.214 318.814 277.931C319.525 278.647 320.155 279.188 320.094 279.256Z" fill="#263238"/>
<path d="M338.89 260.936C337.726 261.601 336.385 261.889 335.05 261.761C336.315 261.423 337.597 261.148 338.89 260.936Z" fill="#263238"/>
<path d="M332.632 253.831C332.491 254.655 332.264 255.462 331.954 256.238C331.734 257.018 331.469 257.786 331.162 258.536H331.087C331.087 258.496 331.128 258.482 331.142 258.482C331.155 258.482 331.142 258.482 331.142 258.557H331.067C331.147 257.745 331.324 256.946 331.595 256.177C331.802 255.341 332.153 254.547 332.632 253.831Z" fill="#263238"/>
<path d="M335.28 249.322C334.545 249.016 333.86 248.601 333.248 248.092C332.576 247.678 331.971 247.165 331.453 246.571C332.174 246.884 332.847 247.298 333.451 247.801C334.134 248.214 334.75 248.727 335.28 249.322Z" fill="#263238"/>
<path d="M329.861 239.385C329.657 240.056 329.315 240.677 328.859 241.21C328.492 241.808 328.008 242.325 327.436 242.731C327.74 242.108 328.122 241.527 328.574 241.001C328.928 240.407 329.361 239.863 329.861 239.385Z" fill="#263238"/>
<path d="M321.611 238.033C321.498 237.273 321.498 236.501 321.611 235.741C321.62 234.975 321.743 234.214 321.977 233.484C322.099 234.24 322.099 235.012 321.977 235.768C321.975 236.538 321.852 237.302 321.611 238.033Z" fill="#263238"/>
<path d="M318.394 252.932C318.21 252.123 318.137 251.293 318.177 250.465C318.109 249.64 318.154 248.81 318.313 247.997C318.575 249.63 318.602 251.292 318.394 252.932Z" fill="#263238"/>
<path d="M317.947 267.223C317.64 266.784 317.434 266.283 317.344 265.756C317.144 265.26 317.052 264.728 317.073 264.194C317.59 265.125 317.889 266.16 317.947 267.223Z" fill="#263238"/>
<path d="M329.353 226.886C328.816 227.502 328.231 228.076 327.606 228.603C327.064 229.216 326.473 229.783 325.838 230.3C326.206 229.553 326.725 228.89 327.362 228.353C327.915 227.73 328.594 227.23 329.353 226.886Z" fill="#263238"/>
<path d="M324.51 225.27C324.364 224.534 324.336 223.778 324.429 223.033C324.402 222.282 324.493 221.531 324.7 220.809C324.843 221.546 324.87 222.301 324.781 223.046C324.805 223.797 324.713 224.547 324.51 225.27Z" fill="#263238"/>
<path d="M336.377 223.661C335.104 222.893 333.874 222.056 332.693 221.153C334.118 221.656 335.388 222.52 336.377 223.661Z" fill="#263238"/>
<path d="M333.797 232.098C333.609 231.324 333.534 230.527 333.573 229.732C333.5 228.939 333.543 228.14 333.702 227.359C333.967 228.923 333.999 230.518 333.797 232.091V232.098Z" fill="#263238"/>
<path d="M340.746 237.033C339.379 236.761 338.024 236.436 336.682 236.059C338.104 235.973 339.519 236.312 340.746 237.033Z" fill="#263238"/>
<path d="M341.22 232.003C340.981 230.687 340.981 229.338 341.22 228.022C341.398 228.668 341.465 229.34 341.417 230.009C341.47 230.68 341.403 231.355 341.22 232.003Z" fill="#263238"/>
<path d="M346.517 240.446C346.301 239.628 346.203 238.784 346.226 237.938C346.133 237.099 346.155 236.25 346.293 235.417C346.598 237.075 346.673 238.768 346.517 240.446Z" fill="#263238"/>
<path d="M342.446 243.299C342.372 243.367 341.823 242.867 341.22 242.191C340.617 241.515 340.184 240.906 340.258 240.839C340.333 240.771 340.882 241.271 341.484 241.954C342.087 242.637 342.521 243.238 342.446 243.299Z" fill="#263238"/>
<path d="M347.594 247.193C346.955 247.41 346.284 247.52 345.609 247.517C344.937 247.635 344.25 247.635 343.577 247.517C344.212 247.293 344.882 247.183 345.555 247.193C346.229 247.067 346.92 247.067 347.594 247.193Z" fill="#263238"/>
<path d="M351.468 249.167C351.182 247.7 351.125 246.197 351.299 244.712C351.594 246.178 351.651 247.682 351.468 249.167Z" fill="#263238"/>
<path d="M355.288 256.569C354.476 256.724 353.642 256.724 352.83 256.569C352.004 256.537 351.192 256.346 350.439 256.008C351.254 256.005 352.068 256.077 352.87 256.224C353.686 256.259 354.496 256.375 355.288 256.569Z" fill="#263238"/>
<path d="M361.859 253.155C361.579 254.69 361.068 256.174 360.341 257.556C360.421 256.782 360.62 256.025 360.931 255.312C361.124 254.549 361.437 253.821 361.859 253.155Z" fill="#263238"/>
<path d="M366.593 247.179C365.185 247.032 363.811 246.651 362.529 246.051C363.936 246.206 365.308 246.587 366.593 247.179Z" fill="#263238"/>
<path d="M370.4 249.444C369.997 250.032 369.5 250.55 368.93 250.978C368.434 251.491 367.86 251.922 367.23 252.256C367.629 251.663 368.126 251.142 368.7 250.715C369.195 250.204 369.769 249.775 370.4 249.444Z" fill="#263238"/>
<path d="M371.924 243.854C371.549 243.185 371.318 242.446 371.246 241.684C371.052 240.937 371.02 240.158 371.152 239.399C371.367 240.125 371.515 240.869 371.592 241.623C371.772 242.354 371.883 243.101 371.924 243.854Z" fill="#263238"/>
<path d="M379.171 242.569C377.778 243.957 376.369 245.33 374.945 246.686C376.021 245.01 377.466 243.602 379.171 242.569Z" fill="#263238"/>
<path d="M379.889 239.98C379.112 239.87 378.355 239.642 377.647 239.304C376.896 239.084 376.183 238.748 375.534 238.31C376.309 238.423 377.062 238.65 377.769 238.986C378.521 239.211 379.236 239.546 379.889 239.98Z" fill="#263238"/>
<path d="M379.198 237.202C378.854 236.641 378.613 236.022 378.487 235.376C378.25 234.761 378.124 234.109 378.115 233.45C378.447 234.013 378.677 234.631 378.792 235.275C379.036 235.889 379.174 236.541 379.198 237.202Z" fill="#263238"/>
<path d="M341.281 256.677C341.2 256.738 340.604 256.069 340.008 255.19C339.579 254.691 339.244 254.118 339.019 253.5C339.529 253.916 339.96 254.42 340.292 254.987C340.716 255.491 341.05 256.062 341.281 256.677Z" fill="#263238"/>
<path d="M392.921 290.734C392.892 290.639 392.874 290.542 392.867 290.443C392.84 290.241 392.799 289.957 392.745 289.592C392.65 288.828 392.501 287.726 392.318 286.32C391.932 283.481 391.384 279.364 390.564 274.301C389.744 269.237 388.654 263.228 387.103 256.63C386.944 255.802 386.673 254.999 386.297 254.244C385.871 253.498 385.321 252.831 384.671 252.27C383.291 251.13 381.528 250.559 379.74 250.674C378.828 250.725 377.937 250.967 377.126 251.384C376.31 251.843 375.533 252.368 374.802 252.952L370.142 256.407C363.87 261.105 357.998 265.709 352.755 270.028C347.513 274.348 342.941 278.39 339.114 281.818C337.177 283.481 335.111 284.812 333.018 285.029C332.058 285.137 331.086 285.019 330.18 284.684C329.426 284.4 328.717 284.011 328.073 283.528C327.192 282.859 326.376 282.11 325.635 281.29L325.059 280.655C324.989 280.584 324.925 280.507 324.869 280.425C324.947 280.484 325.018 280.552 325.079 280.628L325.682 281.243C326.444 282.036 327.271 282.764 328.154 283.42C328.795 283.881 329.494 284.254 330.234 284.528C331.119 284.842 332.065 284.947 332.997 284.833C335.029 284.61 337.061 283.291 338.958 281.628C342.758 278.188 347.316 274.098 352.559 269.778C357.801 265.458 363.66 260.821 369.939 256.123L374.599 252.668C375.347 252.074 376.142 251.54 376.977 251.073C377.83 250.633 378.767 250.38 379.727 250.33C381.601 250.211 383.451 250.814 384.895 252.013C385.579 252.6 386.154 253.302 386.595 254.088C386.983 254.869 387.263 255.699 387.428 256.555C388.965 263.174 390.022 269.197 390.815 274.26C391.607 279.323 392.115 283.454 392.46 286.3C392.616 287.712 392.738 288.814 392.826 289.585C392.826 289.95 392.887 290.261 392.908 290.443C392.921 290.54 392.926 290.637 392.921 290.734Z" fill="#263238"/>
<path d="M400.832 290.355C400.613 290.423 400.385 290.459 400.155 290.464C399.715 290.511 399.078 290.565 398.292 290.619C396.714 290.727 394.54 290.842 392.135 290.944L385.978 291.207L384.109 291.275C383.884 291.301 383.657 291.301 383.432 291.275C383.651 291.203 383.879 291.162 384.109 291.153C384.549 291.099 385.186 291.038 385.972 290.971C387.55 290.842 389.724 290.714 392.129 290.606L398.292 290.383L400.162 290.342C400.385 290.319 400.61 290.323 400.832 290.355Z" fill="#263238"/>
<path d="M383.472 257.272C381.93 259.778 379.92 261.965 377.552 263.714C377.485 263.633 378.907 262.315 380.56 260.537C382.212 258.759 383.371 257.211 383.472 257.272Z" fill="#263238"/>
<path d="M384.129 259.327C383.216 260.023 382.251 260.649 381.244 261.2C380.297 261.856 379.3 262.439 378.264 262.944C379.102 262.15 380.04 261.468 381.054 260.916C382.006 260.256 383.04 259.722 384.129 259.327Z" fill="#263238"/>
<path d="M441.195 292.1C441.057 292.115 440.919 292.115 440.781 292.1L439.589 292.032L435.254 291.62L420.969 290.132C415.388 289.551 410.349 288.902 406.684 288.72C404.856 288.625 403.366 288.632 402.343 288.672L401.164 288.72C401.025 288.737 400.884 288.737 400.744 288.72C400.88 288.686 401.018 288.663 401.157 288.652C401.422 288.611 401.835 288.578 402.336 288.53C403.788 288.435 405.244 288.415 406.698 288.469C410.383 288.591 415.429 289.2 421.003 289.781L435.288 291.356L439.616 291.877L440.788 292.032C440.926 292.039 441.062 292.061 441.195 292.1Z" fill="#455A64"/>
<path d="M440.334 299.657C440.24 299.657 440.544 296.277 441.012 292.079C441.479 287.881 441.953 284.535 442.048 284.549C442.143 284.562 441.838 287.929 441.371 292.12C440.903 296.311 440.429 299.664 440.334 299.657Z" fill="#455A64"/>
</svg>
