<svg width="86" height="89" viewBox="0 0 86 89" fill="none" xmlns="http://www.w3.org/2000/svg">
<path d="M81.4996 82.9324C81.4996 86.2831 63.2555 88.9996 40.7498 88.9996C18.2441 88.9996 0 86.2831 0 82.9324C0 80.5603 9.14504 78.5053 22.4728 77.5085C27.9688 77.0962 34.1786 76.8652 40.7498 76.8652C43.4511 76.8652 46.0906 76.9044 48.6434 76.9787C67.3712 77.5268 81.4996 79.9836 81.4996 82.9324Z" fill="#868EA1"/>
<path opacity="0.1" d="M35.4923 84.1725C44.1315 84.1725 51.1349 83.3255 51.1349 82.2806C51.1349 81.2357 44.1315 80.3887 35.4923 80.3887C26.8531 80.3887 19.8496 81.2357 19.8496 82.2806C19.8496 83.3255 26.8531 84.1725 35.4923 84.1725Z" fill="black"/>
<path d="M35.4269 83.6504C43.5942 83.6504 50.2151 76.6404 50.2151 67.9932C50.2151 59.3459 43.5942 52.3359 35.4269 52.3359C27.2596 52.3359 20.6387 59.3459 20.6387 67.9932C20.6387 76.6404 27.2596 83.6504 35.4269 83.6504Z" fill="#3F3D56"/>
<path d="M40.0941 77.2578H30.8926V85.6083H40.0941V77.2578Z" fill="#F9A826"/>
<path d="M52.1196 79.2793L51.5938 82.1498L55.0115 82.6717L57.2462 81.3669L57.1147 79.2793H52.1196Z" fill="#575A89"/>
<path d="M34.9009 25.3921C34.9009 25.3921 34.638 28.3931 33.9807 28.5236C33.3235 28.6541 35.4267 33.8732 35.4267 33.8732H38.5815L41.0791 33.2208L39.896 30.3503C39.896 30.3503 38.3186 28.2626 39.5017 26.5664C40.6847 24.8702 34.9009 25.3921 34.9009 25.3921Z" fill="#A0616A"/>
<path opacity="0.1" d="M34.9009 25.3921C34.9009 25.3921 34.638 28.3931 33.9807 28.5236C33.3235 28.6541 35.4267 33.8732 35.4267 33.8732H38.5815L41.0791 33.2208L39.896 30.3503C39.896 30.3503 38.3186 28.2626 39.5017 26.5664C40.6847 24.8702 34.9009 25.3921 34.9009 25.3921Z" fill="black"/>
<path d="M28.3279 48.3559C28.3279 48.3559 24.9102 54.8797 27.6707 56.1845C30.4312 57.4893 31.0884 57.3588 31.0884 57.7502C31.0884 58.1417 30.5626 58.0112 30.8255 58.6636C31.0884 59.3159 30.2997 61.9255 31.0884 63.4912C31.8771 65.0569 31.6142 66.2312 31.6142 66.2312C31.6142 66.2312 31.6142 66.3617 31.8771 66.8836C32.14 67.4055 32.2715 67.7969 32.14 68.0579C32.0086 68.3188 31.2199 70.015 32.0086 70.4065C32.7973 70.7979 36.8723 71.0589 37.2666 70.4065C37.661 69.7541 36.8723 69.3627 37.2666 68.9712C37.661 68.5798 37.9239 68.4493 37.661 68.1884C37.3981 67.9274 37.1352 64.6655 37.1352 64.6655C37.1352 64.6655 37.7924 60.8817 37.5295 60.3598C37.2666 59.8379 36.8723 59.3159 37.1352 58.9245C37.3981 58.5331 37.661 58.6636 37.7924 58.1417C37.9239 57.6197 38.1868 56.4455 38.1868 56.4455L39.6327 56.315L43.0504 56.9674C43.0504 56.9674 46.8625 61.1426 51.069 62.4474C51.069 62.4474 52.252 63.6217 52.6464 63.6217C53.0407 63.6217 53.0407 63.6217 52.9093 63.8826C52.7778 64.1436 52.3835 64.1436 52.6464 64.4045C52.9093 64.6655 53.3036 64.2741 53.0407 64.6655C52.7778 65.0569 52.5149 65.0569 52.7778 65.3179C53.0407 65.5788 52.6464 67.0141 52.6464 67.1446C52.6464 67.275 51.4633 79.5399 51.8577 79.8008C52.252 80.0618 57.7729 80.8446 58.1673 79.8008C58.5617 78.757 57.9044 77.4522 57.9044 77.4522C57.9044 77.4522 59.8762 61.795 59.3504 60.7512C58.8246 59.7074 56.9842 55.0102 47.1254 52.0092C47.1254 52.0092 44.365 51.4873 44.365 51.0959C44.365 50.7045 44.1021 48.2254 43.5763 48.0949C43.0504 47.9645 40.0271 47.834 40.0271 47.834L36.215 49.0083L30.957 48.0949L28.3279 48.3559Z" fill="#2F2E41"/>
<path d="M32.9286 70.2762L32.2714 72.6248C32.2714 72.6248 31.7456 76.4086 32.4028 77.3219C32.9191 78.0394 33.8409 78.9178 35.5504 79.0719C36.0295 79.1156 36.5092 78.9956 36.9103 78.7318C37.3113 78.468 37.6096 78.0763 37.7559 77.6213C37.7755 77.5669 37.7878 77.5101 37.7923 77.4524C37.7923 77.1915 37.398 74.06 37.398 74.06L36.7407 70.7981L36.6093 69.8848L32.9286 70.2762Z" fill="#2F2E41"/>
<path d="M52.1199 81.4966C52.1199 81.4966 51.4626 80.8442 51.3312 81.4966C51.1997 82.149 50.6739 84.889 51.5941 85.0195C52.5142 85.15 61.3215 86.4547 62.2416 85.9328C63.1618 85.4109 64.8706 84.628 63.819 84.2366C62.7674 83.8452 59.744 82.6709 59.744 82.6709C59.744 82.6709 58.0352 80.4528 57.7723 80.3223C57.5094 80.1918 56.0634 80.4528 55.4062 80.9747C54.7489 81.4966 52.1199 81.4966 52.1199 81.4966Z" fill="#2F2E41"/>
<path d="M38.0554 28.1325C40.306 28.1325 42.1304 26.3216 42.1304 24.0877C42.1304 21.8539 40.306 20.043 38.0554 20.043C35.8049 20.043 33.9805 21.8539 33.9805 24.0877C33.9805 26.3216 35.8049 28.1325 38.0554 28.1325Z" fill="#A0616A"/>
<path d="M37.6597 33.2207L36.0823 31.5245L34.3338 28.1321C34.3338 28.1321 33.0589 27.7407 32.796 28.393C32.5331 29.0454 27.8009 31.1331 27.8009 31.1331C27.8009 31.1331 28.984 42.0931 28.4582 43.1369C27.9324 44.1807 27.0122 48.356 27.8009 48.7474C28.5896 49.1389 32.2702 48.7474 33.4533 49.2693C34.6364 49.7912 38.0541 49.7912 38.9742 49.1389C39.8944 48.4865 40.1573 47.9646 41.0775 48.356C41.8608 48.6892 43.6921 37.2966 44.2193 33.9016C44.2638 33.6165 44.2269 33.3247 44.1129 33.0593C43.9988 32.7939 43.8122 32.5655 43.5742 32.3999C42.3947 31.5787 40.2704 30.1636 39.8944 30.3502C39.3686 30.6111 37.6597 33.2207 37.6597 33.2207Z" fill="#575A89"/>
<path d="M43.3134 32.6992C43.6221 32.7758 43.8998 32.9443 44.1092 33.1821C44.3186 33.4199 44.4496 33.7156 44.4848 34.0295L45.5481 43.5288C45.5481 43.5288 42.9191 49.1393 41.6046 45.3555C40.2901 41.5716 43.3134 32.6992 43.3134 32.6992Z" fill="#575A89"/>
<path d="M43.0499 44.443L45.9419 43.6602C45.9419 43.6602 46.4677 47.3135 46.9935 47.3135C47.5193 47.3135 45.1532 49.4011 43.9701 49.1402C42.787 48.8792 41.0782 47.9659 40.9467 47.3135C40.8153 46.6611 42.1298 43.9211 42.1298 43.9211L43.0499 44.443Z" fill="#575A89"/>
<path d="M34.9796 25.8324C35.2566 25.226 35.2085 24.5186 35.4376 23.8927C35.5603 23.5575 35.7593 23.2551 36.0193 23.009C36.2792 22.7628 36.5929 22.5797 36.9359 22.4738C37.2789 22.3679 37.642 22.3422 37.9967 22.3987C38.3514 22.4551 38.6881 22.5922 38.9806 22.7992C39.2753 23.0077 39.5707 23.3008 39.9304 23.261C40.3178 23.2181 40.6633 22.7892 41.0194 22.9464C41.4141 23.1206 41.3075 23.8227 41.7074 23.9849C41.9179 24.0703 42.1666 23.9388 42.288 23.748C42.3942 23.5475 42.4521 23.3252 42.4571 23.0987C42.5122 22.5422 42.5621 21.9533 42.319 21.4489C42.2167 21.2779 42.1276 21.0995 42.0523 20.9152C42.0098 20.7431 41.9927 20.5658 42.0017 20.3888C41.9994 19.7347 41.9513 19.0525 41.6197 18.4872C41.2517 17.86 40.5714 17.4589 39.8618 17.2839C39.1521 17.1089 38.4086 17.1358 37.6799 17.197C36.4754 17.2982 35.2193 17.5152 34.2703 18.2584C34.1413 18.3519 34.0303 18.4677 33.9425 18.6002C33.8592 18.7576 33.8004 18.9266 33.768 19.1014C33.5628 19.9308 33.2552 20.7317 32.8521 21.4862C32.6582 21.806 32.4997 22.1457 32.3794 22.4994C32.2788 22.8588 32.2856 23.2683 32.4963 23.5772C32.6678 23.8287 32.942 23.9627 33.1574 24.1684C33.3708 24.3721 33.4707 24.7639 33.7072 24.9182C33.9136 25.0528 34.1609 24.9578 34.3714 25.1005C34.6417 25.2838 34.6612 25.6856 34.9796 25.8324Z" fill="#2F2E41"/>
<path d="M38.3184 35.1774L38.7127 34.3945C38.7127 34.3945 44.4965 36.0907 45.6796 37.6564C45.6796 37.6564 48.5715 35.8298 50.1489 36.0907L51.7263 36.3517L46.8627 40.6574L40.6845 40.1355L38.3184 35.1774Z" fill="#F2F2F2"/>
<path d="M38.0555 34.3945L32.666 41.8317L40.4216 45.6155C40.4216 45.6155 41.1467 46.007 41.7043 45.6155L46.8627 43.267L51.7264 36.3517L46.8627 38.8307C46.8627 38.8307 46.3369 37.7869 45.2853 38.3088L38.0555 34.3945Z" fill="#F9A826"/>
<path d="M46.3369 47.5732L47.3885 44.8332C47.3885 44.8332 49.7547 41.8323 48.4401 40.397C47.1256 38.9618 45.6797 44.5723 45.6797 44.5723L46.3369 47.5732Z" fill="#A0616A"/>
<path d="M34.2031 47.1365L36.4978 45.29C36.4978 45.29 40.0614 43.8723 39.6498 41.9762C39.2381 40.08 35.1514 44.2132 35.1514 44.2132L34.2031 47.1365Z" fill="#A0616A"/>
<path opacity="0.1" d="M28.5251 33.9397H28.3937C28.3937 33.9397 26.3562 31.5259 25.9618 34.7878C25.5675 38.0498 24.253 48.8793 27.6707 49.2708C31.0884 49.6622 33.5203 47.6398 33.5203 47.6398C33.5203 47.6398 36.0178 43.856 35.0977 43.856C34.6525 43.856 33.4416 43.6575 32.3372 43.7255C31.1591 43.7981 30.1004 44.1275 30.1683 43.7907C30.2997 43.1384 32.2058 34.8531 28.5251 33.9397Z" fill="black"/>
<path d="M28.327 31.3938L27.8012 31.1328C27.8012 31.1328 25.698 31.5242 25.3036 34.7862C24.9093 38.0481 23.5948 48.8777 27.0125 49.2691C30.4302 49.6605 35.031 48.7472 35.031 48.7472C35.031 48.7472 35.9512 43.7891 35.031 43.7891C34.1109 43.7891 29.3786 44.4415 29.5101 43.7891C29.6415 43.1367 32.0076 32.3071 28.327 31.3938Z" fill="#575A89"/>
<path d="M44.4297 46.0724L45.8792 43.8672L46.7958 47.5076L44.4297 48.5514V46.0724Z" fill="#575A89"/>
<path d="M14.6527 14.6278C16.6128 14.6278 18.2019 13.0505 18.2019 11.1049C18.2019 9.15928 16.6128 7.58203 14.6527 7.58203C12.6925 7.58203 11.1035 9.15928 11.1035 11.1049C11.1035 13.0505 12.6925 14.6278 14.6527 14.6278Z" fill="#868EA1"/>
<path d="M18.8601 37.332H10.4473V45.6825H18.8601V37.332Z" fill="#868EA1"/>
<path d="M48.9012 0L51.0306 3.66079L53.1598 7.32158H48.9012H44.6426L46.7718 3.66079L48.9012 0Z" fill="#868EA1"/>
<path d="M85.9989 21.9506C85.948 23.5124 85.5648 24.7643 84.8493 25.7061C84.1337 26.6481 83.2836 27.1191 82.299 27.1192C81.4969 27.1192 80.794 26.6583 80.1902 25.7364C79.5861 24.8145 79.2841 23.3964 79.2842 21.482C79.2842 21.0589 79.2944 20.6559 79.3147 20.273C79.3349 19.8902 79.3603 19.5275 79.3908 19.1849L79.9237 14.2127H76.4065C75.7975 20.4997 75.2976 24.2402 74.9068 25.4341C74.5159 26.628 73.8536 27.225 72.9198 27.225C72.4983 27.2147 72.0961 27.0475 71.793 26.7565C71.6173 26.602 71.4784 26.4107 71.3862 26.1963C71.2941 25.982 71.251 25.7501 71.2601 25.5172C71.2601 25.0539 71.6281 24.4066 72.364 23.5752C73.0999 22.744 73.5084 21.9858 73.5897 21.3007L74.5032 14.2127H73.0264C72.61 14.2151 72.2003 14.3161 71.8311 14.5073C71.4914 14.6622 71.1958 14.8985 70.9709 15.195L70.3161 16.1622H69.7832C70.2804 14.6308 70.892 13.4797 71.6179 12.7089C72.3436 11.9381 73.1784 11.5527 74.1226 11.5527H85.7553V14.2126H81.827C81.7051 15.4217 81.6112 16.6307 81.5453 17.8398C81.4791 19.0488 81.4462 20.2629 81.4463 21.482C81.4463 22.3083 81.6392 22.9783 82.0249 23.4921C82.4106 24.0059 82.8927 24.2629 83.4714 24.2628C83.8266 24.2628 84.1996 24.1193 84.5905 23.8321C84.7761 23.7029 84.9314 23.5354 85.0457 23.341C85.16 23.1467 85.2306 22.9302 85.2528 22.7062C85.2833 22.4847 85.3061 22.3109 85.3213 22.1848C85.3365 22.0589 85.3442 21.9808 85.3442 21.9505L85.9989 21.9506Z" fill="#F9A826"/>
<path opacity="0.1" d="M85.9989 21.9506C85.948 23.5124 85.5648 24.7643 84.8493 25.7061C84.1337 26.6481 83.2836 27.1191 82.299 27.1192C81.4969 27.1192 80.794 26.6583 80.1902 25.7364C79.5861 24.8145 79.2841 23.3964 79.2842 21.482C79.2842 21.0589 79.2944 20.6559 79.3147 20.273C79.3349 19.8902 79.3603 19.5275 79.3908 19.1849L79.9237 14.2127H76.4065C75.7975 20.4997 75.2976 24.2402 74.9068 25.4341C74.5159 26.628 73.8536 27.225 72.9198 27.225C72.4983 27.2147 72.0961 27.0475 71.793 26.7565C71.6173 26.602 71.4784 26.4107 71.3862 26.1963C71.2941 25.982 71.251 25.7501 71.2601 25.5172C71.2601 25.0539 71.6281 24.4066 72.364 23.5752C73.0999 22.744 73.5084 21.9858 73.5897 21.3007L74.5032 14.2127H73.0264C72.61 14.2151 72.2003 14.3161 71.8311 14.5073C71.4914 14.6622 71.1958 14.8985 70.9709 15.195L70.3161 16.1622H69.7832C70.2804 14.6308 70.892 13.4797 71.6179 12.7089C72.3436 11.9381 73.1784 11.5527 74.1226 11.5527H85.7553V14.2126H81.827C81.7051 15.4217 81.6112 16.6307 81.5453 17.8398C81.4791 19.0488 81.4462 20.2629 81.4463 21.482C81.4463 22.3083 81.6392 22.9783 82.0249 23.4921C82.4106 24.0059 82.8927 24.2629 83.4714 24.2628C83.8266 24.2628 84.1996 24.1193 84.5905 23.8321C84.7761 23.7029 84.9314 23.5354 85.0457 23.341C85.16 23.1467 85.2306 22.9302 85.2528 22.7062C85.2833 22.4847 85.3061 22.3109 85.3213 22.1848C85.3365 22.0589 85.3442 21.9808 85.3442 21.9505L85.9989 21.9506Z" fill="black"/>
<path d="M85.9989 21.4779C85.948 23.0397 85.5648 24.2916 84.8493 25.2335C84.1337 26.1755 83.2836 26.6465 82.299 26.6466C81.4969 26.6466 80.794 26.1856 80.1902 25.2637C79.5861 24.3418 79.2841 22.9237 79.2842 21.0094C79.2842 20.5862 79.2944 20.1832 79.3147 19.8003C79.3349 19.4176 79.3603 19.0548 79.3908 18.7122L79.9237 13.74H76.4065C75.7975 20.027 75.2976 23.7675 74.9068 24.9615C74.5159 26.1554 73.8536 26.7524 72.9198 26.7524C72.4983 26.7421 72.0961 26.5749 71.793 26.2839C71.6173 26.1293 71.4784 25.938 71.3862 25.7237C71.2941 25.5094 71.251 25.2774 71.2601 25.0446C71.2601 24.5813 71.6281 23.934 72.364 23.1026C73.0999 22.2713 73.5084 21.5132 73.5897 20.828L74.5032 13.74H73.0264C72.61 13.7425 72.2003 13.8435 71.8311 14.0347C71.4914 14.1896 71.1958 14.4259 70.9709 14.7223L70.3161 15.6896H69.7832C70.2804 14.1582 70.892 13.0071 71.6179 12.2362C72.3436 11.4655 73.1784 11.0801 74.1226 11.0801H85.7553V13.74H81.827C81.7051 14.949 81.6112 16.1581 81.5453 17.3671C81.4791 18.5762 81.4462 19.7903 81.4463 21.0094C81.4463 21.8357 81.6392 22.5057 82.0249 23.0195C82.4106 23.5333 82.8927 23.7902 83.4714 23.7902C83.8266 23.7902 84.1996 23.6466 84.5905 23.3595C84.7761 23.2302 84.9314 23.0627 85.0457 22.8684C85.16 22.6741 85.2306 22.4575 85.2528 22.2336C85.2833 22.012 85.3061 21.8382 85.3213 21.7122C85.3365 21.5863 85.3442 21.5082 85.3442 21.4779H85.9989Z" fill="#F9A826"/>
</svg>
