<svg width="107" height="74" viewBox="0 0 107 74" fill="none" xmlns="http://www.w3.org/2000/svg">
<g clip-path="url(#clip0)">
<path d="M12.4698 64.1079C12.4698 64.1079 -1.13992 57.8581 3.64117 53.5241C8.42227 49.1901 12.4698 64.1079 12.4698 64.1079Z" fill="#2F2E41"/>
<path d="M12.2313 65.5663C12.2313 65.5663 5.97577 45.0633 15.1873 46.0438C24.3988 47.0244 12.2313 65.5663 12.2313 65.5663Z" fill="#2F2E41"/>
<path d="M7.67188 63.748L7.93443 67.1778L7.9386 67.237C7.93835 67.7726 7.96547 68.3078 8.01986 68.8407C8.37619 72.339 9.90775 73.9333 11.6977 73.9333C13.4876 73.9333 14.9525 72.339 15.3088 68.8407C15.3632 68.3078 15.3904 67.7726 15.3901 67.237L15.3922 67.1892L15.3932 67.1778L15.6568 63.748H7.67188Z" fill="#2F2E41"/>
<path d="M15.3924 67.1777L15.3914 67.1892L15.3893 67.237C15.3895 67.7726 15.3624 68.3078 15.308 68.8406H8.01903C7.96464 68.3078 7.93751 67.7726 7.93776 67.237L7.93359 67.1777H15.3924Z" fill="white"/>
<path d="M101.235 66.2059C101.235 66.2059 90.698 61.3672 94.3996 58.0118C98.1012 54.6564 101.235 66.2059 101.235 66.2059Z" fill="#2F2E41"/>
<path d="M101.052 67.3344C101.052 67.3344 96.2087 51.4606 103.34 52.2197C110.472 52.9789 101.052 67.3344 101.052 67.3344Z" fill="#2F2E41"/>
<path d="M97.5215 65.9258L97.7248 68.5811L97.728 68.627C97.7278 69.0417 97.7488 69.456 97.7909 69.8686C98.0668 72.577 99.2525 73.8114 100.638 73.8114C102.024 73.8114 103.158 72.577 103.434 69.8686C103.476 69.456 103.497 69.0417 103.497 68.627L103.499 68.59L103.499 68.5811L103.704 65.9258H97.5215Z" fill="#2F2E41"/>
<path d="M103.499 68.582L103.499 68.5909L103.497 68.6279C103.497 69.0426 103.476 69.4569 103.434 69.8695H97.7907C97.7486 69.4569 97.7276 69.0426 97.7278 68.6279L97.7246 68.582H103.499Z" fill="white"/>
<path d="M35.4736 22.0728V17.4082H34.7465V22.0728C34.538 22.157 34.3653 22.3109 34.258 22.5082C34.1507 22.7054 34.1155 22.9338 34.1585 23.1541C34.2015 23.3744 34.3199 23.5729 34.4935 23.7156C34.6671 23.8584 34.8851 23.9364 35.1101 23.9364C35.3351 23.9364 35.5531 23.8584 35.7267 23.7156C35.9003 23.5729 36.0187 23.3744 36.0617 23.1541C36.1047 22.9338 36.0695 22.7054 35.9622 22.5082C35.8549 22.3109 35.6822 22.157 35.4736 22.0728Z" fill="#E6E6E6"/>
<path d="M37.1685 69.1464H32.1999V8.94531H30.261V69.1464H25.2924C24.7036 69.1464 24.1205 69.2621 23.5765 69.4869C23.0325 69.7117 22.5382 70.0411 22.1219 70.4565C21.7055 70.8718 21.3752 71.3649 21.1499 71.9076C20.9246 72.4502 20.8086 73.0318 20.8086 73.6192V73.6192H41.6523V73.6192C41.6523 73.0318 41.5364 72.4502 41.311 71.9076C41.0857 71.3649 40.7554 70.8718 40.3391 70.4565C39.9227 70.0411 39.4284 69.7117 38.8844 69.4869C38.3404 69.2621 37.7573 69.1464 37.1685 69.1464Z" fill="#868EA1"/>
<path d="M20.8184 17.8911H41.642L40.3686 2.01392C40.322 1.46644 40.0718 0.956161 39.6671 0.58346C39.2624 0.210759 38.7325 0.00262245 38.1817 0H24.2786C23.7278 0.00262232 23.198 0.210758 22.7932 0.583458C22.3885 0.956158 22.1383 1.46644 22.0917 2.01392L20.8184 17.8911Z" fill="#F9A826"/>
<path d="M49.8141 45.7585C49.6183 45.726 49.4179 45.7327 49.2246 45.7781C49.0313 45.8235 48.849 45.9068 48.6882 46.0231C48.5275 46.1393 48.3915 46.2863 48.2881 46.4555C48.1848 46.6246 48.1162 46.8125 48.0863 47.0084L47.5 50.8463L49.4947 51.3741L50.9563 47.7982C51.0412 47.5904 51.0782 47.3662 51.0645 47.1423C51.0507 46.9183 50.9866 46.7003 50.8769 46.5044C50.7672 46.3085 50.6147 46.1397 50.4308 46.0106C50.2468 45.8815 50.036 45.7954 49.8141 45.7585Z" fill="#A0616A"/>
<path d="M49.7759 50.8391C50.8829 55.2275 50.4065 59.2414 46.2843 62.3929C41.3401 61.0334 38.0517 57.7531 36.0453 52.9858C35.9206 52.6894 35.8573 52.3709 35.8594 52.0494C35.8615 51.7279 35.9289 51.4102 36.0575 51.1154C36.186 50.8207 36.3731 50.5549 36.6075 50.3343C36.8419 50.1136 37.1187 49.9427 37.4211 49.8316C37.8755 49.665 38.3701 49.6403 38.8389 49.7608C39.3078 49.8814 39.7287 50.1414 40.0458 50.5065L44.897 56.0918L47.1728 50.4599L49.7759 50.8391Z" fill="#F9A826"/>
<path d="M75.1095 73.8622C70.595 73.623 67.7905 72.0767 67.1113 68.9059L67.8384 67.5762L76.1632 71.3592C76.3733 71.4547 76.5503 71.6104 76.6715 71.8065C76.7928 72.0026 76.8528 72.2302 76.844 72.4604C76.8353 72.6906 76.7581 72.913 76.6222 73.0993C76.4864 73.2857 76.2981 73.4275 76.0813 73.5068L75.1095 73.8622Z" fill="#F9A826"/>
<path d="M71.6215 73.8943C69.2759 73.8234 67.0201 73.8454 64.8826 73.9897C64.5077 74.0153 64.1378 73.8924 63.8531 73.6476C63.5685 73.4028 63.392 73.056 63.3621 72.6823L63.2338 71.0822L61.416 68.1809L62.9914 66.6094C65.6389 69.2397 68.5425 71.4491 71.991 72.7624C72.1018 72.8381 72.185 72.9476 72.2283 73.0745C72.2715 73.2014 72.2724 73.3388 72.2308 73.4662C72.1892 73.5936 72.1074 73.7042 71.9976 73.7814C71.8877 73.8585 71.7558 73.8981 71.6215 73.8943Z" fill="#F9A826"/>
<path d="M58.8691 62.4986C55.8738 67.8449 52.928 71.449 49.0531 73.3783C44.2858 74.9479 40.8016 72.8684 38.0859 68.6034L45.9629 63.4053L47.1142 64.5537L57.5479 56.6335C57.8028 56.3927 58.1426 56.2621 58.4935 56.2699C58.8444 56.2776 59.178 56.4232 59.4219 56.675L68.3215 67.5758L67.2308 69.3891L58.8691 62.4986Z" fill="#2F2E41"/>
<path d="M61.5363 68.7849L57.416 62.4988L58.3855 60.6855L63.8388 66.3672L61.5363 68.7849Z" fill="#2F2E41"/>
<path d="M37.7843 48.7183C40.0599 48.7183 41.9046 46.8781 41.9046 44.6082C41.9046 42.3382 40.0599 40.498 37.7843 40.498C35.5088 40.498 33.6641 42.3382 33.6641 44.6082C33.6641 46.8781 35.5088 48.7183 37.7843 48.7183Z" fill="#A0616A"/>
<path d="M38.8745 52.2235L34.2695 50.652C34.951 49.5718 35.2497 48.2949 35.1178 47.0254H38.8745C38.6609 48.8698 38.6289 50.6193 38.8745 52.2235Z" fill="#A0616A"/>
<path d="M48.6894 63.225C47.999 63.5077 47.9485 64.4245 47.2958 64.736C44.1402 66.2421 40.8016 67.4642 38.5099 69.6319C33.1544 66.0041 28.1905 54.7367 34.632 49.8066C36.8307 51.0901 38.7948 52.0086 38.7523 49.8066L48.6894 63.225Z" fill="#F9A826"/>
<path opacity="0.2" d="M45.9035 58.3887L43.6616 57.6029L39.2383 61.0482L37.2555 53.9276C37.118 53.4337 36.8952 53.6841 36.5752 54.0271C36.2417 53.7192 35.8268 53.5128 35.3796 53.4323C34.9324 53.3518 34.4714 53.4006 34.051 53.5728C33.6306 53.7451 33.2684 54.0336 33.007 54.4045C32.7456 54.7754 32.596 55.213 32.5758 55.6659C32.3399 60.8309 33.9013 65.2006 37.7841 68.5431C42.8626 67.4584 45.0179 64.0357 45.9035 59.5975L45.6634 59.4379C45.7519 59.0949 45.8319 58.7452 45.9035 58.3887Z" fill="black"/>
<path d="M38.338 39.2013C39.6971 39.5111 41.244 39.9499 41.3307 40.3579C42.7288 40.7093 43.7841 41.5511 43.9995 42.8344C44.0175 42.9453 44.0109 43.0588 43.9802 43.1669C43.9495 43.275 43.8954 43.3751 43.8217 43.4601C43.748 43.5451 43.6565 43.6129 43.5537 43.6588C43.4509 43.7047 43.3392 43.7275 43.2266 43.7257C42.4663 43.716 41.3249 43.6433 40.5712 43.3293C38.3818 44.7365 38.0143 48.3966 38.9704 50.888L37.4658 50.7504L35.9092 46.2048L35.5116 50.5717L32.0781 50.1189L32.5204 44.5503C32.6563 43.2379 33.1041 41.9767 33.8265 40.8714C33.9015 40.7604 33.9836 40.6543 34.0722 40.5538C34.5946 39.9652 35.267 39.5286 36.0181 39.2904C36.7691 39.0523 37.5708 39.0215 38.338 39.2013Z" fill="#2F2E41"/>
<path d="M46.084 52.9993L49.8549 57.4216L55.5113 50.7625L51.6894 46.1367L46.084 52.9993Z" fill="#3F3D56"/>
<path d="M54.5429 50.9156L50.0586 47.2556C50.3134 46.6456 51.5364 46.8489 51.5364 46.8489L55.0467 50.3989C55.1689 50.5225 55.2737 50.6621 55.3583 50.8139L54.5429 50.9156Z" fill="#F2F2F2"/>
<path d="M54.7464 50.6622L49.6505 46.6973L43.9941 55.2372L49.3193 58.8209C49.8289 59.0243 50.3385 58.6684 50.3385 58.6684L55.5362 50.7385L54.7464 50.6622Z" fill="#3F3D56"/>
<path d="M50.2865 47.9331L50.2383 48L53.4999 50.338L53.5481 50.2711L50.2865 47.9331Z" fill="#F9A826"/>
<path d="M53.593 51.1477L49.3125 57.6035L49.3814 57.649L53.6619 51.1932L53.593 51.1477Z" fill="#F9A826"/>
<path d="M45.3947 55.2539L45.3457 55.3203L48.8101 57.863L48.859 57.7966L45.3947 55.2539Z" fill="#F9A826"/>
<path d="M49.6697 48.0463L45.2363 54.4004L45.3041 54.4474L49.7375 48.0933L49.6697 48.0463Z" fill="#F9A826"/>
<path d="M51.0383 46.7985L51.0039 46.8359L55.0363 50.5276L55.0707 50.4901L51.0383 46.7985Z" fill="#B3B3B3"/>
<path d="M50.7017 46.831L50.668 46.8691L54.8823 50.5804L54.916 50.5423L50.7017 46.831Z" fill="#B3B3B3"/>
<path d="M50.4389 46.9043L50.4062 46.9434L54.7811 50.581L54.8137 50.5419L50.4389 46.9043Z" fill="#B3B3B3"/>
<path d="M48.1208 54.2971C47.9578 54.184 47.7738 54.1043 47.5797 54.0627C47.3856 54.0211 47.1851 54.0183 46.9899 54.0546C46.7947 54.091 46.6086 54.1656 46.4426 54.2742C46.2766 54.3829 46.1338 54.5233 46.0226 54.6875L43.8438 57.9043L45.4191 59.234L48.2762 56.6283C48.4422 56.4769 48.572 56.2901 48.6558 56.0819C48.7396 55.8737 48.7754 55.6493 48.7604 55.4254C48.7455 55.2015 48.6803 54.9838 48.5695 54.7885C48.4588 54.5932 48.3054 54.4253 48.1208 54.2971Z" fill="#A0616A"/>
<path d="M45.9035 58.8727C45.0179 63.3109 42.8626 66.7336 37.7841 67.8183C33.9013 64.4758 32.3399 60.1061 32.5758 54.9411C32.5905 54.62 32.6702 54.3051 32.8103 54.0156C32.9503 53.726 33.1477 53.4678 33.3905 53.2564C33.6333 53.0451 33.9166 52.885 34.2231 52.7859C34.5297 52.6868 34.8532 52.6506 35.1742 52.6796C35.6564 52.7234 36.1138 52.9125 36.4856 53.2219C36.8574 53.5313 37.1259 53.9463 37.2555 54.4116L39.2383 61.5322L43.7146 57.417L45.9035 58.8727Z" fill="#F9A826"/>
<path d="M106.952 74.0001H0V73.7363H107L106.952 74.0001Z" fill="#3F3D56"/>
<path d="M55.9006 11.0625C55.8363 11.0626 55.7747 11.0881 55.7293 11.1334C55.6838 11.1787 55.6583 11.2402 55.6582 11.3043V30.1625C55.6583 30.2266 55.6838 30.288 55.7293 30.3333C55.7747 30.3787 55.8363 30.4042 55.9006 30.4042H71.6545C71.7188 30.4042 71.7804 30.3787 71.8259 30.3333C71.8713 30.288 71.8968 30.2266 71.8969 30.1625V11.3043C71.8968 11.2402 71.8713 11.1787 71.8259 11.1334C71.7804 11.0881 71.7188 11.0626 71.6545 11.0625H55.9006Z" fill="#868EA1"/>
<path d="M57.5371 28.5298H70.0191V12.9355H57.5371V28.5298Z" fill="white"/>
<path d="M82.1291 16.0176C82.0907 16.0176 82.0539 16.0328 82.0268 16.0599C81.9997 16.087 81.9844 16.1236 81.9844 16.1619V25.5441C81.9844 25.5824 81.9997 25.6191 82.0268 25.6461C82.0539 25.6732 82.0907 25.6884 82.1291 25.6884H93.4155C93.4539 25.6884 93.4907 25.6732 93.5178 25.6461C93.5449 25.6191 93.5602 25.5824 93.5602 25.5441V16.1619C93.5602 16.1237 93.5449 16.087 93.5178 16.0599C93.4907 16.0329 93.4539 16.0176 93.4155 16.0176L82.1291 16.0176Z" fill="#868EA1"/>
<path d="M83.1055 17.1367V24.5703H92.4385V17.1367H83.1055Z" fill="white"/>
<path d="M65.9815 12.3918H61.5737C61.4672 12.3922 61.3625 12.3645 61.2701 12.3116C61.1777 12.2586 61.1011 12.1823 61.0478 12.0902C60.9945 11.9982 60.9666 11.8938 60.9668 11.7875C60.967 11.6813 60.9954 11.5769 61.049 11.4851L63.2529 7.67723C63.2547 7.6741 63.2566 7.67097 63.2584 7.66784C63.3066 7.58685 63.3732 7.51836 63.453 7.46798C63.5327 7.41759 63.6233 7.38672 63.7173 7.3779L63.7205 7.37761C63.7393 7.37589 63.7584 7.37501 63.7776 7.37501C63.8841 7.37438 63.9889 7.40204 64.0811 7.45515C64.1733 7.50827 64.2497 7.58492 64.3024 7.67723L66.5063 11.4851C66.5594 11.577 66.5874 11.6812 66.5874 11.7873C66.5874 11.8934 66.5594 11.9977 66.5063 12.0895C66.4531 12.1814 66.3766 12.2577 66.2845 12.3108C66.1924 12.3638 66.0879 12.3918 65.9815 12.3918ZM61.4521 11.7868C61.4522 11.8082 61.458 11.8292 61.4687 11.8478C61.4792 11.8663 61.4945 11.8817 61.5129 11.8923C61.5314 11.9029 61.5524 11.9084 61.5737 11.9082H65.9815C66.0028 11.9085 66.0238 11.903 66.0423 11.8923C66.0608 11.8817 66.076 11.8663 66.0865 11.8478C66.0972 11.8292 66.103 11.8082 66.1032 11.7868C66.103 11.7657 66.0973 11.7451 66.0865 11.727L63.8826 7.919C63.8719 7.90062 63.8567 7.88536 63.8382 7.87475C63.8198 7.86414 63.7989 7.85855 63.7776 7.85855C63.7563 7.85855 63.7354 7.86414 63.717 7.87475C63.6986 7.88536 63.6833 7.90062 63.6726 7.919L61.4687 11.7269C61.4579 11.745 61.4522 11.7657 61.4521 11.7868Z" fill="#E6E6E6"/>
<path d="M63.7776 8.52414C63.9784 8.52414 64.1412 8.36178 64.1412 8.16149C64.1412 7.9612 63.9784 7.79883 63.7776 7.79883C63.5768 7.79883 63.4141 7.9612 63.4141 8.16149C63.4141 8.36178 63.5768 8.52414 63.7776 8.52414Z" fill="#E6E6E6"/>
<path d="M88.9669 16.3196H86.5771C86.5193 16.3198 86.4626 16.3048 86.4125 16.2761C86.3624 16.2474 86.3208 16.206 86.292 16.1561C86.2631 16.1062 86.2479 16.0496 86.248 15.9919C86.2482 15.9343 86.2635 15.8778 86.2926 15.828L87.4875 13.7635L87.4905 13.7584C87.5166 13.7145 87.5527 13.6773 87.596 13.65C87.6392 13.6227 87.6883 13.606 87.7393 13.6012L87.741 13.601C87.7512 13.6001 87.7616 13.5996 87.772 13.5996C87.8297 13.5993 87.8865 13.6143 87.9365 13.6431C87.9865 13.6719 88.0279 13.7134 88.0565 13.7635L89.2514 15.828C89.2802 15.8778 89.2954 15.9343 89.2954 15.9918C89.2954 16.0494 89.2802 16.1059 89.2514 16.1557C89.2225 16.2055 89.1811 16.2469 89.1311 16.2756C89.0812 16.3044 89.0246 16.3195 88.9669 16.3196ZM86.5111 15.9915C86.5113 16.0032 86.5144 16.0146 86.5202 16.0246C86.5259 16.0347 86.5341 16.043 86.5442 16.0488C86.5542 16.0545 86.5655 16.0575 86.5771 16.0574H88.9669C88.9784 16.0575 88.9898 16.0545 88.9998 16.0488C89.0099 16.043 89.0181 16.0347 89.0238 16.0246C89.0296 16.0146 89.0327 16.0032 89.0328 15.9916C89.0328 15.9801 89.0296 15.9689 89.0238 15.9591L87.8289 13.8945C87.8231 13.8846 87.8148 13.8763 87.8049 13.8706C87.7949 13.8648 87.7835 13.8618 87.772 13.8618C87.7605 13.8618 87.7491 13.8648 87.7391 13.8706C87.7292 13.8763 87.7209 13.8846 87.7151 13.8945L86.5202 15.9591C86.5143 15.9689 86.5112 15.9801 86.5111 15.9915Z" fill="#E6E6E6"/>
<path d="M87.7733 14.2233C87.8821 14.2233 87.9704 14.1353 87.9704 14.0267C87.9704 13.9181 87.8821 13.8301 87.7733 13.8301C87.6644 13.8301 87.5762 13.9181 87.5762 14.0267C87.5762 14.1353 87.6644 14.2233 87.7733 14.2233Z" fill="#E6E6E6"/>
<path d="M57.6791 22.5919C57.8533 22.193 58.1071 21.8337 58.4251 21.536C58.7431 21.2382 59.1186 21.0082 59.5286 20.86C59.9551 20.6958 60.412 20.6254 60.8682 20.6537C61.3244 20.682 61.7691 20.8083 62.1719 21.024C63.1176 21.5247 63.8736 22.3118 64.834 22.791C65.7679 23.2525 66.7955 23.494 67.8377 23.4968C69.0177 23.506 70.1793 23.2052 71.2058 22.6247C71.2457 22.5996 71.2743 22.56 71.2854 22.5143C71.2966 22.4686 71.2896 22.4203 71.2658 22.3797C71.242 22.3391 71.2033 22.3093 71.1579 22.2966C71.1124 22.2838 71.0638 22.2892 71.0223 22.3116C70.092 22.8317 69.0471 23.114 67.9807 23.1336C66.9144 23.1531 65.8598 22.9091 64.911 22.4234C63.9474 21.9195 63.184 21.1057 62.2024 20.6335C61.7857 20.4318 61.333 20.3146 60.8706 20.2887C60.4081 20.2628 59.9451 20.3287 59.5084 20.4827C59.0229 20.6451 58.5776 20.9086 58.2018 21.2556C57.826 21.6025 57.5283 22.0252 57.3285 22.4955C57.2403 22.7115 57.5919 22.8056 57.6791 22.5919V22.5919Z" fill="#E6E6E6"/>
<path d="M57.393 25.9824C59.4105 25.5331 61.5033 25.5403 63.5177 26.0036C65.3071 26.4175 67.1544 27.1623 68.9993 26.6068C69.8236 26.3587 70.579 25.8624 71.0024 25.0986C71.1157 24.8942 70.8019 24.711 70.6885 24.9155C69.8912 26.3537 68.0234 26.5963 66.5481 26.3604C65.5624 26.2027 64.6123 25.8865 63.6421 25.6603C61.5561 25.1724 59.3865 25.163 57.2963 25.6327C57.0681 25.6835 57.1647 26.0332 57.393 25.9824Z" fill="#E6E6E6"/>
<path d="M57.2613 17.8755C59.1957 17.5473 61.1771 17.6176 63.0833 18.0821C64.8641 18.5174 66.6047 19.5117 68.4877 19.34C69.3595 19.2605 70.2226 18.9407 70.8148 18.2754C70.9697 18.1014 70.7135 17.844 70.5577 18.019C70.0468 18.5929 69.311 18.8903 68.5559 18.9707C67.6856 19.0633 66.8305 18.8834 66.0021 18.6279C65.0852 18.345 64.1945 17.9866 63.2622 17.7528C61.2679 17.2532 59.1907 17.1759 57.1646 17.5258C56.9345 17.565 57.0321 17.9146 57.2613 17.8755Z" fill="#E6E6E6"/>
<path d="M84.7304 17.0138C85.5662 17.8676 86.1427 18.9399 86.3932 20.1069C86.5859 21.0352 86.5642 21.995 86.3297 22.9137C86.0952 23.8324 85.6541 24.6857 85.0399 25.4091C84.8893 25.586 85.1452 25.8437 85.297 25.6655C86.1338 24.682 86.6681 23.4784 86.8358 22.1993C86.958 21.212 86.8553 20.2098 86.5352 19.2676C86.2152 18.3253 85.6861 17.4673 84.9874 16.7573C84.8233 16.5904 84.5663 16.8469 84.7304 17.0138Z" fill="#E6E6E6"/>
<path d="M90.1853 16.2414C89.0711 17.0565 88.4474 18.3723 88.3596 19.7332C88.2683 21.1492 88.8096 22.5167 89.6814 23.6161C90.1901 24.2491 90.7977 24.7963 91.4808 25.2364C91.6772 25.3646 91.8595 25.0507 91.6643 24.9233C90.5513 24.1968 89.5989 23.1649 89.0931 21.9264C88.8466 21.3382 88.7187 20.7072 88.7169 20.0696C88.7151 19.432 88.8394 18.8003 89.0826 18.2106C89.3549 17.5537 89.7992 16.9817 90.3688 16.5545C90.5555 16.4179 90.3744 16.1031 90.1853 16.2414Z" fill="#E6E6E6"/>
<path d="M64.6263 19.8867C65.5633 19.8867 66.3228 19.129 66.3228 18.1944C66.3228 17.2597 65.5633 16.502 64.6263 16.502C63.6893 16.502 62.9297 17.2597 62.9297 18.1944C62.9297 19.129 63.6893 19.8867 64.6263 19.8867Z" fill="#F9A826"/>
</g>
<defs>
<clipPath id="clip0">
<rect width="107" height="74" fill="white"/>
</clipPath>
</defs>
</svg>
