<svg width="37" height="38" viewBox="0 0 37 38" fill="none" xmlns="http://www.w3.org/2000/svg">
<path d="M26.9844 0.5H10.0155C4.49288 0.5 0 4.99288 0 10.5155V27.4847C0 33.007 4.49288 37.4999 10.0155 37.4999H26.9847C32.507 37.4999 36.9999 33.007 36.9999 27.4847V10.5155C36.9999 4.99288 32.507 0.5 26.9844 0.5V0.5ZM18.5 29.1169C12.9214 29.1169 8.38308 24.5785 8.38308 19C8.38308 13.4214 12.9214 8.88308 18.5 8.88308C24.0785 8.88308 28.6169 13.4214 28.6169 19C28.6169 24.5785 24.0785 29.1169 18.5 29.1169ZM28.8588 11.269C27.2102 11.269 25.8694 9.92811 25.8694 8.27955C25.8694 6.63099 27.2102 5.28985 28.8588 5.28985C30.5073 5.28985 31.8485 6.63099 31.8485 8.27955C31.8485 9.92811 30.5073 11.269 28.8588 11.269Z" fill="#D7D5D4"/>
<path d="M18.5005 11.0527C14.1183 11.0527 10.5527 14.618 10.5527 19.0005C10.5527 23.3828 14.1183 26.9483 18.5005 26.9483C22.883 26.9483 26.4483 23.3828 26.4483 19.0005C26.4483 14.618 22.883 11.0527 18.5005 11.0527Z" fill="#D7D5D4"/>
<path d="M28.8594 7.45898C28.4072 7.45898 28.0391 7.82709 28.0391 8.27931C28.0391 8.73153 28.4072 9.09964 28.8594 9.09964C29.3119 9.09964 29.68 8.73182 29.68 8.27931C29.68 7.8268 29.3119 7.45898 28.8594 7.45898Z" fill="#D7D5D4"/>
</svg>
