<svg width="37" height="38" viewBox="0 0 37 38" fill="none" xmlns="http://www.w3.org/2000/svg">
<path d="M34.2675 0.699219H2.73381C1.22385 0.699219 0 1.88573 0 3.35019V35.0471C0 36.5117 1.22428 37.6992 2.73381 37.6992H34.2675C35.7772 37.6992 36.9996 36.5109 36.9996 35.0471V3.35019C36.9996 1.88616 35.7772 0.699219 34.2675 0.699219ZM11.2172 31.6707H5.62686V14.9657H11.2172V31.6707ZM8.42261 12.6835H8.38501C6.51031 12.6835 5.29506 11.4014 5.29506 9.79631C5.29506 8.15887 6.54601 6.91154 8.45787 6.91154C10.3699 6.91154 11.546 8.15852 11.5832 9.79631C11.5832 11.4018 10.3703 12.6835 8.42261 12.6835ZM31.3689 31.6707H25.7803V22.733C25.7803 20.4872 24.9706 18.9547 22.9496 18.9547C21.4035 18.9547 20.4857 19.9886 20.0827 20.9867C19.9334 21.3432 19.8964 21.8418 19.8964 22.3397V31.6704H14.3088C14.3088 31.6704 14.3819 16.5322 14.3088 14.9654H19.8972V17.3337C20.6391 16.1957 21.9648 14.5724 24.9325 14.5724C28.6108 14.5724 31.3689 16.9586 31.3689 22.092V31.6707ZM19.8611 17.3868C19.8706 17.3711 19.884 17.3523 19.8972 17.334V17.3868H19.8611Z" fill="#D7D5D4"/>
</svg>
