<svg width="37" height="38" viewBox="0 0 37 38" fill="none" xmlns="http://www.w3.org/2000/svg">
<path d="M33.3 0.300781H3.7C1.665 0.300781 0 1.96578 0 4.00078V33.6008C0 35.6358 1.665 37.3008 3.7 37.3008H33.3C35.335 37.3008 37 35.6358 37 33.6008V4.00078C37 1.96578 35.335 0.300781 33.3 0.300781ZM29.045 13.8058C28.86 22.3158 23.495 28.2358 15.355 28.6058C12.025 28.7908 9.62 27.6808 7.4 26.3858C9.805 26.7559 12.95 25.8309 14.615 24.3508C12.21 24.1658 10.73 22.8708 9.99 20.8358C10.73 21.0208 11.47 20.8358 12.025 20.8358C9.805 20.0958 8.325 18.8008 8.14 15.8408C8.695 16.2108 9.435 16.3958 10.175 16.3958C8.51 15.4708 7.4 11.9558 8.695 9.73578C11.1 12.3258 14.06 14.5458 18.87 14.9158C17.575 9.73578 24.6051 6.96078 27.3801 10.4758C28.6751 10.2908 29.6001 9.73578 30.5251 9.36578C30.1551 10.6608 29.4151 11.4008 28.4901 12.1408C29.4151 11.9558 30.3401 11.7708 31.0801 11.4008C30.895 12.3258 29.97 13.0658 29.045 13.8058Z" fill="#D7D5D4"/>
</svg>
