<svg width="17" height="13" viewBox="0 0 17 13" fill="none" xmlns="http://www.w3.org/2000/svg">
<path fill-rule="evenodd" clip-rule="evenodd" d="M8.50387 1.16431C9.62483 0.310484 11.2483 0 12.7558 0C13.8768 0 15.0673 0.170766 16.0568 0.613205C16.6212 0.869354 17 1.42046 17 2.04919V10.8048C17 11.8217 16.0568 12.5668 15.0828 12.3107C14.3251 12.1166 13.5211 12.0312 12.7481 12.0312C11.5421 12.0312 10.2588 12.2253 9.22283 12.7454C8.76671 12.9782 8.24102 12.9782 7.77717 12.7454C6.74125 12.2331 5.45794 12.0312 4.25193 12.0312C3.47885 12.0312 2.67485 12.1166 1.91724 12.3107C0.943156 12.5591 0 11.8139 0 10.8048V2.04919C0 1.42046 0.378809 0.869354 0.943156 0.613205C1.94043 0.170766 3.13097 0 4.25193 0C5.75944 0 7.3829 0.310484 8.50387 1.16431ZM14.534 10.6418C15.0133 10.7272 15.4617 10.3702 15.4617 9.88115V2.53046C15.4617 2.16564 15.1988 1.84739 14.8432 1.76977C14.1706 1.62229 13.4671 1.55243 12.7559 1.55243C11.4417 1.55243 9.54761 2.05697 8.50396 2.71675V11.6509C9.54761 10.9911 11.4417 10.4866 12.7559 10.4866C13.3512 10.4866 13.9542 10.5332 14.534 10.6418Z" fill="#F58E08"/>
</svg>
