<svg width="6" height="10" viewBox="0 0 6 10" fill="none" xmlns="http://www.w3.org/2000/svg">
<path d="M5.67495 4.6098L1.25632 0.159755C1.15412 0.0567475 1.0177 0 0.872231 0C0.726765 0 0.59034 0.0567475 0.488143 0.159755L0.162741 0.487394C-0.0489999 0.700889 -0.0489999 1.04788 0.162741 1.26105L3.87317 4.99793L0.158624 8.73895C0.0564266 8.84196 0 8.97928 0 9.1257C0 9.27228 0.0564266 9.4096 0.158624 9.51269L0.484026 9.84025C0.586304 9.94325 0.722648 10 0.868114 10C1.01358 10 1.15 9.94325 1.2522 9.84025L5.67495 5.38614C5.77739 5.2828 5.83365 5.14484 5.83333 4.99817C5.83365 4.85094 5.77739 4.71305 5.67495 4.6098Z" fill="#E6E1DD" fill-opacity="0.8"/>
</svg>
