<svg width="24" height="23" viewBox="0 0 24 23" fill="none" xmlns="http://www.w3.org/2000/svg">
<g filter="url(#filter0_d)">
<path fill-rule="evenodd" clip-rule="evenodd" d="M18.9208 2.19342C19.2455 2.51837 19.2455 3.04329 18.9208 3.36824L17.3973 4.89302L14.2753 1.76848L15.7989 0.243702C15.9544 0.0876812 16.1656 0 16.3858 0C16.606 0 16.8172 0.0876812 16.9727 0.243702L18.9208 2.19342ZM4.17676 14.5834V12.0504C4.17676 11.9338 4.21838 11.8338 4.30164 11.7505L13.3845 2.66016L16.5064 5.7847L7.41527 14.875C7.34035 14.9584 7.23212 15 7.12389 15H4.59302C4.35991 15 4.17676 14.8167 4.17676 14.5834Z" fill="#2C313B"/>
</g>
<defs>
<filter id="filter0_d" x="0.176758" y="0" width="22.9876" height="23" filterUnits="userSpaceOnUse" color-interpolation-filters="sRGB">
<feFlood flood-opacity="0" result="BackgroundImageFix"/>
<feColorMatrix in="SourceAlpha" type="matrix" values="0 0 0 0 0 0 0 0 0 0 0 0 0 0 0 0 0 0 127 0"/>
<feOffset dy="4"/>
<feGaussianBlur stdDeviation="2"/>
<feColorMatrix type="matrix" values="0 0 0 0 0 0 0 0 0 0 0 0 0 0 0 0 0 0 0.25 0"/>
<feBlend mode="normal" in2="BackgroundImageFix" result="effect1_dropShadow"/>
<feBlend mode="normal" in="SourceGraphic" in2="effect1_dropShadow" result="shape"/>
</filter>
</defs>
</svg>
