<svg width="17" height="17" viewBox="0 0 17 17" fill="none" xmlns="http://www.w3.org/2000/svg">
<path fill-rule="evenodd" clip-rule="evenodd" d="M16.0556 0H0.944444C0.425 0 0 0.425 0 0.944444V16.0556C0 16.575 0.425 17 0.944444 17H16.0556C16.575 17 17 16.575 17 16.0556V0.944444C17 0.425 16.575 0 16.0556 0ZM5.66652 3.7778H3.77763V5.66669H5.66652V3.7778ZM12.2774 5.66669H8.49965C7.9802 5.66669 7.5552 5.24168 7.5552 4.72224C7.5552 4.2028 7.9802 3.7778 8.49965 3.7778H12.2774C12.7969 3.7778 13.2219 4.2028 13.2219 4.72224C13.2219 5.24168 12.7969 5.66669 12.2774 5.66669ZM12.2774 9.44448H8.49965C7.9802 9.44448 7.5552 9.01948 7.5552 8.50003C7.5552 7.98059 7.9802 7.55559 8.49965 7.55559H12.2774C12.7969 7.55559 13.2219 7.98059 13.2219 8.50003C13.2219 9.01948 12.7969 9.44448 12.2774 9.44448ZM8.49965 13.2222H12.2774C12.7969 13.2222 13.2219 12.7972 13.2219 12.2778C13.2219 11.7583 12.7969 11.3333 12.2774 11.3333H8.49965C7.9802 11.3333 7.5552 11.7583 7.5552 12.2778C7.5552 12.7972 7.9802 13.2222 8.49965 13.2222ZM3.77763 7.55559H5.66652V9.44448H3.77763V7.55559ZM5.66652 11.3333H3.77763V13.2222H5.66652V11.3333ZM1.88992 15.1111H15.1121V1.8889H1.88992V15.1111Z" fill="#D7D5D4"/>
</svg>
