<svg width="17" height="17" viewBox="0 0 17 17" fill="none" xmlns="http://www.w3.org/2000/svg">
<path fill-rule="evenodd" clip-rule="evenodd" d="M8.5 0C3.808 0 0 3.808 0 8.5C0 13.192 3.808 17 8.5 17C13.192 17 17 13.192 17 8.5C17 3.808 13.192 0 8.5 0ZM4.88767 9.34999C4.88767 8.76349 5.36367 8.28749 5.95017 8.28749C6.53667 8.28749 7.01267 8.76349 7.01267 9.34999C7.01267 9.93649 6.53667 10.4125 5.95017 10.4125C5.36367 10.4125 4.88767 9.93649 4.88767 9.34999ZM9.98733 9.34999C9.98733 8.76349 10.4633 8.28749 11.0498 8.28749C11.6363 8.28749 12.1123 8.76349 12.1123 9.34999C12.1123 9.93649 11.6363 10.4125 11.0498 10.4125C10.4633 10.4125 9.98733 9.93649 9.98733 9.34999ZM1.70017 8.5C1.70017 12.2485 4.75167 15.3 8.50017 15.3C12.2487 15.3 15.3002 12.2485 15.3002 8.5C15.3002 7.8285 15.1982 7.1825 15.0197 6.579C14.4077 6.7235 13.7702 6.8 13.1072 6.8C10.2427 6.8 7.70967 5.3805 6.17117 3.2045C5.33817 5.236 3.74867 6.8765 1.74267 7.769C1.71717 8.007 1.70017 8.2535 1.70017 8.5Z" fill="#F58E08"/>
</svg>
