<svg width="17" height="17" viewBox="0 0 17 17" fill="none" xmlns="http://www.w3.org/2000/svg">
<path fill-rule="evenodd" clip-rule="evenodd" d="M12.75 4.25C12.75 6.59812 10.8481 8.5 8.5 8.5C6.15188 8.5 4.25 6.59812 4.25 4.25C4.25 1.90188 6.15188 0 8.5 0C10.8481 0 12.75 1.90188 12.75 4.25ZM10.625 4.25C10.625 3.08125 9.66875 2.125 8.5 2.125C7.33125 2.125 6.375 3.08125 6.375 4.25C6.375 5.41875 7.33125 6.375 8.5 6.375C9.66875 6.375 10.625 5.41875 10.625 4.25ZM8.5 9.5625C5.66313 9.5625 0 10.9862 0 13.8125V15.9375C0 16.5219 0.478125 17 1.0625 17H15.9375C16.5219 17 17 16.5219 17 15.9375V13.8125C17 10.9862 11.3369 9.5625 8.5 9.5625ZM2.125 13.8231V14.875H14.875V13.8125C14.6625 13.0581 11.3687 11.6875 8.5 11.6875C5.63125 11.6875 2.3375 13.0581 2.125 13.8231Z" fill="#F58E08"/>
</svg>
