<svg width="19" height="18" viewBox="0 0 19 18" fill="none" xmlns="http://www.w3.org/2000/svg">
<path d="M6.30928 5.09766H3.13601C2.80741 5.09766 2.54102 5.33377 2.54102 5.625C2.54102 5.91623 2.80741 6.15234 3.13601 6.15234H6.30928C6.63788 6.15234 6.90427 5.91623 6.90427 5.625C6.90427 5.33377 6.63788 5.09766 6.30928 5.09766Z" fill="#F58E08"/>
<path d="M6.30928 7.91016H3.13601C2.80741 7.91016 2.54102 8.14627 2.54102 8.4375C2.54102 8.72873 2.80741 8.96484 3.13601 8.96484H6.30928C6.63788 8.96484 6.90427 8.72873 6.90427 8.4375C6.90427 8.14627 6.63788 7.91016 6.30928 7.91016Z" fill="#F58E08"/>
<path d="M6.30928 10.7227H3.13601C2.80741 10.7227 2.54102 10.9588 2.54102 11.25C2.54102 11.5412 2.80741 11.7773 3.13601 11.7773H6.30928C6.63788 11.7773 6.90427 11.5412 6.90427 11.25C6.90427 10.9588 6.63788 10.7227 6.30928 10.7227Z" fill="#F58E08"/>
<path d="M14.8351 9.66544V4.85086C14.8351 4.15582 14.5327 3.50012 13.9836 3.00421L11.5695 0.791508C11.5683 0.790453 11.5672 0.789363 11.566 0.788309C11.0102 0.287332 10.2367 0 9.44407 0H1.78497C0.800737 0 0 0.709699 0 1.58203V15.2578C0 16.1301 0.800737 16.8398 1.78497 16.8398H10.9809C11.8287 17.5582 12.9773 18 14.2401 18C16.8647 18 19 16.1233 19 13.8164C19 11.6866 17.1799 9.92359 14.8351 9.66544ZM1.18998 15.2578V1.58203C1.18998 1.29125 1.45689 1.05469 1.78497 1.05469H9.44407C9.91903 1.05469 10.3825 1.22664 10.716 1.52641L13.1297 3.73876C13.1309 3.73982 13.132 3.74087 13.1331 3.74189C13.4633 4.03956 13.6451 4.43338 13.6451 4.85089V9.66596C11.3222 9.92605 9.51983 11.6882 9.51983 13.8164C9.51983 14.5278 9.72142 15.1981 10.0762 15.7852H1.78497C1.45689 15.7852 1.18998 15.5486 1.18998 15.2578ZM14.2401 16.9453C12.2935 16.9453 10.7098 15.5417 10.7098 13.8164C10.7098 12.0911 12.2935 10.6875 14.2401 10.6875C16.2085 10.6875 17.81 12.0911 17.81 13.8164C17.81 15.5417 16.2085 16.9453 14.2401 16.9453Z" fill="#F58E08"/>
<path d="M15.6114 12.5675C15.359 12.3811 14.9838 12.4113 14.7734 12.635L13.7692 13.7031L13.5414 13.2993C13.3944 13.0388 13.037 12.9332 12.7431 13.0635C12.4492 13.1937 12.3301 13.5105 12.477 13.771L13.1117 14.896C13.2015 15.0552 13.3758 15.1634 13.5752 15.184C13.5982 15.1863 13.6211 15.1875 13.6439 15.1875C13.8193 15.1875 13.9872 15.1187 14.1009 14.9977L15.6876 13.3102C15.8979 13.0864 15.8638 12.7539 15.6114 12.5675Z" fill="#F58E08"/>
<path d="M9.48171 6.15234H10.1164C10.445 6.15234 10.7114 5.91623 10.7114 5.625C10.7114 5.33377 10.445 5.09766 10.1164 5.09766H9.48171C9.15312 5.09766 8.88672 5.33377 8.88672 5.625C8.88672 5.91623 9.15312 6.15234 9.48171 6.15234Z" fill="#F58E08"/>
<path d="M10.7114 8.4375C10.7114 8.14627 10.445 7.91016 10.1164 7.91016H9.48171C9.15312 7.91016 8.88672 8.14627 8.88672 8.4375C8.88672 8.72873 9.15312 8.96484 9.48171 8.96484H10.1164C10.445 8.96484 10.7114 8.72873 10.7114 8.4375Z" fill="#F58E08"/>
</svg>
