<svg width="23" height="23" viewBox="0 0 23 23" fill="none" xmlns="http://www.w3.org/2000/svg">
<g filter="url(#filter0_d_1002_10156)">
<path fill-rule="evenodd" clip-rule="evenodd" d="M18.7563 2.19329C19.0812 2.51822 19.0812 3.04311 18.7563 3.36805L17.2315 4.89273L14.1069 1.76838L15.6317 0.243688C15.7874 0.0876761 15.9987 0 16.2191 0C16.4395 0 16.6509 0.0876761 16.8065 0.243688L18.7563 2.19329ZM4 14.5818V12.049C4 11.9323 4.04166 11.8324 4.12498 11.749L13.2153 2.65924L16.3399 5.7836L7.24119 14.8734C7.1662 14.9567 7.05788 14.9984 6.94957 14.9984H4.41661C4.18331 14.9984 4 14.8151 4 14.5818Z" fill="#F58E08"/>
</g>
<defs>
<filter id="filter0_d_1002_10156" x="0" y="0" width="22.9999" height="22.9983" filterUnits="userSpaceOnUse" color-interpolation-filters="sRGB">
<feFlood flood-opacity="0" result="BackgroundImageFix"/>
<feColorMatrix in="SourceAlpha" type="matrix" values="0 0 0 0 0 0 0 0 0 0 0 0 0 0 0 0 0 0 127 0" result="hardAlpha"/>
<feOffset dy="4"/>
<feGaussianBlur stdDeviation="2"/>
<feColorMatrix type="matrix" values="0 0 0 0 0 0 0 0 0 0 0 0 0 0 0 0 0 0 0.25 0"/>
<feBlend mode="normal" in2="BackgroundImageFix" result="effect1_dropShadow_1002_10156"/>
<feBlend mode="normal" in="SourceGraphic" in2="effect1_dropShadow_1002_10156" result="shape"/>
</filter>
</defs>
</svg>
