<svg width="45" height="45" viewBox="0 0 45 45" fill="none" xmlns="http://www.w3.org/2000/svg">
<path d="M32.6685 20.918L17.1997 11.5137C15.811 10.7402 14.062 11.7334 14.062 13.3594V31.6406C14.062 33.2578 15.8022 34.2598 17.1997 33.4863L32.6685 24.6094C34.1099 23.8096 34.1099 21.7266 32.6685 20.918ZM44.2964 22.5C44.2964 10.459 34.5405 0.703125 22.4995 0.703125C10.4585 0.703125 0.702637 10.459 0.702637 22.5C0.702637 34.541 10.4585 44.2969 22.4995 44.2969C34.5405 44.2969 44.2964 34.541 44.2964 22.5ZM4.92139 22.5C4.92139 12.7881 12.7876 4.92188 22.4995 4.92188C32.2114 4.92188 40.0776 12.7881 40.0776 22.5C40.0776 32.2119 32.2114 40.0781 22.4995 40.0781C12.7876 40.0781 4.92139 32.2119 4.92139 22.5Z" fill="#FAFAFA"/>
</svg>
