<svg width="19" height="18" viewBox="0 0 19 18" fill="none" xmlns="http://www.w3.org/2000/svg">
<path d="M3.79688 13.4883H1.41016V16H0.660156V10.3125H4.18359V10.9297H1.41016V12.875H3.79688V13.4883ZM5.75391 16H5.03125V11.7734H5.75391V16ZM4.97266 10.6523C4.97266 10.5352 5.00781 10.4362 5.07812 10.3555C5.15104 10.2747 5.25781 10.2344 5.39844 10.2344C5.53906 10.2344 5.64583 10.2747 5.71875 10.3555C5.79167 10.4362 5.82812 10.5352 5.82812 10.6523C5.82812 10.7695 5.79167 10.8672 5.71875 10.9453C5.64583 11.0234 5.53906 11.0625 5.39844 11.0625C5.25781 11.0625 5.15104 11.0234 5.07812 10.9453C5.00781 10.8672 4.97266 10.7695 4.97266 10.6523ZM7.69922 16H6.97656V10H7.69922V16ZM9.83984 10.75V11.7734H10.6289V12.332H9.83984V14.9531C9.83984 15.1224 9.875 15.25 9.94531 15.3359C10.0156 15.4193 10.1354 15.4609 10.3047 15.4609C10.388 15.4609 10.5026 15.4453 10.6484 15.4141V16C10.4583 16.0521 10.2734 16.0781 10.0938 16.0781C9.77083 16.0781 9.52734 15.9805 9.36328 15.7852C9.19922 15.5898 9.11719 15.3125 9.11719 14.9531V12.332H8.34766V11.7734H9.11719V10.75H9.83984ZM13.5195 12.4219C13.4102 12.4036 13.2917 12.3945 13.1641 12.3945C12.6901 12.3945 12.3685 12.5964 12.1992 13V16H11.4766V11.7734H12.1797L12.1914 12.2617C12.4284 11.8841 12.7643 11.6953 13.1992 11.6953C13.3398 11.6953 13.4466 11.7135 13.5195 11.75V12.4219ZM13.918 13.8477C13.918 13.4336 13.9987 13.0612 14.1602 12.7305C14.3242 12.3997 14.5508 12.1445 14.8398 11.9648C15.1315 11.7852 15.4635 11.6953 15.8359 11.6953C16.4115 11.6953 16.8763 11.8945 17.2305 12.293C17.5872 12.6914 17.7656 13.2214 17.7656 13.8828V13.9336C17.7656 14.3451 17.6862 14.7148 17.5273 15.043C17.3711 15.3685 17.1458 15.6224 16.8516 15.8047C16.5599 15.987 16.224 16.0781 15.8438 16.0781C15.2708 16.0781 14.806 15.8789 14.4492 15.4805C14.0951 15.082 13.918 14.5547 13.918 13.8984V13.8477ZM14.6445 13.9336C14.6445 14.4023 14.7526 14.7786 14.9688 15.0625C15.1875 15.3464 15.4792 15.4883 15.8438 15.4883C16.2109 15.4883 16.5026 15.3451 16.7188 15.0586C16.9349 14.7695 17.043 14.3659 17.043 13.8477C17.043 13.3841 16.9323 13.0091 16.7109 12.7227C16.4922 12.4336 16.2005 12.2891 15.8359 12.2891C15.4792 12.2891 15.1914 12.431 14.9727 12.7148C14.7539 12.9987 14.6445 13.4049 14.6445 13.9336Z" fill="white"/>
<path d="M7 6.5C7 6.36739 7.05268 6.24021 7.14645 6.14645C7.24021 6.05268 7.36739 6 7.5 6H10.5C10.6326 6 10.7598 6.05268 10.8536 6.14645C10.9473 6.24021 11 6.36739 11 6.5C11 6.63261 10.9473 6.75979 10.8536 6.85355C10.7598 6.94732 10.6326 7 10.5 7H7.5C7.36739 7 7.24021 6.94732 7.14645 6.85355C7.05268 6.75979 7 6.63261 7 6.5ZM5 3.5C5 3.36739 5.05268 3.24021 5.14645 3.14645C5.24021 3.05268 5.36739 3 5.5 3H12.5C12.6326 3 12.7598 3.05268 12.8536 3.14645C12.9473 3.24021 13 3.36739 13 3.5C13 3.63261 12.9473 3.75979 12.8536 3.85355C12.7598 3.94732 12.6326 4 12.5 4H5.5C5.36739 4 5.24021 3.94732 5.14645 3.85355C5.05268 3.75979 5 3.63261 5 3.5ZM3 0.5C3 0.367392 3.05268 0.240215 3.14645 0.146447C3.24021 0.0526785 3.36739 0 3.5 0H14.5C14.6326 0 14.7598 0.0526785 14.8536 0.146447C14.9473 0.240215 15 0.367392 15 0.5C15 0.632608 14.9473 0.759785 14.8536 0.853553C14.7598 0.947321 14.6326 1 14.5 1H3.5C3.36739 1 3.24021 0.947321 3.14645 0.853553C3.05268 0.759785 3 0.632608 3 0.5Z" fill="#F0F0F0"/>
</svg>
