<svg width="20" height="31" viewBox="0 0 20 31" fill="none" xmlns="http://www.w3.org/2000/svg">
<path d="M18.4824 30.1844C18.7545 29.9276 18.9704 29.6225 19.1177 29.2866C19.265 28.9508 19.3408 28.5907 19.3408 28.2271C19.3408 27.8635 19.265 27.5034 19.1177 27.1676C18.9704 26.8317 18.7545 26.5266 18.4824 26.2698L7.09342 15.4976L18.4824 4.72539C19.0312 4.20627 19.3396 3.5022 19.3396 2.76807C19.3396 2.03393 19.0312 1.32986 18.4824 0.810745C17.9336 0.291632 17.1892 0 16.413 0C15.6368 0 14.8925 0.291632 14.3436 0.810745L0.870565 13.5541C0.598454 13.811 0.382568 14.1161 0.23527 14.4519C0.0879726 14.7878 0.0121555 15.1479 0.0121555 15.5115C0.0121555 15.8751 0.0879726 16.2351 0.23527 16.571C0.382568 16.9068 0.598454 17.2119 0.870565 17.4688L14.3436 30.2122C15.459 31.2672 17.3376 31.2672 18.4824 30.1844Z" fill="#282C35"/>
</svg>
