<svg width="165" height="170" viewBox="0 0 165 170" fill="none" xmlns="http://www.w3.org/2000/svg">
<path d="M82.4894 44.9833C67.0687 44.7636 52.2399 55.2571 46.5641 70.2009C40.7497 84.579 43.964 102.276 54.4197 113.431C64.5856 124.859 81.3358 129.07 95.3661 123.714C110.069 118.484 120.87 103.298 121.259 87.0596C122.042 71.2839 112.963 55.6854 99.2918 48.9858C94.0751 46.3483 88.2845 44.9753 82.4894 44.9833ZM82.4894 52.3661C96.584 52.0874 109.94 62.8906 113.221 77.2021C116.818 90.9543 110.758 106.635 98.9601 113.841C86.9141 121.735 69.9303 119.631 60.0386 108.94C49.5998 98.4242 47.7409 80.2309 55.7494 67.6202C61.4214 58.212 71.8388 52.2578 82.4894 52.3661ZM92.5133 61.7807L81.9165 81.8553C78.6435 82.2188 77.8661 87.4035 80.8858 88.7864C82.8805 90.2322 84.4429 87.8274 86.2586 87.9103H102.458V83.296H86.2016L96.3833 64.008L92.5133 61.7807ZM83.1498 0.474794L82.022 0.476732H81.9923L81.9624 0.477286L80.8347 0.495189L80.8049 0.495743L80.7752 0.496665L79.6478 0.53035L79.618 0.531272L79.5883 0.532564L78.4615 0.582122L78.4318 0.583506L78.4019 0.585167L77.276 0.650597L77.2461 0.652443L77.2164 0.654565L76.0913 0.735777L76.0616 0.737992L76.0319 0.740483L74.908 0.837659L74.8783 0.840151L74.8486 0.843104L73.7262 0.956061L73.6965 0.959106L73.6668 0.962429L72.5459 1.09126L72.5162 1.09467L72.4865 1.09846L71.3677 1.24307L71.338 1.24676L71.3083 1.25119L70.1916 1.4114L70.1619 1.41573L70.1322 1.42035L69.0179 1.59652L68.9882 1.60113L68.9585 1.60621L67.8467 1.79816L67.817 1.80324L67.7873 1.80878L66.6784 2.01642L66.6485 2.02205L66.619 2.02805L65.5131 2.25138L65.4834 2.25747L65.4537 2.26374L64.351 2.50295L64.3211 2.50941L64.2917 2.51633L63.1924 2.77113L63.1628 2.77805L63.1331 2.78543L62.0377 3.05592L62.0078 3.0633L61.9783 3.07105L61.3872 3.22628L60.6105 3.51255L59.8983 3.94453L59.2751 4.50692L58.7628 5.18051L58.3791 5.94149L58.1373 6.76357L58.0458 7.61831L58.1077 8.4761L58.3211 9.30667L58.6784 10.0817L59.1671 10.774L59.7705 11.3595L60.4674 11.8178L61.2338 12.1333L62.0428 12.2946L62.8664 12.2965L63.5406 12.1766L64.1005 12.0296L65.1342 11.7744L66.1745 11.5329L67.233 11.3035L68.269 11.0943L69.3206 10.8975L70.3754 10.7154L71.421 10.5502L72.4817 10.3978L73.5321 10.2622L74.5973 10.1397L75.6639 10.0323L76.7324 9.94021L77.8027 9.86269L78.8615 9.80122L79.9335 9.75416L81.0058 9.72214L82.0657 9.70534L83.1386 9.7034L84.2109 9.71651L85.2705 9.74465L86.3284 9.78738L87.4108 9.84644L88.4661 9.91907L89.5332 10.0078L90.598 10.1114L91.661 10.2304L92.7094 10.3627L93.7639 10.5111L94.8202 10.6751L95.8816 10.8559L96.9299 11.0497L97.9605 11.256L98.2278 11.3132L99.0465 11.4075L99.8678 11.3416L100.663 11.1176L101.405 10.7434L102.067 10.2318L102.626 9.60097L103.065 8.87247L103.366 8.0718L103.519 7.22684L103.52 6.36674L103.367 5.5215L103.067 4.72046L102.63 3.9916L102.071 3.35981L101.41 2.84763L100.668 2.47231L100.011 2.27463L99.7201 2.21206L99.6898 2.2056L99.6596 2.19942L98.5545 1.97849L98.5245 1.97249L98.4943 1.96695L97.3861 1.7618L97.356 1.75627L97.326 1.75119L96.2148 1.56201L96.1847 1.55702L96.1547 1.55241L95.041 1.37928L95.011 1.37467L94.9808 1.37033L93.8646 1.21335L93.8347 1.20901L93.8045 1.20523L92.6863 1.06403L92.6563 1.06034L92.6262 1.05702L91.506 0.93179L91.4762 0.928375L91.4461 0.925423L90.3242 0.816249L90.2941 0.813388L90.2642 0.810804L89.1407 0.717504L89.1108 0.71492L89.0809 0.712982L87.956 0.635463L87.9262 0.633432L87.8963 0.631864L86.7705 0.570217L86.7407 0.568555L86.7108 0.567541L85.584 0.521859L85.5543 0.52066L85.5244 0.519921L84.397 0.490113L84.3671 0.48919L84.3375 0.488821L83.2097 0.474978L83.18 0.474609L83.1498 0.474794ZM127.683 15.3259L126.878 15.5069L126.119 15.8412L125.433 16.3165L124.843 16.9167L124.37 17.6207L124.03 18.4042L123.836 19.2401L123.793 20.0989L123.904 20.9511L124.164 21.7672L124.565 22.5185L125.092 23.1793L125.613 23.6422L125.879 23.8436L125.885 23.8479L126.328 24.1897L126.333 24.1938L126.749 24.5198L126.756 24.5255L127.148 24.8379L127.154 24.8428L127.58 25.1881L128.002 25.5367L128.01 25.5431L128.412 25.8806L128.423 25.8899L128.817 26.2261L129.231 26.586L129.241 26.5947L129.633 26.9404L130.021 27.2893L130.03 27.2967L130.435 27.6672L130.838 28.0412L130.847 28.0493L131.228 28.4094L131.625 28.7908L131.634 28.7992L132.008 29.165L132.399 29.5536L132.766 29.9249L132.776 29.9351L133.171 30.3414L133.174 30.3444L133.525 30.712L133.533 30.72L133.912 31.1232L134.273 31.5143L134.278 31.5192L134.66 31.9405L134.669 31.9499L135.021 32.3441L135.374 32.7461L135.377 32.7502L135.75 33.1824L136.109 33.6065L136.118 33.6163L136.467 34.0366L136.472 34.0424L136.813 34.4587L137.163 34.8944L137.494 35.3125L137.502 35.3236L137.846 35.7664L138.188 36.2156L138.512 36.6475L138.518 36.6558L138.861 37.1221L138.868 37.1322L139.191 37.5793L139.198 37.5888L139.524 38.0493L139.564 38.106L139.606 38.1612L140.09 38.8023L140.564 39.443L141.021 40.0766L141.469 40.7106L141.921 41.3653L142.361 42.0181L142.787 42.6647L143.204 43.3109L143.21 43.3199L143.635 43.9956L144.049 44.6684L144.456 45.3462L144.85 46.017L145.25 46.7167L145.63 47.3964L146.01 48.0931L146.384 48.7943L146.743 49.4872L147.103 50.1968L147.452 50.9037L147.684 51.3875L148.121 52.1169L148.68 52.7489L149.341 53.2617L150.082 53.6373L150.877 53.863L151.698 53.9306L152.517 53.8379L153.305 53.5883L154.035 53.1901L154.682 52.6573L155.222 52.0086L155.639 51.2663L155.916 50.4563L156.044 49.6067L156.019 48.7471L155.841 47.9072L155.582 47.246L155.339 46.7397L155.328 46.7182L155.318 46.6966L154.947 45.9445L154.936 45.923L154.925 45.9016L154.546 45.1535L154.536 45.1321L154.525 45.1109L154.138 44.367L154.127 44.3458L154.116 44.3245L153.722 43.5847L153.711 43.5637L153.699 43.5424L153.298 42.8071L153.287 42.7861L153.275 42.7649L152.866 42.034L152.854 42.013L152.842 41.992L152.426 41.2658L152.414 41.2448L152.402 41.224L151.979 40.5024L151.966 40.4814L151.954 40.4608L151.523 39.7437L151.511 39.7228L151.498 39.7023L151.06 38.9901L151.047 38.9693L151.034 38.9488L150.589 38.2414L150.576 38.2208L150.563 38.2002L150.11 37.498L150.097 37.4775L150.084 37.4571L149.624 36.7597L149.61 36.7394L149.597 36.7191L149.13 36.0269L149.116 36.0066L149.102 35.9865L148.628 35.2996L148.614 35.2793L148.6 35.2592L148.119 34.5776L148.105 34.5575L148.09 34.5375L147.602 33.8613L147.587 33.8412L147.573 33.8214L147.077 33.1508L147.063 33.1307L147.048 33.1111L146.587 32.5016L146.277 32.0646L146.266 32.0483L146.254 32.0322L145.901 31.5433L145.89 31.5273L145.878 31.5112L145.521 31.0265L145.509 31.0105L145.498 30.9946L145.138 30.5141L145.126 30.4982L145.114 30.4825L144.751 30.006L144.739 29.9902L144.726 29.9747L144.36 29.5022L144.348 29.4865L144.335 29.4711L143.965 29.0027L143.953 28.9872L143.941 28.9719L143.567 28.5077L143.555 28.4923L143.543 28.477L143.166 28.0168L143.154 28.0017L143.141 27.9866L142.761 27.5305L142.749 27.5154L142.736 27.5006L142.353 27.0486L142.34 27.0336L142.328 27.0189L141.941 26.5709L141.929 26.5561L141.916 26.5414L141.526 26.0975L141.513 26.083L141.501 26.0684L141.108 25.6286L141.095 25.6142L141.082 25.5997L140.686 25.1641L140.673 25.1496L140.66 25.1354L140.261 24.7039L140.248 24.6897L140.235 24.6757L139.833 24.2481L139.82 24.2341L139.807 24.2202L139.402 23.7966L139.388 23.7827L139.375 23.769L138.967 23.3496L138.954 23.3359L138.94 23.3222L138.53 22.9069L138.516 22.8932L138.503 22.8797L138.089 22.4686L138.075 22.455L138.062 22.4417L137.645 22.0345L137.631 22.0213L137.618 22.008L137.198 21.605L137.184 21.5919L137.171 21.5789L136.748 21.1798L136.734 21.1669L136.721 21.1539L136.295 20.7589L136.282 20.7462L136.268 20.7333L135.84 20.3426L135.826 20.3297L135.812 20.3173L135.381 19.9305L135.367 19.9179L135.353 19.9054L134.919 19.5228L134.905 19.5104L134.891 19.4981L134.455 19.1194L134.441 19.1072L134.427 19.0951L133.988 18.7205L133.974 18.7085L133.959 18.6964L133.518 18.326L133.504 18.314L133.489 18.3022L133.045 17.9358L133.031 17.9238L133.017 17.9123L132.57 17.5499L132.555 17.5383L132.541 17.5268L132.092 17.1684L132.077 17.1569L132.063 17.1456L131.611 16.7914L131.596 16.78L131.582 16.7688L131.128 16.4186L131.113 16.4075L131.098 16.3964L130.803 16.1726L130.094 15.7346L129.32 15.4415L128.507 15.3036L127.683 15.3259ZM33.3582 17.5989L32.5563 17.796L31.8036 18.1451L31.2348 18.5416L31.1977 18.5721L31.1836 18.5834L31.1698 18.5952L30.7295 18.9625L30.7154 18.9743L30.7016 18.986L30.2639 19.3573L30.2501 19.369L30.2363 19.3809L29.8013 19.7561L29.7874 19.7681L29.7736 19.7801L29.3415 20.1592L29.3276 20.1712L29.3138 20.1835L28.8843 20.5664L28.8707 20.5786L28.8571 20.5908L28.4304 20.9777L28.4166 20.9901L28.4031 21.0025L27.9791 21.3932L27.9655 21.4057L27.9521 21.4184L27.5309 21.8129L27.5174 21.8255L27.504 21.8383L27.0857 22.2366L27.0723 22.2495L27.0587 22.2624L26.6434 22.6648L26.63 22.6777L26.6168 22.6907L26.2043 23.0967L26.191 23.1099L26.1778 23.1233L25.7683 23.5332L25.7551 23.5465L25.7419 23.5598L25.3353 23.9737L25.3221 23.987L25.3092 24.0007L24.9056 24.4184L24.8925 24.4318L24.8795 24.4456L24.479 24.867L24.466 24.8808L24.453 24.8946L24.0556 25.32L24.0426 25.3338L24.0299 25.3479L23.6355 25.777L23.6227 25.7911L23.6099 25.8051L23.2188 26.2383L23.2059 26.2525L23.1932 26.2667L22.8052 26.7037L22.7924 26.7179L22.7798 26.7323L22.3951 27.173L22.3824 27.1877L22.3699 27.2022L21.9884 27.6467L21.9758 27.6614L21.9634 27.6761L21.585 28.1245L21.5726 28.1393L21.5602 28.1541L21.185 28.6063L21.1728 28.6213L21.1605 28.6363L20.7887 29.0924L20.7764 29.1074L20.7642 29.1225L20.3959 29.5825L20.3836 29.5977L20.3715 29.613L20.0065 30.0767L19.9943 30.0921L19.9824 30.1076L19.6206 30.5752L19.6087 30.5907L19.5968 30.6062L19.2384 31.0777L19.2267 31.0933L19.2149 31.109L18.8601 31.5843L18.8483 31.6L18.8366 31.6159L18.4852 32.0949L18.4736 32.1108L18.462 32.1269L18.114 32.6098L18.1027 32.6257L18.0912 32.6418L17.7467 33.1287L17.7353 33.1448L17.7241 33.1609L17.3832 33.6518L17.372 33.6679L17.3607 33.6842L17.0235 34.1788L17.0123 34.1951L17.0012 34.2116L16.6675 34.7099L16.6565 34.7263L16.6456 34.7429L16.3154 35.2451L16.3045 35.2617L16.2938 35.2785L15.9674 35.7844L15.9565 35.8012L15.946 35.8179L15.6232 36.3279L15.6125 36.3446L15.6019 36.3615L15.283 36.8752L15.2724 36.8922L15.2621 36.9091L15.0259 37.2968L14.7659 37.6666L14.7544 37.6829L14.743 37.6993L14.4001 38.1958L14.3888 38.2123L14.3778 38.2286L14.0396 38.7275L14.0284 38.7441L14.0175 38.7604L13.684 39.2615L13.6731 39.2781L13.6623 39.2947L13.3337 39.7979L13.3228 39.8145L13.312 39.8311L12.9882 40.3364L12.9776 40.3532L12.967 40.3699L12.6479 40.8773L12.6372 40.8941L12.6269 40.9111L12.3125 41.4206L12.3021 41.4374L12.2919 41.4543L11.9823 41.9658L11.9718 41.9828L11.9619 41.9998L11.6569 42.5135L11.6469 42.5304L11.6368 42.5475L11.3365 43.0632L11.3267 43.0802L11.3168 43.0972L11.0213 43.615L11.0114 43.632L11.0017 43.6492L10.7109 44.1688L10.7012 44.1859L10.6918 44.2031L10.4056 44.7247L10.396 44.7418L10.3868 44.7591L10.1052 45.2826L10.0959 45.2996L10.0867 45.3172L9.80974 45.8424L9.80055 45.8597L9.79153 45.877L9.51932 46.4042L9.5104 46.4215L9.50156 46.4388L9.23377 46.9679L9.22502 46.9851L9.21619 47.0027L8.95317 47.5334L8.94451 47.5507L8.93611 47.5683L8.67752 48.1007L8.66903 48.1182L8.66081 48.1357L8.4069 48.6699L8.39859 48.6874L8.39028 48.705L8.14106 49.2409L8.13292 49.2584L8.12479 49.276L7.87998 49.8136L7.87203 49.8311L7.86434 49.8488L7.62404 50.388L7.61626 50.4057L7.60849 50.4232L7.54635 50.5661L7.27653 51.3786L7.15607 52.2295L7.18877 53.0887L7.37357 53.9269L7.70429 54.7147L8.16916 55.4247L8.75211 56.0323L9.43307 56.5162L10.1881 56.86L10.9911 57.0514L11.8141 57.0839L12.6287 56.9563L13.4064 56.6729L14.1204 56.2439L14.7456 55.6839L15.2603 55.0126L15.5909 54.3874L15.6444 54.2647L15.8685 53.7616L16.101 53.2508L16.1067 53.2384L16.3233 52.7728L16.3256 52.7679L16.5702 52.2533L16.8151 51.749L16.8189 51.7412L17.0606 51.2542L17.0648 51.2454L17.3057 50.7699L17.5634 50.2713L17.5696 50.2591L17.8209 49.7829L18.0873 49.2879L18.0917 49.2796L18.3533 48.8036L18.3593 48.7926L18.6201 48.3274L18.8877 47.8582L18.8941 47.8472L19.1775 47.3605L19.4653 46.876L19.7578 46.393L19.7625 46.3853L20.0547 45.9119L20.0563 45.9095L20.3332 45.4691L20.341 45.4569L20.6467 44.98L20.9562 44.5059L21.2704 44.0337L21.2757 44.0259L21.5801 43.5769L21.9033 43.1088L22.2368 42.6347L22.3243 42.5104L22.4036 42.3803L22.7104 41.8767L23.0115 41.392L23.017 41.3831L23.307 40.9251L23.602 40.4677L23.6058 40.4619L23.9231 39.9793L24.2374 39.5098L24.244 39.5002L24.5535 39.047L24.5591 39.0385L24.8658 38.5974L25.1909 38.138L25.5168 37.6855L25.5246 37.6748L25.8389 37.2464L26.1721 36.8004L26.4957 36.3744L26.501 36.3676L26.8423 35.926L27.1848 35.4911L27.5406 35.047L27.543 35.0441L27.8905 34.6182L28.2161 34.2254L28.2172 34.2244L28.5921 33.7799L28.5945 33.7771L28.9427 33.3715L28.9512 33.3617L29.3057 32.956L29.3109 32.95L29.663 32.5537L30.0328 32.1446L30.0391 32.1374L30.382 31.7643L30.3852 31.7608L30.771 31.3477L30.7793 31.3388L31.1399 30.9594L31.5219 30.564L31.5309 30.5548L31.8968 30.1826L32.2848 29.7943L32.2942 29.7847L32.666 29.4189L33.0416 29.055L33.0496 29.0474L33.4575 28.659L33.4598 28.6567L33.8474 28.2938L33.8539 28.2877L34.2233 27.9472L34.2288 27.9422L34.6227 27.585L34.6249 27.5833L35.0248 27.2264L35.0343 27.2181L35.4465 26.8567L35.457 26.8475L35.8492 26.5094L36.2669 26.155L36.2744 26.1487L36.6589 25.8279L36.6672 25.821L36.696 25.7974L37.2933 25.2052L37.775 24.5075L38.1244 23.7287L38.3293 22.8957L38.3825 22.0374L38.2821 21.1838L38.032 20.3641L37.6405 19.6074L37.1214 18.9399L36.4925 18.3843L35.7758 17.9604L34.9963 17.6827L34.181 17.5608L33.3582 17.5989ZM159.049 76.7611L158.25 76.9731L157.504 77.336L156.834 77.8373L156.266 78.4596L155.818 79.1813L155.506 79.9773L155.34 80.8197L155.319 81.5336L155.353 82.2891L155.38 83.1025L155.399 83.8994L155.41 84.6958L155.412 85.5122L155.418 85.5743L155.415 85.6532L155.434 86.2373L155.448 86.8294V86.8383L155.456 87.4017V87.4091L155.46 87.952L155.459 88.5417V88.5481L155.453 89.1111V89.116L155.443 89.6593L155.428 90.2283L155.409 90.7941L155.385 91.3593L155.356 91.925L155.322 92.4895L155.283 93.0524L155.283 93.0635L155.24 93.6146L155.24 93.6234L155.194 94.1569L155.142 94.7189L155.086 95.2793L155.025 95.8375L154.962 96.3663L154.961 96.3762L154.889 96.952L154.888 96.9585L154.816 97.4893L154.737 98.0464L154.654 98.5986L154.652 98.6104L154.568 99.1367L154.476 99.6906L154.379 100.24L154.377 100.251L154.281 100.772L154.175 101.323L154.065 101.873L154.063 101.881L153.954 102.402L153.835 102.95L153.833 102.961L153.716 103.477L153.588 104.024L153.585 104.036L153.461 104.549L153.325 105.093L153.321 105.106L153.193 105.602L153.191 105.61L153.044 106.157L153.041 106.17L152.895 106.698L152.894 106.7L152.747 107.217L152.744 107.228L152.595 107.735L152.442 108.246L152.439 108.253L152.273 108.789L152.113 109.293L152.11 109.304L151.935 109.837L151.931 109.849L151.761 110.355L151.757 110.368L151.581 110.88L151.579 110.886L151.409 111.369L151.406 111.377L151.217 111.899L151.033 112.397L151.03 112.406L150.837 112.916L150.433 113.947L150.021 114.954L149.592 115.96L149.143 116.97L148.687 117.955L148.216 118.935L147.729 119.913L147.472 120.41L147.15 121.201L146.974 122.041L146.95 122.901L147.08 123.751L147.358 124.56L147.776 125.302L148.318 125.949L148.965 126.48L149.696 126.877L150.485 127.125L151.304 127.216L152.125 127.147L152.92 126.92L153.66 126.542L154.32 126.028L154.878 125.395L155.248 124.795L155.52 124.271L155.535 124.24L155.551 124.209L156.069 123.17L156.084 123.139L156.099 123.108L156.602 122.061L156.618 122.03L156.632 121.998L157.12 120.943L157.135 120.911L157.149 120.879L157.621 119.816L157.636 119.784L157.65 119.752L158.107 118.681L158.12 118.648L158.134 118.616L158.575 117.537L158.588 117.504L158.601 117.471L159.026 116.385L159.036 116.36L159.046 116.335L159.252 115.79L159.259 115.773L159.265 115.756L159.467 115.208L159.473 115.191L159.48 115.174L159.678 114.625L159.684 114.608L159.69 114.591L159.884 114.04L159.89 114.023L159.896 114.006L160.086 113.453L160.092 113.436L160.098 113.419L160.284 112.864L160.29 112.847L160.295 112.829L160.477 112.273L160.483 112.256L160.488 112.238L160.666 111.68L160.671 111.663L160.677 111.645L160.85 111.086L160.856 111.068L160.861 111.05L161.03 110.489L161.035 110.472L161.041 110.454L161.205 109.891L161.211 109.873L161.216 109.855L161.376 109.291L161.381 109.273L161.386 109.255L161.543 108.689L161.548 108.671L161.553 108.653L161.704 108.085L161.709 108.067L161.714 108.049L161.861 107.48L161.866 107.461L161.871 107.443L162.014 106.872L162.018 106.854L162.023 106.836L162.162 106.263L162.166 106.245L162.17 106.227L162.305 105.653L162.309 105.634L162.313 105.616L162.443 105.04L162.447 105.022L162.451 105.003L162.577 104.427L162.581 104.408L162.585 104.389L162.705 103.811L162.709 103.792L162.713 103.773L162.829 103.194L162.833 103.175L162.837 103.156L162.949 102.575L162.952 102.556L162.956 102.537L163.063 101.954L163.066 101.935L163.07 101.916L163.172 101.332L163.176 101.313L163.179 101.294L163.277 100.709L163.28 100.69L163.283 100.671L163.376 100.084L163.379 100.065L163.382 100.045L163.471 99.4576L163.474 99.4382L163.476 99.419L163.56 98.8295L163.563 98.8102L163.566 98.7908L163.645 98.2002L163.648 98.1807L163.65 98.1613L163.724 97.5693L163.727 97.5499L163.729 97.5303L163.799 96.9371L163.801 96.9175L163.803 96.8981L163.868 96.3034L163.87 96.284L163.872 96.2643L163.933 95.6686L163.934 95.6489L163.936 95.6294L163.992 95.0323L163.994 95.0125L163.995 94.9929L164.046 94.3947L164.047 94.375L164.049 94.3552L164.095 93.7559L164.096 93.736L164.097 93.7162L164.138 93.1156L164.14 93.0958L164.141 93.076L164.177 92.4743L164.178 92.4543L164.179 92.4345L164.21 91.8316L164.211 91.8117L164.212 91.7918L164.238 91.188L164.239 91.1679L164.24 91.1479L164.261 90.5428L164.261 90.5229L164.262 90.5028L164.278 89.8966L164.279 89.8767V89.8567L164.29 89.2494V89.2092L164.296 88.601V88.5609L164.297 87.9516V87.9113L164.293 87.3011V87.2607L164.283 86.6496V86.6091L164.268 85.9969V85.9766L164.268 85.9565L164.25 85.4122L164.248 84.6373V84.587L164.237 83.74V83.7151L164.236 83.6902L164.216 82.8435L164.215 82.8184L164.214 82.7935L164.185 81.9473L164.184 81.9224L164.183 81.8975L164.148 81.1057L164.033 80.2541L163.769 79.4394L163.365 78.6901L162.834 78.0321L162.196 77.4885L161.473 77.0777L160.688 76.8146L159.871 76.7076L159.049 76.7611ZM4.65716 80.2852L3.85238 80.4685L3.09427 80.8044L2.4088 81.2815L1.8202 81.8832L1.34878 82.5884L1.01082 83.3728L0.818157 84.2089L0.773438 84.9216L0.780419 85.5116L0.780685 85.5445L0.781568 85.5776L0.811264 86.7502L0.812147 86.783L0.813384 86.8159L0.859077 87.9883L0.860314 88.0209L0.862081 88.0536L0.923681 89.2255L0.925449 89.2579L0.927482 89.2904L1.00499 90.4616L1.00702 90.4939L1.00967 90.5264L1.10283 91.6965L1.10548 91.7288L1.10831 91.7609L1.21728 92.9299L1.22037 92.9618L1.22364 92.9937L1.34825 94.1615L1.35152 94.1932L1.35532 94.225L1.49549 95.3911L1.49929 95.4227L1.50345 95.4544L1.65899 96.6186L1.66332 96.6499L1.66774 96.6815L1.83867 97.8436L1.84335 97.8749L1.8483 97.9061L2.0346 99.066L2.03964 99.0972L2.04494 99.1282L2.24654 100.285L2.25184 100.317L2.25758 100.347L2.4742 101.502L2.48012 101.533L2.48631 101.564L2.71795 102.715L2.72414 102.746L2.73076 102.776L2.97734 103.925L2.98397 103.955L2.99104 103.986L3.25273 105.131L3.25962 105.161L3.26687 105.192L3.54341 106.333L3.55083 106.363L3.55861 106.393L3.84982 107.531L3.8576 107.561L3.86564 107.591L4.17169 108.724L4.17982 108.754L4.18831 108.784L4.50904 109.913L4.51743 109.943L4.52627 109.972L4.86149 111.097L4.87033 111.126L4.87961 111.156L5.22932 112.276L5.23852 112.305L5.24815 112.335L5.61236 113.45L5.6219 113.479L5.63189 113.508L6.01042 114.618L6.02023 114.647L6.03066 114.676L6.4235 115.78L6.43384 115.809L6.44453 115.838L6.85161 116.936L6.86221 116.966L6.87335 116.994L7.2943 118.087L7.30552 118.116L7.31701 118.144L7.7521 119.231L7.76359 119.259L7.77561 119.288L8.22457 120.368L8.2365 120.397L8.2487 120.425L8.71163 121.499L8.724 121.527L8.73655 121.555L9.21327 122.622L9.22608 122.65L9.23899 122.679L9.72958 123.738L9.74275 123.766L9.75618 123.795L9.91438 124.125L10.35 124.855L10.9077 125.488L11.5683 126.002L12.3087 126.379L13.1032 126.606L13.9241 126.675L14.7432 126.584L15.5317 126.335L16.2624 125.938L16.9098 125.407L17.4517 124.759L17.8687 124.017L18.147 123.208L18.2763 122.358L18.2524 121.498L18.0763 120.658L17.8186 119.997L17.6763 119.699L17.2085 118.689L16.7607 117.687L16.3187 116.662L15.8962 115.647L15.4825 114.614L15.0848 113.582L14.6974 112.536L14.3263 111.493L13.9687 110.444L13.6233 109.388L13.2917 108.326L12.9725 107.255L12.6706 106.192L12.3816 105.123L12.1033 104.037L11.8426 102.96L11.5966 101.884L11.3611 100.789L11.1405 99.6914L10.937 98.6069L10.7452 97.5054L10.5697 96.413L10.4076 95.3103L10.2616 94.2174L10.1287 93.111L10.0108 92.0041L9.90757 90.8969L9.81955 89.7908L9.74637 88.6835L9.68813 87.5769L9.64518 86.4704L9.61725 85.3656L9.61062 84.8095L9.52401 83.9543L9.2868 83.1307L8.90721 82.3673L8.39877 81.6908L7.7787 81.1245L7.06893 80.6882L6.29385 80.3971L5.4805 80.2612L4.65716 80.2852ZM130.291 143.406L129.492 143.616L128.745 143.978L128.182 144.384L128.107 144.448L127.273 145.136L126.428 145.813L125.568 146.484L124.7 147.143L123.832 147.783L122.953 148.412L122.069 149.028L121.169 149.636L120.262 150.231L119.347 150.813L118.435 151.377L117.506 151.932L116.576 152.471L115.634 153L114.691 153.512L113.728 154.017L112.779 154.498L111.815 154.97L110.84 155.43L109.87 155.871L108.887 156.301L107.892 156.719L106.915 157.113L105.908 157.503L104.912 157.871L103.913 158.224L102.899 158.566L101.889 158.889L100.869 159.199L99.8467 159.493L98.8183 159.772L97.8016 160.031L97.0262 160.216L96.2439 160.485L95.5229 160.901L94.8883 161.449L94.3623 162.111L93.963 162.863L93.7044 163.68L93.5953 164.532L93.6397 165.391L93.8359 166.227L94.1774 167.009L94.6519 167.712L95.2431 168.311L95.9305 168.785L96.6899 169.118L97.4956 169.297L98.3191 169.317L98.9955 169.212L99.7998 169.02L99.8316 169.013L99.8632 169.005L100.953 168.727L100.985 168.719L101.016 168.71L102.103 168.416L102.134 168.407L102.165 168.398L103.247 168.087L103.278 168.078L103.309 168.069L104.387 167.741L104.417 167.732L104.448 167.722L105.522 167.379L105.552 167.369L105.582 167.359L106.651 166.999L106.681 166.988L106.711 166.978L107.775 166.602L107.805 166.591L107.835 166.58L108.894 166.189L108.923 166.178L108.953 166.166L110.007 165.759L110.036 165.748L110.065 165.736L111.114 165.313L111.143 165.301L111.172 165.289L112.215 164.851L112.243 164.839L112.272 164.826L113.309 164.372L113.338 164.36L113.366 164.347L114.398 163.878L114.426 163.865L114.454 163.852L115.479 163.368L115.507 163.355L115.535 163.341L116.554 162.843L116.582 162.829L116.609 162.815L117.622 162.302L117.649 162.288L117.676 162.274L118.683 161.745L118.71 161.731L118.737 161.717L119.736 161.174L119.763 161.16L119.789 161.145L120.782 160.588L120.808 160.573L120.835 160.558L121.82 159.987L121.846 159.971L121.872 159.956L122.85 159.371L122.876 159.355L122.902 159.339L123.873 158.74L123.898 158.724L123.924 158.708L124.887 158.095L124.912 158.079L124.937 158.063L125.892 157.436L125.917 157.42L125.943 157.403L126.889 156.763L126.914 156.746L126.939 156.729L127.878 156.076L127.902 156.059L127.927 156.041L128.857 155.375L128.881 155.357L128.906 155.339L129.827 154.66L129.851 154.642L129.875 154.624L130.788 153.931L130.812 153.913L130.836 153.895L131.739 153.19L131.763 153.171L131.787 153.152L132.681 152.435L132.704 152.416L132.728 152.396L133.613 151.666L133.636 151.647L133.659 151.627L133.754 151.547L134.342 150.945L134.813 150.239L135.15 149.455L135.342 148.618L135.383 147.759L135.269 146.908L135.006 146.092L134.603 145.342L134.074 144.683L133.437 144.138L132.714 143.726L131.93 143.462L131.113 143.354L130.291 143.406ZM32.3274 143.697L31.5463 143.97L30.8273 144.389L30.1956 144.941L29.6727 145.606L29.277 146.36L29.0222 147.178L28.9173 148.031L28.9659 148.889L29.1662 149.724L29.5113 150.505L29.9891 151.205L30.4748 151.708L30.7126 151.919L30.7387 151.942L30.7653 151.965L31.6331 152.71L31.6598 152.732L31.6868 152.755L32.5659 153.486L32.5864 153.503L32.607 153.519L33.0507 153.88L33.0645 153.891L33.0784 153.902L33.5251 154.258L33.5389 154.269L33.5529 154.28L34.0024 154.633L34.0164 154.644L34.0305 154.655L34.4827 155.005L34.4969 155.015L34.5113 155.026L34.9663 155.372L34.9806 155.383L34.9949 155.394L35.4529 155.736L35.4672 155.746L35.4817 155.757L35.9422 156.095L35.9569 156.106L35.9714 156.116L36.4349 156.451L36.4495 156.461L36.4642 156.472L36.9305 156.803L36.9452 156.813L36.96 156.823L37.4289 157.15L37.4438 157.161L37.4588 157.171L37.9304 157.494L37.9454 157.504L37.9606 157.515L38.435 157.834L38.4502 157.844L38.4654 157.854L38.9424 158.169L38.9576 158.18L38.973 158.189L39.4529 158.501L39.4683 158.511L39.4837 158.521L39.9663 158.828L39.9818 158.838L39.9973 158.848L40.4825 159.151L40.4982 159.161L40.514 159.171L41.0018 159.47L41.0175 159.48L41.0334 159.489L41.5239 159.785L41.5398 159.794L41.5557 159.804L42.049 160.095L42.0649 160.105L42.0809 160.114L42.5768 160.401L42.5929 160.411L42.6092 160.42L43.1076 160.703L43.1239 160.712L43.1401 160.721L43.6414 161L43.6576 161.01L43.674 161.018L44.1779 161.293L44.1943 161.302L44.2109 161.311L44.7173 161.582L44.7337 161.591L44.7505 161.599L45.2595 161.866L45.276 161.875L45.2928 161.883L45.8044 162.146L45.8212 162.154L45.838 162.163L46.3524 162.421L46.3691 162.429L46.386 162.437L46.903 162.691L46.9199 162.699L46.9369 162.708L47.4561 162.957L47.4733 162.965L47.4905 162.973L48.0123 163.218L48.0296 163.226L48.0469 163.234L48.5713 163.475L48.5885 163.483L48.6059 163.49L49.133 163.727L49.1504 163.734L49.1679 163.742L49.6974 163.974L49.7148 163.981L49.7325 163.989L50.2645 164.216L50.2821 164.224L50.2997 164.231L50.8342 164.454L50.852 164.461L50.8697 164.468L51.4068 164.686L51.4246 164.694L51.4423 164.701L51.9819 164.914L51.9997 164.921L52.0177 164.928L52.5598 165.137L52.5777 165.144L52.5958 165.151L53.1402 165.356L53.1583 165.362L53.1763 165.369L53.7234 165.569L53.7415 165.575L53.7598 165.582L54.3091 165.777L54.3272 165.783L54.3455 165.79L54.8976 165.98L54.9158 165.986L54.9341 165.992L55.4885 166.178L55.5068 166.184L55.5253 166.19L56.0821 166.371L56.1004 166.377L56.1189 166.383L56.6781 166.559L56.6966 166.565L56.7151 166.571L57.2767 166.742L57.2953 166.748L57.3138 166.753L57.878 166.92L57.8966 166.925L57.9153 166.93L58.3414 167.052L58.7578 167.202L58.7761 167.209L58.7944 167.215L59.3497 167.41L59.368 167.417L59.3865 167.423L59.9423 167.612L59.9608 167.619L59.9791 167.624L60.5356 167.808L60.5541 167.814L60.5724 167.82L61.1295 167.999L61.1481 168.005L61.1663 168.01L61.7242 168.184L61.7425 168.189L61.761 168.195L62.3192 168.363L62.3377 168.368L62.3561 168.374L62.9149 168.536L62.9334 168.542L62.952 168.547L63.5112 168.704L63.5298 168.709L63.5482 168.715L64.108 168.867L64.1265 168.871L64.1449 168.876L64.7052 169.023L64.7238 169.028L64.7422 169.033L65.3028 169.174L65.3214 169.179L65.34 169.183L65.3591 169.188L66.1752 169.304L66.998 169.26L67.7983 169.057L68.5487 168.702L69.2231 168.208L69.7981 167.592L70.2537 166.876L70.5739 166.083L70.7476 165.243L70.7691 164.383L70.6374 163.534L70.3568 162.725L69.9375 161.985L69.394 161.339L68.7451 160.809L68.0133 160.414L67.3787 160.205L67.379 160.204L67.3611 160.199L66.8312 160.065L66.3071 159.928L66.2952 159.925L65.8093 159.793L65.8024 159.791L65.2869 159.646L65.2793 159.644L64.7651 159.495L64.7572 159.492L64.2314 159.334L63.6985 159.169L63.2024 159.01L63.1912 159.006L62.666 158.833L62.1478 158.656L61.6299 158.475L61.09 158.28L60.9521 158.23L60.8116 158.19L60.2647 158.034L59.7334 157.877L59.2038 157.715L59.1937 157.712L58.6948 157.555L58.1753 157.386L57.6526 157.211L57.1323 157.032L56.6077 156.845L56.6053 156.844L56.1148 156.665L55.6003 156.472L55.0891 156.275L55.0797 156.271L54.5959 156.08L54.1097 155.882L54.1046 155.88L53.6102 155.674L53.5994 155.67L53.0965 155.455L52.5949 155.235L52.5835 155.23L52.1128 155.019L51.617 154.792L51.1315 154.564L50.639 154.328L50.6287 154.323L50.1656 154.095L49.6857 153.854L49.2079 153.61L48.7324 153.361L48.2714 153.114L48.2678 153.112L47.78 152.846L47.3315 152.597L47.3195 152.59L46.8652 152.332L46.8608 152.329L46.3803 152.051L46.3694 152.045L45.9261 151.782L45.481 151.514L45.4735 151.51L45.0242 151.234L45.0143 151.228L44.5523 150.939L44.1185 150.663L44.1068 150.655L43.654 150.362L43.2224 150.076L43.2138 150.071L42.751 149.759L42.7481 149.757L42.3142 149.46L42.3066 149.455L41.8801 149.157L41.4603 148.859L41.4528 148.854L41.0131 148.537L40.5942 148.229L40.5861 148.223L40.1469 147.895L40.1364 147.887L39.7242 147.574L39.3141 147.257L39.3075 147.252L38.876 146.914L38.8647 146.905L38.4735 146.592L38.4638 146.585L38.045 146.245L37.2215 145.56L36.3964 144.852L36.1925 144.671L35.5176 144.178L34.7667 143.825L33.966 143.623L33.1434 143.58L32.3274 143.697Z" fill="black"/>
</svg>
