<svg width="50" height="18" viewBox="0 0 50 18" fill="none" xmlns="http://www.w3.org/2000/svg">
<path d="M30.4999 2.78025L29.9191 2.25L28.0356 3.96975L26.152 2.25L25.5713 2.78025L27.4548 4.5L25.5713 6.21937L26.1525 6.75L28.0356 5.03025L29.9195 6.75L30.4999 6.22012L28.6163 4.5L30.4999 2.78025Z" fill="#F0F0F0"/>
<path d="M19.8214 0C19.6036 0 19.3946 0.0790176 19.2406 0.21967C19.0865 0.360322 19 0.551088 19 0.75V1.93875C19 2.0373 19.0212 2.13488 19.0625 2.22593C19.1038 2.31698 19.1643 2.3997 19.2407 2.46938L22.2857 5.25V8.25C22.2857 8.44891 22.3723 8.63968 22.5263 8.78033C22.6804 8.92098 22.8893 9 23.1071 9H24.75C24.9679 9 25.1768 8.92098 25.3308 8.78033C25.4849 8.63968 25.5714 8.44891 25.5714 8.25V7.5H24.75V8.25H23.1071V4.93875L22.8665 4.71937L19.8214 1.93912V0.75H28.0357V1.5H28.8571V0.75C28.8571 0.551088 28.7706 0.360322 28.6166 0.21967C28.4625 0.0790176 28.2536 0 28.0357 0H19.8214Z" fill="#F0F0F0"/>
<path d="M2.74609 13.6992H1.41016V16H0.65625V10.3125H2.53906C3.17969 10.3125 3.67188 10.4583 4.01562 10.75C4.36198 11.0417 4.53516 11.4661 4.53516 12.0234C4.53516 12.3776 4.4388 12.6862 4.24609 12.9492C4.05599 13.2122 3.79036 13.4089 3.44922 13.5391L4.78516 15.9531V16H3.98047L2.74609 13.6992ZM1.41016 13.0859H2.5625C2.9349 13.0859 3.23047 12.9896 3.44922 12.7969C3.67057 12.6042 3.78125 12.3464 3.78125 12.0234C3.78125 11.6719 3.67578 11.4023 3.46484 11.2148C3.25651 11.0273 2.95443 10.9323 2.55859 10.9297H1.41016V13.0859ZM7.23047 16.0781C6.65755 16.0781 6.19141 15.8906 5.83203 15.5156C5.47266 15.138 5.29297 14.6341 5.29297 14.0039V13.8711C5.29297 13.4518 5.3724 13.0781 5.53125 12.75C5.69271 12.4193 5.91667 12.1615 6.20312 11.9766C6.49219 11.7891 6.80469 11.6953 7.14062 11.6953C7.6901 11.6953 8.11719 11.8763 8.42188 12.2383C8.72656 12.6003 8.87891 13.1185 8.87891 13.793V14.0938H6.01562C6.02604 14.5104 6.14714 14.8477 6.37891 15.1055C6.61328 15.3607 6.91016 15.4883 7.26953 15.4883C7.52474 15.4883 7.74089 15.4362 7.91797 15.332C8.09505 15.2279 8.25 15.0898 8.38281 14.918L8.82422 15.2617C8.47005 15.806 7.9388 16.0781 7.23047 16.0781ZM7.14062 12.2891C6.84896 12.2891 6.60417 12.3958 6.40625 12.6094C6.20833 12.8203 6.08594 13.1172 6.03906 13.5H8.15625V13.4453C8.13542 13.0781 8.03646 12.7943 7.85938 12.5938C7.68229 12.3906 7.44271 12.2891 7.14062 12.2891ZM10.3984 11.7734L10.418 12.2422C10.7279 11.8776 11.1458 11.6953 11.6719 11.6953C12.263 11.6953 12.6654 11.9219 12.8789 12.375C13.0195 12.1719 13.2018 12.0078 13.4258 11.8828C13.6523 11.7578 13.9193 11.6953 14.2266 11.6953C15.1536 11.6953 15.625 12.1862 15.6406 13.168V16H14.918V13.2109C14.918 12.9089 14.849 12.6836 14.7109 12.5352C14.5729 12.3841 14.3411 12.3086 14.0156 12.3086C13.7474 12.3086 13.5247 12.3893 13.3477 12.5508C13.1706 12.7096 13.0677 12.9245 13.0391 13.1953V16H12.3125V13.2305C12.3125 12.6159 12.0117 12.3086 11.4102 12.3086C10.9362 12.3086 10.612 12.5104 10.4375 12.9141V16H9.71484V11.7734H10.3984ZM16.543 13.8477C16.543 13.4336 16.6237 13.0612 16.7852 12.7305C16.9492 12.3997 17.1758 12.1445 17.4648 11.9648C17.7565 11.7852 18.0885 11.6953 18.4609 11.6953C19.0365 11.6953 19.5013 11.8945 19.8555 12.293C20.2122 12.6914 20.3906 13.2214 20.3906 13.8828V13.9336C20.3906 14.3451 20.3112 14.7148 20.1523 15.043C19.9961 15.3685 19.7708 15.6224 19.4766 15.8047C19.1849 15.987 18.849 16.0781 18.4688 16.0781C17.8958 16.0781 17.431 15.8789 17.0742 15.4805C16.7201 15.082 16.543 14.5547 16.543 13.8984V13.8477ZM17.2695 13.9336C17.2695 14.4023 17.3776 14.7786 17.5938 15.0625C17.8125 15.3464 18.1042 15.4883 18.4688 15.4883C18.8359 15.4883 19.1276 15.3451 19.3438 15.0586C19.5599 14.7695 19.668 14.3659 19.668 13.8477C19.668 13.3841 19.5573 13.0091 19.3359 12.7227C19.1172 12.4336 18.8255 12.2891 18.4609 12.2891C18.1042 12.2891 17.8164 12.431 17.5977 12.7148C17.3789 12.9987 17.2695 13.4049 17.2695 13.9336ZM22.6289 15.0195L23.6758 11.7734H24.4141L22.8984 16H22.3477L20.8164 11.7734H21.5547L22.6289 15.0195ZM26.8086 16.0781C26.2357 16.0781 25.7695 15.8906 25.4102 15.5156C25.0508 15.138 24.8711 14.6341 24.8711 14.0039V13.8711C24.8711 13.4518 24.9505 13.0781 25.1094 12.75C25.2708 12.4193 25.4948 12.1615 25.7812 11.9766C26.0703 11.7891 26.3828 11.6953 26.7188 11.6953C27.2682 11.6953 27.6953 11.8763 28 12.2383C28.3047 12.6003 28.457 13.1185 28.457 13.793V14.0938H25.5938C25.6042 14.5104 25.7253 14.8477 25.957 15.1055C26.1914 15.3607 26.4883 15.4883 26.8477 15.4883C27.1029 15.4883 27.319 15.4362 27.4961 15.332C27.6732 15.2279 27.8281 15.0898 27.9609 14.918L28.4023 15.2617C28.0482 15.806 27.5169 16.0781 26.8086 16.0781ZM26.7188 12.2891C26.4271 12.2891 26.1823 12.3958 25.9844 12.6094C25.7865 12.8203 25.6641 13.1172 25.6172 13.5H27.7344V13.4453C27.7135 13.0781 27.6146 12.7943 27.4375 12.5938C27.2604 12.3906 27.0208 12.2891 26.7188 12.2891ZM31.3398 12.4219C31.2305 12.4036 31.112 12.3945 30.9844 12.3945C30.5104 12.3945 30.1888 12.5964 30.0195 13V16H29.2969V11.7734H30L30.0117 12.2617C30.2487 11.8841 30.5846 11.6953 31.0195 11.6953C31.1602 11.6953 31.2669 11.7135 31.3398 11.75V12.4219ZM34.2344 16V12.332H33.5664V11.7734H34.2344V11.4141C34.2344 10.9427 34.3685 10.5755 34.6367 10.3125C34.9076 10.0495 35.2891 9.91797 35.7812 9.91797C36.0729 9.91797 36.4414 9.9974 36.8867 10.1562L36.7656 10.7656C36.4401 10.6354 36.1302 10.5703 35.8359 10.5703C35.526 10.5703 35.3021 10.6406 35.1641 10.7812C35.0286 10.9193 34.9609 11.1276 34.9609 11.4062V11.7734H35.8242V12.332H34.9609V16H34.2344ZM37.2461 16H36.5195V11.7734H37.2461V16ZM39.207 16H38.4844V10H39.207V16ZM41.3477 10.75V11.7734H42.1367V12.332H41.3477V14.9531C41.3477 15.1224 41.3828 15.25 41.4531 15.3359C41.5234 15.4193 41.6432 15.4609 41.8125 15.4609C41.8958 15.4609 42.0104 15.4453 42.1562 15.4141V16C41.9661 16.0521 41.7812 16.0781 41.6016 16.0781C41.2786 16.0781 41.0352 15.9805 40.8711 15.7852C40.707 15.5898 40.625 15.3125 40.625 14.9531V12.332H39.8555V11.7734H40.625V10.75H41.3477ZM45.0273 12.4219C44.918 12.4036 44.7995 12.3945 44.6719 12.3945C44.1979 12.3945 43.8763 12.5964 43.707 13V16H42.9844V11.7734H43.6875L43.6992 12.2617C43.9362 11.8841 44.2721 11.6953 44.707 11.6953C44.8477 11.6953 44.9544 11.7135 45.0273 11.75V12.4219ZM45.4258 13.8477C45.4258 13.4336 45.5065 13.0612 45.668 12.7305C45.832 12.3997 46.0586 12.1445 46.3477 11.9648C46.6393 11.7852 46.9714 11.6953 47.3438 11.6953C47.9193 11.6953 48.3841 11.8945 48.7383 12.293C49.0951 12.6914 49.2734 13.2214 49.2734 13.8828V13.9336C49.2734 14.3451 49.194 14.7148 49.0352 15.043C48.8789 15.3685 48.6536 15.6224 48.3594 15.8047C48.0677 15.987 47.7318 16.0781 47.3516 16.0781C46.7786 16.0781 46.3138 15.8789 45.957 15.4805C45.6029 15.082 45.4258 14.5547 45.4258 13.8984V13.8477ZM46.1523 13.9336C46.1523 14.4023 46.2604 14.7786 46.4766 15.0625C46.6953 15.3464 46.987 15.4883 47.3516 15.4883C47.7188 15.4883 48.0104 15.3451 48.2266 15.0586C48.4427 14.7695 48.5508 14.3659 48.5508 13.8477C48.5508 13.3841 48.4401 13.0091 48.2188 12.7227C48 12.4336 47.7083 12.2891 47.3438 12.2891C46.987 12.2891 46.6992 12.431 46.4805 12.7148C46.2617 12.9987 46.1523 13.4049 46.1523 13.9336Z" fill="white"/>
</svg>
