<svg width="20" height="31" viewBox="0 0 20 31" fill="none" xmlns="http://www.w3.org/2000/svg">
<path d="M1.51857 0.815584C1.24646 1.07243 1.03057 1.37752 0.883274 1.71338C0.735976 2.04925 0.660156 2.40929 0.660156 2.7729C0.660156 3.13652 0.735976 3.49656 0.883274 3.83242C1.03057 4.16828 1.24646 4.47337 1.51857 4.73022L12.9076 15.5024L1.51857 26.2746C0.969733 26.7937 0.661399 27.4978 0.661399 28.2319C0.661399 28.9661 0.969733 29.6701 1.51857 30.1893C2.06741 30.7084 2.81179 31 3.58796 31C4.36413 31 5.10852 30.7084 5.65735 30.1893L19.1304 17.4459C19.4025 17.189 19.6184 16.8839 19.7657 16.5481C19.913 16.2122 19.9888 15.8521 19.9888 15.4885C19.9888 15.1249 19.913 14.7649 19.7657 14.429C19.6184 14.0932 19.4025 13.7881 19.1304 13.5312L5.65735 0.78782C4.54194 -0.267189 2.66334 -0.267188 1.51857 0.815584Z" fill="#282C35"/>
</svg>
