<svg width="17" height="13" viewBox="0 0 17 13" fill="none" xmlns="http://www.w3.org/2000/svg">
<path d="M11.6512 7.94903H10.9609L10.7163 7.76441C11.5725 6.98493 12.088 5.97298 12.088 4.87213C12.088 2.41746 9.54546 0.427734 6.40875 0.427734C3.27205 0.427734 0.729492 2.41746 0.729492 4.87213C0.729492 7.32681 3.27205 9.31653 6.40875 9.31653C7.81546 9.31653 9.10859 8.91312 10.1046 8.24304L10.3406 8.43449V8.97466L14.7092 12.3866L16.0111 11.3678L11.6512 7.94903Z" fill="#F58E08"/>
<path d="M6.40934 7.94675C4.23374 7.94675 2.47754 6.57241 2.47754 4.86986C2.47754 3.16731 4.23374 1.79297 6.40934 1.79297C8.58493 1.79297 10.3411 3.16731 10.3411 4.86986C10.3411 6.57241 8.58493 7.94675 6.40934 7.94675Z" fill="#EAEAEA"/>
</svg>
