<svg width="25" height="30" viewBox="0 0 25 30" fill="none" xmlns="http://www.w3.org/2000/svg">
<path d="M25 18.0004C25.002 16.9991 24.7534 16.0131 24.2768 15.1325C23.8002 14.2518 23.1107 13.5045 22.2713 12.9585C21.4319 12.4126 20.4692 12.0854 19.4709 12.0068C18.4726 11.9282 17.4706 12.1007 16.5561 12.5086C15.6415 12.9165 14.8436 13.5467 14.2351 14.342C13.6266 15.1372 13.2267 16.0721 13.072 17.0614C12.9173 18.0507 13.0127 19.063 13.3495 20.0061C13.6862 20.9491 14.2536 21.7928 15 22.4604V30.0004L19 28.1064L23 30.0004V22.4604C23.6287 21.8998 24.1318 21.2127 24.4765 20.4441C24.8211 19.6755 24.9995 18.8427 25 18.0004ZM21 26.8404L19 25.8934L17 26.8404V23.6504C18.2925 24.1172 19.7075 24.1172 21 23.6504V26.8404ZM19 22.0004C18.2089 22.0004 17.4355 21.7658 16.7777 21.3263C16.1199 20.8868 15.6072 20.262 15.3045 19.5311C15.0017 18.8002 14.9225 17.996 15.0768 17.22C15.2312 16.4441 15.6122 15.7314 16.1716 15.172C16.731 14.6126 17.4437 14.2316 18.2196 14.0773C18.9956 13.9229 19.7998 14.0021 20.5307 14.3049C21.2616 14.6076 21.8863 15.1203 22.3259 15.7781C22.7654 16.4359 23 17.2093 23 18.0004C22.9987 19.0609 22.5768 20.0775 21.827 20.8274C21.0771 21.5772 20.0604 21.9991 19 22.0004Z" fill="black"/>
<path d="M20 3H17V2C16.9984 1.47005 16.7872 0.962265 16.4125 0.587535C16.0377 0.212805 15.5299 0.00158273 15 0H7C6.47005 0.00158273 5.96227 0.212805 5.58753 0.587535C5.2128 0.962265 5.00158 1.47005 5 2V3H2C1.47005 3.00158 0.962265 3.2128 0.587535 3.58753C0.212805 3.96227 0.00158273 4.47005 0 5V26C0.00158273 26.5299 0.212805 27.0377 0.587535 27.4125C0.962265 27.7872 1.47005 27.9984 2 28H11V26H2V5H5V8H17V5H20V10H22V5C21.9984 4.47005 21.7872 3.96227 21.4125 3.58753C21.0377 3.2128 20.5299 3.00158 20 3ZM15 6H7V2H15V6Z" fill="black"/>
</svg>
