<svg width="19" height="18" viewBox="0 0 19 18" fill="none" xmlns="http://www.w3.org/2000/svg">
<path d="M18.6339 12.7368C17.8145 12.0069 16.2814 10.909 16.2814 7.3125C16.2814 4.58086 13.9708 2.39414 10.8553 1.85766V1.125C10.8553 0.503789 10.248 0 9.49905 0C8.75008 0 8.14276 0.503789 8.14276 1.125V1.85766C5.02727 2.39414 2.71673 4.58086 2.71673 7.3125C2.71673 10.909 1.18358 12.0069 0.364209 12.7368C0.109745 12.9635 -0.00306778 13.2346 -0.00094724 13.5C0.00371794 14.0766 0.549544 14.625 1.36044 14.625H17.6377C18.4486 14.625 18.9948 14.0766 18.9991 13.5C19.0012 13.2346 18.8884 12.9632 18.6339 12.7368ZM2.86305 12.9375C3.763 11.9542 4.74693 10.3243 4.7516 7.33289C4.7516 7.32586 4.74905 7.31953 4.74905 7.3125C4.74905 5.13773 6.87553 3.375 9.49905 3.375C12.1226 3.375 14.2491 5.13773 14.2491 7.3125C14.2491 7.31953 14.2465 7.32586 14.2465 7.33289C14.2512 10.3247 15.2351 11.9545 16.1351 12.9375H2.86305ZM9.49905 18C10.997 18 12.2121 16.9928 12.2121 15.75H6.78604C6.78604 16.9928 8.00111 18 9.49905 18Z" fill="#D7D5D4"/>
</svg>
