<svg width="19" height="18" viewBox="0 0 19 18" fill="none" xmlns="http://www.w3.org/2000/svg">
<path d="M0 2.66602V4.05873H1.66371L2.98356 17.1418C3.01975 17.5013 3.36492 17.7771 3.77868 17.7771H15.1944C15.6082 17.7771 15.9536 17.5011 15.9895 17.1416L17.3094 4.05873H19V2.66602H0ZM14.4632 16.3844H4.50971L3.26646 4.05873H15.7067L14.4632 16.3844Z" fill="#C6C1BF"/>
<path d="M14 6.27739L12.3563 6.22266L12 15.0571L13.6437 15.1116L14 6.27739Z" fill="#C6C1BF"/>
<path d="M11 6.22266H9V15.1116H11V6.22266Z" fill="#C6C1BF"/>
<path d="M8 15.0568L7.46548 6.22266L5 6.27742L5.53458 15.1116L8 15.0568Z" fill="#C6C1BF"/>
<path d="M12.1703 0H6.92887C6.1916 0 5.5918 0.523896 5.5918 1.16786V3.38684H7.19628V1.40144H11.9028V3.38684H13.5073V1.16786C13.5073 0.523896 12.9075 0 12.1703 0Z" fill="#C6C1BF"/>
</svg>
