<svg width="18" height="12" viewBox="0 0 18 12" fill="none" xmlns="http://www.w3.org/2000/svg">
<path d="M16.418 0H1.58203C0.710789 0 0 0.59168 0 1.31836V10.1074C0 10.8316 0.707625 11.4258 1.58203 11.4258H16.418C17.287 11.4258 18 10.8361 18 10.1074V1.31836C18 0.594141 17.2924 0 16.418 0ZM16.1995 0.878906L9.03354 6.85058L1.80559 0.878906H16.1995ZM1.05469 9.92543V1.49616L6.13403 5.69265L1.05469 9.92543ZM1.80046 10.5469L6.883 6.31143L8.66391 7.78277C8.87006 7.95311 9.20275 7.95255 9.40806 7.78143L11.1445 6.33437L16.1995 10.5469H1.80046ZM16.9453 9.9254L11.8903 5.71289L16.9453 1.50035V9.9254Z" fill="#282C35" fill-opacity="0.8"/>
</svg>
