<svg width="45" height="44" viewBox="0 0 45 44" fill="none" xmlns="http://www.w3.org/2000/svg">
<path fill-rule="evenodd" clip-rule="evenodd" d="M0.962891 21.7997C0.962891 9.87947 10.5982 0.244141 22.5184 0.244141C34.4387 0.244141 44.074 9.87947 44.074 21.7997C44.074 33.7199 34.4387 43.3553 22.5184 43.3553C10.5982 43.3553 0.962891 33.7199 0.962891 21.7997ZM22.5172 18.7604L26.5912 14.6864C27.4103 13.8673 28.7899 13.8673 29.6306 14.6864C30.4713 15.5271 30.4713 16.8851 29.6306 17.7258L25.5566 21.7998L29.6306 25.8738C30.4713 26.7144 30.4713 28.0724 29.6306 28.9131C28.7899 29.7538 27.4319 29.7538 26.5912 28.9131L22.5172 24.8391L18.4432 28.9131C17.6025 29.7538 16.2445 29.7538 15.4038 28.9131C14.5632 28.0724 14.5632 26.7144 15.4038 25.8738L19.4778 21.7998L15.4038 17.7258C14.5632 16.8851 14.5632 15.5271 15.4038 14.6864C15.8066 14.2828 16.3533 14.056 16.9235 14.056C17.4937 14.056 18.0404 14.2828 18.4432 14.6864L22.5172 18.7604Z" fill="#F58E08"/>
</svg>
