<svg width="17" height="17" viewBox="0 0 17 17" fill="none" xmlns="http://www.w3.org/2000/svg">
<path d="M4.53324 3.68031V2.547C4.53324 2.39053 4.40638 2.26367 4.24992 2.26367H0.283328C0.126861 2.26367 0 2.39053 0 2.547V3.68031H4.53324Z" fill="#D7D5D4"/>
<path d="M0 4.24805V13.5979H4.53324V4.24805H0ZM3.39993 7.93131H1.13331C0.976844 7.93131 0.849983 7.80445 0.849983 7.64798V5.38136C0.849983 5.22489 0.976844 5.09803 1.13331 5.09803H3.39993C3.5564 5.09803 3.68326 5.22489 3.68326 5.38136V7.64798C3.68326 7.80445 3.5564 7.93131 3.39993 7.93131Z" fill="#D7D5D4"/>
<path d="M0 15.2988V16.7155C0 16.8719 0.126861 16.9988 0.283328 16.9988H4.24992C4.40638 16.9988 4.53324 16.8719 4.53324 16.7155V15.2988H0Z" fill="#D7D5D4"/>
<path d="M0 14.166H4.53324V14.7327H0V14.166Z" fill="#D7D5D4"/>
<path d="M5.09961 14.166H8.78288V14.7327H5.09961V14.166Z" fill="#D7D5D4"/>
<path d="M8.78288 1.13331V0.283328C8.78288 0.126861 8.65602 0 8.49955 0H5.38294C5.22647 0 5.09961 0.126861 5.09961 0.283328V1.13331H8.78288Z" fill="#D7D5D4"/>
<path d="M5.09961 3.11328H8.78288V13.5964H5.09961V3.11328Z" fill="#D7D5D4"/>
<path d="M5.09961 15.2988V16.7155C5.09961 16.8719 5.22647 16.9988 5.38294 16.9988H8.49955C8.65602 16.9988 8.78288 16.8719 8.78288 16.7155V15.2988H5.09961Z" fill="#D7D5D4"/>
<path d="M5.09961 1.69922H8.78288V2.54921H5.09961V1.69922Z" fill="#D7D5D4"/>
<path d="M9.34375 5.86548L9.49537 6.44749L14.2937 5.16795L14.1419 4.58594L9.34375 5.86548Z" fill="#D7D5D4"/>
<path d="M11.7103 14.9423L16.5085 13.6628L16.2047 12.498L11.4062 13.7776L11.7103 14.9423Z" fill="#D7D5D4"/>
<path d="M16.0631 11.95L14.4371 5.7168L9.63867 6.99633L11.2646 13.2295L16.0631 11.95Z" fill="#D7D5D4"/>
<path d="M9.20045 5.31779L13.9985 4.03839L13.5917 2.47802C13.5498 2.32694 13.3954 2.23661 13.2433 2.2741L8.99335 3.40741C8.84325 3.4485 8.75374 3.6022 8.79206 3.75299L9.20045 5.31779Z" fill="#D7D5D4"/>
<path d="M16.652 14.2109L11.8535 15.4905L12.1915 16.7858C12.2111 16.8588 12.259 16.9211 12.3247 16.9587C12.3675 16.9846 12.4164 16.9983 12.4664 16.9983C12.4911 16.9983 12.5159 16.9954 12.54 16.9898L16.7899 15.8565C16.94 15.8154 17.0295 15.6616 16.9912 15.5108L16.652 14.2109Z" fill="#D7D5D4"/>
</svg>
