<svg width="23" height="18" viewBox="0 0 23 18" fill="none" xmlns="http://www.w3.org/2000/svg">
<path d="M7.75587 12.0877H6.12731V0.368549C6.12731 0.164926 5.94517 0 5.72073 0H2.44166C2.21722 0 2.03508 0.164926 2.03508 0.368549V12.0877H0.406515C0.249981 12.0877 0.107271 12.1693 0.0397784 12.2972C-0.0277141 12.4253 -0.00819812 12.5767 0.0897879 12.6873L3.76447 17.6544C3.84172 17.7416 3.9582 17.7919 4.08119 17.7919C4.20419 17.7919 4.32067 17.7416 4.39792 17.6544L8.0726 12.6873C8.17059 12.5767 8.1901 12.4253 8.12261 12.2972C8.05512 12.1693 7.91241 12.0877 7.75587 12.0877Z" fill="#F58E08"/>
<path d="M22.0394 7.24566L19.3296 0.284885C19.2722 0.137649 19.1186 0.0390625 18.9462 0.0390625H18.1613C18.1397 0.0390625 18.118 0.0405367 18.0968 0.0436694C18.0757 0.0403524 18.0541 0.0390625 18.0322 0.0390625H17.2678C17.095 0.0390625 16.9415 0.137649 16.884 0.285253L14.1851 7.24603C14.1414 7.35862 14.1607 7.48356 14.2369 7.58104C14.3132 7.67852 14.4366 7.73657 14.5687 7.73657H15.7425C15.9214 7.73657 16.0792 7.6308 16.1314 7.47564L16.6468 5.94174H19.578L20.0935 7.47564C20.1456 7.6308 20.3035 7.73657 20.4824 7.73657H21.6556C21.7874 7.73657 21.9114 7.67871 21.9876 7.58104C22.064 7.48319 22.0831 7.35826 22.0394 7.24566ZM17.1332 4.47565C17.6205 3.04384 17.9505 2.0495 18.1131 1.51971L19.1149 4.47565H17.1332Z" fill="#F58E08"/>
<path d="M20.8717 16.5539H17.2497L21.0975 11.5407C21.1447 11.4788 21.1701 11.4054 21.1701 11.3301V10.7006C21.1701 10.4971 20.988 10.332 20.7635 10.332H15.4637C15.2393 10.332 15.0572 10.4971 15.0572 10.7006V11.4089C15.0572 11.6126 15.2393 11.7775 15.4637 11.7775H18.8754L15.0222 16.7853C14.9746 16.8472 14.9492 16.9206 14.9492 16.9963V17.6304C14.9492 17.834 15.1314 17.999 15.3558 17.999H20.8721C21.0965 17.999 21.2787 17.834 21.2787 17.6304V16.9224C21.2783 16.7186 21.0965 16.5539 20.8717 16.5539Z" fill="#F58E08"/>
</svg>
