<svg width="16" height="15" viewBox="0 0 16 15" fill="none" xmlns="http://www.w3.org/2000/svg">
<path d="M11.2635 9.53024H10.5732L10.3286 9.30883C11.1848 8.37398 11.7003 7.16032 11.7003 5.84005C11.7003 2.89609 9.15776 0.509766 6.02106 0.509766C2.88436 0.509766 0.341797 2.89609 0.341797 5.84005C0.341797 8.784 2.88436 11.1703 6.02106 11.1703C7.42777 11.1703 8.72089 10.6865 9.71695 9.88286L9.95286 10.1125V10.7603L14.3215 14.8523L15.6234 13.6305L11.2635 9.53024Z" fill="#F58E08"/>
<path d="M6.02359 9.53273C3.848 9.53273 2.0918 7.88445 2.0918 5.84254C2.0918 3.80063 3.848 2.15234 6.02359 2.15234C8.19919 2.15234 9.95539 3.80063 9.95539 5.84254C9.95539 7.88445 8.19919 9.53273 6.02359 9.53273Z" fill="#EAEAEA"/>
</svg>
