<svg width="38" height="35" viewBox="0 0 38 35" fill="none" xmlns="http://www.w3.org/2000/svg">
<path fill-rule="evenodd" clip-rule="evenodd" d="M10.1401 8.81712C15.193 3.94161 23.2983 3.88039 28.2728 8.68015C33.2472 13.4799 33.1837 21.3006 28.1308 26.1761C23.0779 31.0516 14.9726 31.1129 9.99815 26.3131C5.02373 21.5133 5.08718 13.6926 10.1401 8.81712ZM20.4258 16.2553L23.8531 16.2294C24.5422 16.2242 25.1179 16.7797 25.1215 17.4533C25.116 18.1357 24.5403 18.6912 23.8331 18.6965L20.4058 18.7224L20.3789 22.0293C20.3734 22.7117 19.7977 23.2672 19.0905 23.2725C18.3833 23.2779 17.8165 22.731 17.8221 22.0486L17.8489 18.7417L14.4216 18.7676C13.7143 18.7729 13.1476 18.2261 13.1531 17.5437C13.1587 16.8613 13.7344 16.3058 14.4416 16.3005L17.8689 16.2746L17.8957 12.9677C17.9012 12.2853 18.4769 11.7298 19.1841 11.7245C19.5233 11.7215 19.8477 11.8489 20.0856 12.0785C20.3236 12.3081 20.4556 12.6211 20.4526 12.9483L20.4258 16.2553Z" fill="#F58E08"/>
</svg>
