<svg width="30" height="30" viewBox="0 0 30 30" fill="none" xmlns="http://www.w3.org/2000/svg">
<path d="M15 0C6.735 0 0 6.735 0 15C0 23.265 6.735 30 15 30C23.265 30 30 23.265 30 15C30 6.735 23.265 0 15 0Z" fill="#F58E08"/>
<path d="M15 7.5C14.175 7.5 13.5 8.175 13.5 9V13.5H9C8.175 13.5 7.5 14.175 7.5 15C7.5 15.825 8.175 16.5 9 16.5H13.5V21C13.5 21.825 14.175 22.5 15 22.5C15.825 22.5 16.5 21.825 16.5 21V16.5H21C21.825 16.5 22.5 15.825 22.5 15C22.5 14.175 21.825 13.5 21 13.5H16.5V9C16.5 8.175 15.825 7.5 15 7.5Z" fill="#F2F2F2"/>
</svg>
