<svg width="16" height="15" viewBox="0 0 16 15" fill="none" xmlns="http://www.w3.org/2000/svg">
<path d="M10.9217 9.02048H10.2314L9.98677 8.79906C10.843 7.86421 11.3585 6.65055 11.3585 5.33028C11.3585 2.38633 8.81596 0 5.67926 0C2.54256 0 0 2.38633 0 5.33028C0 8.27424 2.54256 10.6606 5.67926 10.6606C7.08597 10.6606 8.3791 10.1767 9.37515 9.37309L9.61106 9.60271V10.2505L13.9797 14.3426L15.2816 13.1207L10.9217 9.02048Z" fill="#F58E08"/>
<path d="M5.6818 9.02297C3.5062 9.02297 1.75 7.37468 1.75 5.33277C1.75 3.29086 3.5062 1.64258 5.6818 1.64258C7.85739 1.64258 9.61359 3.29086 9.61359 5.33277C9.61359 7.37468 7.85739 9.02297 5.6818 9.02297Z" fill="#EAEAEA"/>
</svg>
