<svg width="14" height="17" viewBox="0 0 14 17" fill="none" xmlns="http://www.w3.org/2000/svg">
<path fill-rule="evenodd" clip-rule="evenodd" d="M9.58618 10.9631H10.2084L13.5476 15.2086C13.8705 15.6172 13.8705 16.2849 13.5476 16.6935C13.2247 17.1021 12.6971 17.1021 12.3742 16.6935L9.027 12.458V11.6707L8.81436 11.3917C7.71177 12.5876 6.20752 13.2055 4.60876 12.8666C2.41932 12.3982 0.670925 10.0861 0.403152 7.29568C-0.00638223 3.08009 2.79735 -0.467775 6.12876 0.0504531C8.33395 0.389295 10.1611 2.60173 10.5313 5.37226C10.799 7.39534 10.3107 9.29883 9.36566 10.6941L9.58618 10.9631ZM1.93862 6.47881C1.93862 8.96032 3.52163 10.9635 5.48267 10.9635C7.44372 10.9635 9.02673 8.96032 9.02673 6.47881C9.02673 3.99729 7.44372 1.99414 5.48267 1.99414C3.52163 1.99414 1.93862 3.99729 1.93862 6.47881Z" fill="#EAEAEA"/>
</svg>
