<svg width="15" height="13" viewBox="0 0 15 13" fill="none" xmlns="http://www.w3.org/2000/svg">
<path d="M10.7143 8.18145H10.0371L9.79714 7.9884C10.6371 7.17329 11.1429 6.11509 11.1429 4.96393C11.1429 2.39707 8.64857 0.316406 5.57143 0.316406C2.49429 0.316406 0 2.39707 0 4.96393C0 7.53079 2.49429 9.61146 5.57143 9.61146C6.95143 9.61146 8.22 9.1896 9.19714 8.4889L9.42857 8.6891V9.25395L13.7143 12.8218L14.9914 11.7565L10.7143 8.18145Z" fill="#F58E08"/>
<path d="M5.57199 8.18113C3.4377 8.18113 1.71484 6.74397 1.71484 4.96361C1.71484 3.18325 3.4377 1.74609 5.57199 1.74609C7.70627 1.74609 9.42913 3.18325 9.42913 4.96361C9.42913 6.74397 7.70627 8.18113 5.57199 8.18113Z" fill="#EAEAEA"/>
</svg>
